<?xml version="1.0" standalone="no"?>
<!DOCTYPE svg PUBLIC "-//W3C//DTD SVG 1.1//EN" "http://www.w3.org/Graphics/SVG/1.1/DTD/svg11.dtd" >
<svg>
<metadata>
Created by FontForge 20090622 at Fri Apr 28 21:30:01 2017
 By deploy user
copyright missing
</metadata>
<defs>
<font id="Branding-SemiBold" horiz-adv-x="0" >
  <font-face 
    font-family="Branding SemiBold"
    font-weight="600"
    font-stretch="normal"
    units-per-em="1000"
    panose-1="0 0 7 0 0 0 0 0 0 0"
    ascent="770"
    descent="-230"
    x-height="470"
    cap-height="648"
    bbox="-697 -225 1351 873"
    underline-thickness="50"
    underline-position="-50"
    unicode-range="U+0020-U+FB02"
  />
<missing-glyph horiz-adv-x="398" 
d="M198 90l-168 169l168 168l169 -168z" />
    <glyph glyph-name="fi" unicode="fi" horiz-adv-x="555" 
d="M489 462v-462q-23 -5 -56 -5t-58 5v379l-167 1v-381q-30 -5 -55 -5q-24 0 -57 5v381h-64q-4 26 -4 40q0 15 4 43h64q2 100 62 151t147 51q96 0 157 -50q-2 -23 -17 -46.5t-33 -31.5q-49 34 -102 34q-46 0 -74 -24t-28 -76v-8z" />
    <glyph glyph-name="fl" unicode="fl" horiz-adv-x="575" 
d="M327 665q102 0 182 -38v-627q-23 -5 -57 -5q-32 0 -57 5l-3 561q-35 8 -71 8q-113 0 -113 -100v-5h96q6 -21 6 -45q0 -22 -6 -43h-96v-377q-30 -5 -55 -5q-24 0 -56 5v377h-64q-5 23 -5 43q0 21 5 46h64q1 98 65 149t165 51z" />
    <glyph glyph-name=".notdef" horiz-adv-x="398" 
d="M198 90l-168 169l168 168l169 -168z" />
    <glyph glyph-name=".null" 
 />
    <glyph glyph-name="nonmarkingreturn" horiz-adv-x="333" 
 />
    <glyph glyph-name="space" unicode=" " horiz-adv-x="224" 
 />
    <glyph glyph-name="exclam" unicode="!" horiz-adv-x="259" 
d="M129 169q-17 0 -32 4q-27 260 -28 467q30 9 59 9q32 0 62 -9q-1 -229 -29 -466q-13 -5 -32 -5zM129 -19q-28 0 -47.5 19.5t-19.5 47.5t19.5 47.5t47.5 19.5t47.5 -19.5t19.5 -47.5t-19.5 -47.5t-47.5 -19.5z" />
    <glyph glyph-name="quotedbl" unicode="&#x22;" horiz-adv-x="322" 
d="M96 448q-10 0 -26 3l-25 202q21 11 50 11q27 0 50 -10l-26 -202q-9 -4 -23 -4zM229 448q-9 0 -26 3l-26 202q21 11 51 11q27 0 50 -10l-26 -202q-11 -4 -23 -4z" />
    <glyph glyph-name="numbersign" unicode="#" horiz-adv-x="670" 
d="M610 354h-82l-47 -141h89q0 -49 -30 -90h-89l-56 -170q-53 -12 -96 0l56 170h-146l-56 -170q-53 -12 -96 0l56 170h-84q-1 53 31 90h83l47 141h-90q-3 47 30 91h90l56 170q51 11 96 0l-56 -170h146l56 170q51 11 96 0l-56 -170h82q1 -48 -30 -91zM385 213l47 141h-146
l-47 -141h146z" />
    <glyph glyph-name="dollar" unicode="$" horiz-adv-x="526" 
d="M488 217q0 -86 -51.5 -133.5t-139.5 -55.5v-84q-13 -3 -33 -3q-18 0 -33 3v84q-66 5 -116.5 25.5t-77.5 44.5q11 56 58 82q54 -46 136 -55v152q-85 9 -134.5 49t-49.5 111q-1 70 48.5 117.5t135.5 57.5v84q18 2 33 2t33 -2v-83q108 -7 177 -60q-16 -54 -54 -81
q-50 35 -123 44v-139q91 -10 141 -50.5t50 -109.5zM149 452q0 -26 16 -41t66 -25v130q-82 -9 -82 -64zM297 125q86 11 86 73q0 29 -17 47t-69 26v-146z" />
    <glyph glyph-name="percent" unicode="%" horiz-adv-x="745" 
d="M181 340q-71 0 -111 42t-40 110t40 110t111 42q70 0 109.5 -42t39.5 -110t-39.5 -110t-109.5 -42zM103 -47l436 674q46 10 83 0l-437 -674q-47 -8 -82 0zM181 409q35 0 52.5 22.5t17.5 60.5q0 37 -17.5 60t-52.5 23q-36 0 -54 -23t-18 -60q0 -38 18 -60.5t54 -22.5z
M565 -16q-71 0 -111 42t-40 110t40 109.5t111 41.5q70 0 109.5 -41.5t39.5 -109.5t-39.5 -110t-109.5 -42zM565 53q35 0 52.5 22.5t17.5 60.5q0 37 -17.5 60t-52.5 23q-36 0 -54 -23t-18 -60q0 -38 18 -60.5t54 -22.5z" />
    <glyph glyph-name="ampersand" unicode="&#x26;" horiz-adv-x="621" 
d="M599 335q0 -25 -7 -46h-93v-237q-90 -66 -212 -66q-108 0 -175 47t-67 143q0 117 107 163q-78 45 -78 139q0 77 54.5 125.5t142.5 48.5q111 0 173 -51q-9 -54 -53 -83q-52 35 -111 35q-44 0 -69.5 -22t-25.5 -63q0 -87 121 -87h285q8 -17 8 -46zM393 108v181h-101
q-130 0 -130 -102q0 -47 32.5 -74.5t93.5 -27.5q60 0 105 23z" />
    <glyph glyph-name="quotesingle" unicode="'" horiz-adv-x="189" 
d="M96 448q-10 0 -26 3l-26 202q21 11 51 11q27 0 50 -10l-26 -202q-9 -4 -23 -4z" />
    <glyph glyph-name="parenleft" unicode="(" horiz-adv-x="280" 
d="M162 -184q-118 201 -119 437q1 236 119 437q20 5 47.5 -5.5t36.5 -27.5q-88 -180 -89 -404q1 -224 89 -404q-12 -18 -37.5 -27.5t-46.5 -5.5z" />
    <glyph glyph-name="parenright" unicode=")" horiz-adv-x="280" 
d="M118 -184q-21 -4 -46 5.5t-37 27.5q88 180 89 404q-1 226 -90 403q11 18 37 28.5t47 5.5q118 -201 119 -437q-1 -236 -119 -437z" />
    <glyph glyph-name="asterisk" unicode="*" horiz-adv-x="358" 
d="M225 547v-3l81 -34q-9 -51 -52 -72l-57 67q-1 -1 -3.5 -1t-3.5 -1l-7 -89q-49 -7 -84 28l46 76q-2 2 -4 6l-88 -21q-22 45 0 89l88 -22q2 4 4 6l-48 78q35 35 85 28l6 -91q2 0 8 -2l58 68q45 -22 52 -71l-81 -33v-6z" />
    <glyph glyph-name="plus" unicode="+" horiz-adv-x="505" 
d="M465 287q9 -42 0 -83h-171v-171q-42 -9 -84 0v171h-170q-9 42 0 83h170v171q42 9 84 0v-171h171z" />
    <glyph glyph-name="comma" unicode="," horiz-adv-x="229" 
d="M77 -167q-14 0 -27.5 8.5t-17.5 20.5q32 56 32 146q0 49 -13 87q29 12 66 12q28 0 49 -9q7 -15 7 -56q0 -62 -29.5 -119t-66.5 -90z" />
    <glyph glyph-name="hyphen" unicode="-" horiz-adv-x="390" 
d="M66 207q-6 16 -6 43q0 26 6 43h258q6 -21 6 -43t-6 -43h-258z" />
    <glyph glyph-name="period" unicode="." horiz-adv-x="245" 
d="M122 -16q-32 0 -55 23.5t-23 55.5q0 31 23 54.5t55 23.5q33 0 55.5 -23t22.5 -55q0 -33 -22.5 -56t-55.5 -23z" />
    <glyph glyph-name="slash" unicode="/" horiz-adv-x="554" 
d="M70 -190q-22 0 -47 5l409 853q27 5 49 5t50 -5l-409 -853q-30 -5 -52 -5z" />
    <glyph glyph-name="zero" unicode="0" horiz-adv-x="613" 
d="M307 -16q-126 0 -193 93t-67 246q0 154 67.5 247t192.5 93q126 0 192.5 -93.5t66.5 -246.5q0 -152 -67.5 -245.5t-191.5 -93.5zM307 85q140 0 140 238q0 235 -140 235q-141 0 -141 -235q0 -238 141 -238z" />
    <glyph glyph-name="one" unicode="1" horiz-adv-x="366" 
d="M241 655q21 0 41 -5v-650q-24 -5 -57 -5q-30 0 -54 5v512l-115 -53q-40 40 -43 97l187 94q20 5 41 5z" />
    <glyph glyph-name="two" unicode="2" horiz-adv-x="530" 
d="M487 105q7 -21 7 -51t-7 -54h-438q-5 17 -5 36q0 48 39 86q167 157 215.5 218t48.5 114q0 45 -26.5 72.5t-76.5 27.5q-73 0 -140 -67q-50 14 -72 69q33 46 90 76.5t126 30.5q95 0 156 -54.5t61 -151.5q0 -80 -59 -156.5t-183 -184.5l-20 -14l24 2z" />
    <glyph glyph-name="three" unicode="3" horiz-adv-x="523" 
d="M52 645h401q6 -56 -28 -100l-118 -138q67 -9 118 -56t51 -140q0 -112 -70 -169.5t-175 -57.5q-67 0 -116.5 22.5t-77.5 50.5q15 55 66 85q62 -57 128 -57q61 0 95.5 30.5t34.5 88.5q0 61 -37 91.5t-123 30.5h-43q-3 10 -3 17q0 19 21 47l119 149h-243q-7 31 -7 54
q2 30 7 52z" />
    <glyph glyph-name="four" unicode="4" horiz-adv-x="522" 
d="M499 193q0 -27 -6 -53h-71v-140q-23 -4 -52 -4q-30 0 -54 4v140h-274q-36 65 6 161l166 366q55 -7 105 -37l-150 -338q-15 -33 -15 -50h162v161q24 4 54 4q29 0 52 -4v-161h72q5 -27 5 -49z" />
    <glyph glyph-name="five" unicode="5" horiz-adv-x="526" 
d="M236 -16q-116 0 -188 64q13 60 57 87q61 -51 134 -51q66 0 99 32.5t33 89.5q0 54 -33 83.5t-98 29.5q-32 0 -78 -12t-66 -12t-30 6v344h380q6 -27 6 -54q0 -23 -5 -51h-277v-134q34 15 83 15q115 0 173.5 -55t58.5 -156q0 -105 -65 -165.5t-184 -60.5z" />
    <glyph glyph-name="six" unicode="6" horiz-adv-x="542" 
d="M308 405q90 0 144.5 -53t54.5 -147q0 -100 -64.5 -161t-165.5 -61q-109 0 -170.5 69t-61.5 189q0 92 31 169t84.5 129.5t118.5 86t138 47.5q31 -28 33 -100q-223 -45 -276 -211q60 43 134 43zM282 81q53 0 85 30.5t32 89.5q0 52 -34 78.5t-81 26.5q-73 0 -127 -42
q-1 -9 -1 -27q0 -74 35.5 -115t90.5 -41z" />
    <glyph glyph-name="seven" unicode="7" horiz-adv-x="480" 
d="M454 642q5 -11 5 -35q0 -52 -20 -92l-261 -538q-64 8 -96 48l253 511h-307q-5 28 -5 54q0 24 5 52h426z" />
    <glyph glyph-name="eight" unicode="8" horiz-adv-x="551" 
d="M398 338q106 -60 106 -157q0 -101 -67.5 -149t-164.5 -48q-98 0 -162 41t-64 131q0 104 106 183q-85 53 -86 144q0 81 57.5 130.5t152.5 49.5t152 -46.5t57 -123.5q0 -90 -87 -155zM276 572q-47 0 -75 -22t-28 -56q0 -36 28 -58t85 -47q5 -2 26 -11q35 26 51.5 50.5
t16.5 57.5q0 41 -29 63.5t-75 22.5zM275 75q121 0 121 93q0 39 -32.5 63t-99.5 52q-4 2 -15 6.5t-17 7.5q-75 -56 -75 -130q0 -48 32.5 -70t85.5 -22z" />
    <glyph glyph-name="nine" unicode="9" horiz-adv-x="542" 
d="M260 663q113 0 173.5 -83t60.5 -233q0 -108 -28 -181.5t-81.5 -112.5t-117.5 -54.5t-150 -15.5q-14 26 -14 62q0 12 4 36q37 1 58.5 2t52.5 5t49 11.5t39.5 21t34.5 33t23.5 48.5t15.5 66q-57 -44 -133 -44q-98 0 -156 55.5t-58 156.5q0 99 63.5 163t163.5 64zM140 438
q0 -58 33 -87.5t84 -29.5q72 0 127 37q-2 98 -35.5 151t-90.5 53q-53 0 -85.5 -33t-32.5 -91z" />
    <glyph glyph-name="colon" unicode=":" horiz-adv-x="269" 
d="M135 305q-32 0 -55 23.5t-23 55.5t23 55t55 23t55 -23t23 -55t-23 -55.5t-55 -23.5zM135 -17q-32 0 -55 23t-23 55t23 55.5t55 23.5t55 -23.5t23 -55.5t-23 -55t-55 -23z" />
    <glyph glyph-name="semicolon" unicode=";" horiz-adv-x="274" 
d="M134 293q-32 0 -56 24t-24 56q0 33 24 57t56 24q34 0 57.5 -23.5t23.5 -57.5q0 -33 -23.5 -56.5t-57.5 -23.5zM104 -167q-14 0 -27.5 8.5t-17.5 20.5q32 56 32 146q0 48 -12 87q27 12 66 12q29 0 48 -9q8 -18 8 -56q0 -61 -30 -118.5t-67 -90.5z" />
    <glyph glyph-name="less" unicode="&#x3c;" horiz-adv-x="577" 
d="M153 230l377 -138q-1 -49 -31 -91l-459 178q-7 27 -7 57q0 35 6 59l455 170q28 -40 31 -94l-372 -129l-22 -5z" />
    <glyph glyph-name="equal" unicode="=" horiz-adv-x="559" 
d="M67 289q-4 19 -4 42t4 42h424q5 -23 5 -42t-5 -42h-424zM67 90q-4 19 -4 42t4 42h424q5 -23 5 -42t-5 -42h-424z" />
    <glyph glyph-name="greater" unicode="&#x3e;" horiz-adv-x="577" 
d="M538 295q6 -24 6 -59q0 -30 -7 -57l-459 -178q-29 39 -32 91l378 138l22 7l-22 5l-373 129q3 52 32 94z" />
    <glyph glyph-name="question" unicode="?" horiz-adv-x="427" 
d="M177 158q-10 0 -28 2q-20 85 -20 154h8q67 0 104.5 33t37.5 90q0 49 -31 79t-82 30q-49 0 -95 -27q-37 29 -44 80q59 48 144 48q98 0 158.5 -55.5t60.5 -148.5q0 -79 -47.5 -134t-123.5 -74q-2 -16 -14 -74q-13 -3 -28 -3zM178 -19q-28 0 -47.5 19.5t-19.5 47.5
t19.5 47.5t47.5 19.5t47.5 -19.5t19.5 -47.5t-19.5 -47.5t-47.5 -19.5z" />
    <glyph glyph-name="at" unicode="@" horiz-adv-x="867" 
d="M434 648q169 0 277 -103t108 -273q0 -109 -45.5 -165.5t-125.5 -56.5q-73 0 -114 60q-49 -43 -117 -43q-83 0 -132 51t-49 142q0 87 58.5 145t149.5 58q96 0 159 -45v-221q0 -61 54 -61q66 0 66 136q0 119 -81.5 202.5t-207.5 83.5q-123 0 -208 -83.5t-85 -216.5
q0 -126 79 -208.5t199 -82.5q69 0 134 31q12 -9 22 -35t10 -48q-71 -38 -166 -38q-166 0 -271.5 106.5t-105.5 274.5q0 170 115 280t277 110zM427 153q50 0 81 32v177q-30 14 -65 14q-48 0 -78.5 -31t-30.5 -83t25.5 -80.5t67.5 -28.5z" />
    <glyph glyph-name="A" unicode="A" horiz-adv-x="613" 
d="M364 642l241 -635q-30 -11 -71 -11q-28 0 -47 4l-57 154h-252l-55 -154q-23 -4 -51 -4q-38 0 -63 11l239 635q23 6 59 6q34 0 57 -6zM213 250h182l-74 200l-18 59l-18 -59z" />
    <glyph glyph-name="B" unicode="B" horiz-adv-x="586" 
d="M436 334q110 -37 110 -152q0 -94 -67.5 -145.5t-200.5 -51.5q-118 0 -200 16v630q92 18 196 18q243 0 243 -177q0 -98 -81 -138zM281 556q-49 0 -90 -4v-177h99q117 0 117 94q0 42 -32 64.5t-94 22.5zM282 80q79 0 114.5 25t35.5 79q0 96 -133 96h-108v-195q43 -5 91 -5z
" />
    <glyph glyph-name="C" unicode="C" horiz-adv-x="595" 
d="M364 -17q-146 0 -235 94t-89 244q0 148 94 244t236 96q119 0 197 -60q-5 -26 -22 -51.5t-40 -37.5q-61 42 -133 42q-93 0 -151.5 -63t-58.5 -170q0 -105 58 -168t147 -63q90 0 148 48q49 -28 60 -89q-78 -66 -211 -66z" />
    <glyph glyph-name="D" unicode="D" horiz-adv-x="673" 
d="M266 653q175 0 270.5 -88.5t95.5 -237.5q0 -153 -98 -245t-262 -92q-114 0 -194 12v637q88 14 188 14zM278 94q111 0 171 62.5t60 167.5q0 103 -61 163t-179 60q-48 0 -77 -3v-447q39 -3 86 -3z" />
    <glyph glyph-name="E" unicode="E" horiz-adv-x="546" 
d="M499 102q7 -22 7 -49q0 -29 -7 -53h-420v642h411q6 -24 6 -52q0 -26 -6 -51h-298v-159h265q6 -26 6 -51q0 -24 -6 -51h-265v-176h307z" />
    <glyph glyph-name="F" unicode="F" horiz-adv-x="516" 
d="M486 538h-294v-186h261q5 -21 5 -51t-5 -51h-261v-250q-29 -6 -57 -6q-27 0 -56 6v642h407q5 -21 5 -52t-5 -52z" />
    <glyph glyph-name="G" unicode="G" horiz-adv-x="652" 
d="M366 352h233v-319q-96 -50 -224 -50q-149 0 -241.5 91t-92.5 245t95 248t239 94q131 0 211 -56q-10 -66 -59 -95q-64 43 -153 43q-92 0 -151.5 -62t-59.5 -171q0 -107 54 -169t159 -62q64 0 111 15v142h-121q-6 29 -6 54t6 52z" />
    <glyph glyph-name="H" unicode="H" horiz-adv-x="688" 
d="M552 647q28 0 57 -6v-641q-27 -6 -54 -6q-29 0 -60 6v274h-303v-274q-28 -6 -57 -6q-26 0 -56 6v641q22 6 54 6q36 0 59 -6v-263h303v263q30 6 57 6z" />
    <glyph glyph-name="I" unicode="I" horiz-adv-x="271" 
d="M137 -6q-28 0 -58 6v641q27 7 56 7q30 0 57 -7v-641q-27 -6 -55 -6z" />
    <glyph glyph-name="J" unicode="J" horiz-adv-x="415" 
d="M149 -21q-48 0 -85.5 17t-56.5 40q11 60 61 87q37 -39 78 -39q82 0 82 88v469q20 6 56 6q34 0 57 -6v-468q0 -93 -52 -143.5t-140 -50.5z" />
    <glyph glyph-name="K" unicode="K" horiz-adv-x="612" 
d="M339 346l280 -340q-37 -8 -88 -8q-30 0 -58 2l-222 272l-59 -44v-228q-27 -6 -57 -6q-26 0 -56 6v641q27 6 55 6q29 0 58 -6v-285q86 66 142.5 129t119.5 159q27 3 57 3q40 0 75 -6q-108 -171 -247 -295z" />
    <glyph glyph-name="L" unicode="L" horiz-adv-x="493" 
d="M472 102q6 -26 6 -50q0 -25 -6 -52h-393v642q29 6 56 6q29 0 57 -6v-540h280z" />
    <glyph glyph-name="M" unicode="M" horiz-adv-x="793" 
d="M655 646q31 0 60 -7v-639q-30 -6 -53 -6q-24 0 -55 6v351l5 93l-17 -48l-146 -338q-25 -4 -50 -4q-22 0 -49 4l-151 340l-18 45l4 -92v-351q-27 -6 -53 -6q-23 0 -53 6v639q32 8 61 8q31 0 55 -5l198 -433l12 -32l10 32l186 433q24 4 54 4z" />
    <glyph glyph-name="N" unicode="N" horiz-adv-x="687" 
d="M552 647q28 0 56 -6v-636q-45 -11 -105 -9l-297 426l-18 34l2 -40v-416q-30 -6 -56 -6q-24 0 -55 6v635q51 19 106 10l296 -426l18 -32l-2 45v409q32 6 55 6z" />
    <glyph glyph-name="O" unicode="O" horiz-adv-x="736" 
d="M368 -16q-143 0 -235.5 95t-92.5 243q0 147 92.5 243t235.5 96q144 0 236 -94.5t92 -244.5q0 -145 -92.5 -241.5t-235.5 -96.5zM368 90q93 0 149.5 64.5t56.5 167.5q0 105 -56 169t-150 64t-150 -64t-56 -169q0 -103 56.5 -167.5t149.5 -64.5z" />
    <glyph glyph-name="P" unicode="P" horiz-adv-x="576" 
d="M278 656q138 0 205 -56t67 -155q0 -105 -71 -166t-197 -61q-50 0 -90 3v-221q-29 -6 -57 -6q-27 0 -57 6v634q90 22 200 22zM282 316q77 0 113.5 34.5t36.5 93.5q0 53 -38 83t-113 30q-41 0 -89 -5v-233q39 -3 90 -3z" />
    <glyph glyph-name="Q" unicode="Q" horiz-adv-x="736" 
d="M545 33q119 -50 160 -137q-29 -37 -100 -58q-91 146 -243 146q-141 2 -231.5 96.5t-90.5 241.5t92.5 243t235.5 96q144 0 236 -94.5t92 -244.5q0 -93 -40 -169t-111 -120zM162 322q0 -103 56.5 -167.5t149.5 -64.5t149.5 64.5t56.5 167.5q0 105 -56 169t-150 64t-150 -64
t-56 -169z" />
    <glyph glyph-name="R" unicode="R" horiz-adv-x="594" 
d="M413 261l157 -255q-36 -10 -90 -10q-26 0 -36 2l-143 238h-15q-62 0 -94 2v-238q-29 -6 -57 -6q-27 0 -57 6v632q95 21 205 21q129 0 192 -52.5t63 -146.5q0 -137 -125 -193zM192 335q33 -2 97 -2q68 0 101 31.5t33 83.5q0 107 -135 107q-44 0 -96 -5v-215z" />
    <glyph glyph-name="S" unicode="S" horiz-adv-x="540" 
d="M263 -16q-147 0 -231 80q10 60 59 89q71 -64 173 -64q62 0 93 23.5t31 63.5q0 35 -28 58.5t-111 43.5q-43 10 -75 23t-61.5 34.5t-45.5 55.5t-16 80q0 84 61.5 135.5t163.5 51.5q132 0 214 -64q-2 -27 -17.5 -53.5t-37.5 -38.5q-72 52 -163 52q-50 0 -80 -21.5t-30 -53.5
q0 -33 25.5 -53t104.5 -39q102 -25 154.5 -70.5t53.5 -128.5q1 -97 -62.5 -150.5t-174.5 -53.5z" />
    <glyph glyph-name="T" unicode="T" horiz-adv-x="543" 
d="M528 591q0 -24 -6 -51h-194v-541q-38 -6 -57 -6q-18 0 -56 6v541h-195q-6 26 -6 51t6 51h502q6 -26 6 -51z" />
    <glyph glyph-name="U" unicode="U" horiz-adv-x="672" 
d="M337 -17q-122 0 -194 70.5t-72 200.5v387q29 6 57 6t58 -6v-386q0 -76 39.5 -120.5t112.5 -44.5t112.5 44.5t39.5 120.5v386q28 6 56 6t56 -6v-385q0 -129 -72.5 -201t-192.5 -72z" />
    <glyph glyph-name="V" unicode="V" horiz-adv-x="617" 
d="M522 649q54 0 81 -10q-75 -315 -235 -637q-23 -6 -58 -6q-33 0 -61 6q-149 300 -235 637q38 10 81 10q22 0 43 -3q64 -274 177 -536q113 267 170 536q18 3 37 3z" />
    <glyph glyph-name="W" unicode="W" horiz-adv-x="927" 
d="M831 649q50 0 79 -11q-84 -376 -193 -637q-30 -6 -62 -6q-27 0 -61 6l-110 377l-16 71l-16 -72l-122 -375q-28 -6 -60 -6q-31 0 -67 6q-110 271 -179 637q40 10 83 10q23 0 42 -3q37 -263 122 -525l16 70l125 400q23 6 58 6q34 0 57 -6l118 -400l17 -71q86 259 132 525
q15 4 37 4z" />
    <glyph glyph-name="X" unicode="X" horiz-adv-x="603" 
d="M378 322l219 -317q-41 -9 -78 -9q-22 0 -56 4l-166 246l-162 -246q-30 -4 -53 -4q-47 0 -77 9l222 320l-207 315q41 9 87 9q26 0 47 -3l153 -246l148 246q21 3 46 3q49 0 83 -9z" />
    <glyph glyph-name="Y" unicode="Y" horiz-adv-x="597" 
d="M588 640l-233 -399v-241q-29 -6 -57 -6q-27 0 -57 6v247l-235 392q42 10 77 10q22 0 52 -4l149 -255l19 -42l19 42l146 255q21 4 51 4q29 0 69 -9z" />
    <glyph glyph-name="Z" unicode="Z" horiz-adv-x="574" 
d="M538 101q6 -23 6 -50q0 -29 -6 -51h-498q-6 18 -6 40q0 37 30 75l305 405l17 22l-345 -1q-6 22 -6 50q0 31 6 51h488q5 -20 5 -40q0 -36 -29 -75l-300 -397l-23 -29h356z" />
    <glyph glyph-name="bracketleft" unicode="[" horiz-adv-x="311" 
d="M181 -100h98q9 -44 0 -89h-199v884h199q11 -45 0 -89h-98v-706z" />
    <glyph glyph-name="backslash" unicode="\" horiz-adv-x="544" 
d="M474 -190q-23 0 -51 5l-400 830q30 5 51 5q23 0 48 -5l400 -830q-27 -5 -48 -5z" />
    <glyph glyph-name="bracketright" unicode="]" horiz-adv-x="312" 
d="M33 695h199v-884h-199q-11 45 0 89h97v706h-97q-9 44 0 89z" />
    <glyph glyph-name="asciicircum" unicode="^" horiz-adv-x="552" 
d="M122 311q-52 10 -85 49l188 325q51 12 102 0l188 -325q-31 -39 -85 -49l-154 266z" />
    <glyph glyph-name="underscore" unicode="_" horiz-adv-x="445" 
d="M7 -115q-7 18 -7 40t7 42h432q6 -19 6 -41t-6 -41h-432z" />
    <glyph glyph-name="grave" unicode="`" horiz-adv-x="268" 
d="M214 517l-190 103q15 63 65 90l157 -148q-9 -31 -32 -45z" />
    <glyph glyph-name="a" unicode="a" horiz-adv-x="512" 
d="M242 487q100 0 158.5 -48t58.5 -148v-259q-97 -47 -219 -47q-103 0 -156 40.5t-53 113.5q0 72 55.5 111.5t144.5 38.5q67 0 117 -18v27q0 43 -29 67t-85 24q-75 0 -132 -42q-44 22 -52 73q26 25 78 46t114 21zM146 144q0 -33 26.5 -52.5t77.5 -19.5q50 0 98 15v102
q-45 19 -108 19q-94 0 -94 -64z" />
    <glyph glyph-name="b" unicode="b" horiz-adv-x="567" 
d="M279 487q110 0 180 -65.5t70 -179.5q0 -118 -72.5 -187.5t-192.5 -69.5q-111 0 -201 46v627q33 5 57 5q26 0 56 -5v-193q46 22 103 22zM269 85q69 0 107.5 41t38.5 111q0 66 -38 107t-106 41q-55 0 -95 -21v-262q44 -17 93 -17z" />
    <glyph glyph-name="c" unicode="c" horiz-adv-x="479" 
d="M289 -15q-115 0 -183.5 66.5t-68.5 183.5q0 113 71 183t180 70q49 0 92.5 -16t67.5 -38q-13 -52 -61 -81q-44 37 -98 37q-66 0 -101.5 -44t-35.5 -110q0 -65 35 -109t103 -44q58 0 105 40q45 -23 60 -77q-63 -61 -166 -61z" />
    <glyph glyph-name="d" unicode="d" horiz-adv-x="567" 
d="M447 662q33 0 57 -5v-625q-89 -47 -205 -47q-119 0 -190.5 65t-71.5 183q0 114 74 183.5t184 69.5q57 0 96 -15v186q23 5 56 5zM297 84q49 -1 94 15v266q-33 21 -92 21q-64 0 -105.5 -41.5t-41.5 -109.5q0 -69 40 -110t105 -41z" />
    <glyph glyph-name="e" unicode="e" horiz-adv-x="529" 
d="M492 273q0 -32 -4 -67h-335q7 -59 42 -92.5t94 -33.5q71 0 140 49q42 -27 49 -77q-84 -67 -197 -67q-108 0 -176 67.5t-68 181.5q0 110 68 181.5t170 71.5q96 0 156.5 -59.5t60.5 -154.5zM154 281h227q0 47 -26 80t-80 34q-51 0 -83 -31.5t-38 -82.5z" />
    <glyph glyph-name="f" unicode="f" horiz-adv-x="341" 
d="M275 665q80 0 125 -40q-7 -52 -49 -79q-34 24 -73 24q-69 0 -69 -76v-28h113q6 -23 6 -47q0 -23 -6 -45h-113v-375q-30 -5 -55 -5q-24 0 -57 5v376h-64q-5 23 -5 45t5 47h64v11q0 91 51.5 139t126.5 48z" />
    <glyph glyph-name="g" unicode="g" horiz-adv-x="560" 
d="M295 488q117 0 203 -65v-403q0 -101 -66 -160t-171 -59q-143 0 -220 85q6 23 23 44t43 30q56 -65 150 -65q64 0 95.5 30.5t31.5 81.5v22q-44 -19 -98 -19q-107 0 -178.5 62.5t-71.5 169.5q0 110 74 178t185 68zM296 104q49 0 88 22v242q-39 21 -88 21q-63 0 -104 -40
t-41 -105q0 -64 40.5 -102t104.5 -38z" />
    <glyph glyph-name="h" unicode="h" horiz-adv-x="570" 
d="M301 488q101 0 155.5 -54.5t54.5 -136.5v-297q-24 -5 -58 -5q-32 0 -56 5v263q0 120 -114 120q-53 0 -104 -28v-355q-23 -5 -56 -5t-58 5v656q24 5 57 5t57 -5v-196q59 28 122 28z" />
    <glyph glyph-name="i" unicode="i" horiz-adv-x="245" 
d="M123 545q-31 0 -52.5 21t-21.5 51t21.5 51t52.5 21q29 0 50.5 -21t21.5 -51t-21.5 -51t-50.5 -21zM123 -5q-33 0 -57 5v473q24 5 57 5t56 -5v-473q-23 -5 -56 -5z" />
    <glyph glyph-name="j" unicode="j" horiz-adv-x="257" 
d="M133 544q-30 0 -51.5 21t-21.5 51t21 51t52 21q30 0 51 -21t21 -51t-21 -51t-51 -21zM20 -198q-82 0 -124 40q2 22 17 44.5t36 33.5q31 -22 58 -22q70 0 70 83v491q24 5 56 5q34 0 58 -5v-488q0 -87 -50 -134.5t-121 -47.5z" />
    <glyph glyph-name="k" unicode="k" horiz-adv-x="513" 
d="M306 242l209 -239q-38 -9 -82 -9q-31 0 -57 3l-159 181q-26 -16 -39 -23v-155q-22 -5 -56 -5q-32 0 -57 5v656q24 5 56 5q33 0 57 -5v-382q119 76 185 197q20 3 57 3q40 0 69 -7q-75 -133 -183 -225z" />
    <glyph glyph-name="l" unicode="l" horiz-adv-x="246" 
d="M123 -5q-32 0 -57 5v656q23 5 56 5q34 0 58 -5v-656q-22 -5 -57 -5z" />
    <glyph glyph-name="m" unicode="m" horiz-adv-x="868" 
d="M601 488q99 0 153 -53t54 -134v-301q-22 -5 -56 -5t-57 5v267q0 117 -107 117q-54 0 -101 -39q5 -23 5 -44v-301q-22 -5 -56 -5t-58 5v267q0 117 -106 117q-54 0 -97 -26v-358q-23 -5 -57 -5q-32 0 -56 5v413q33 29 94 52t129 23q98 0 155 -55q72 55 161 55z" />
    <glyph glyph-name="n" unicode="n" horiz-adv-x="568" 
d="M289 488q109 0 164.5 -55t55.5 -142v-291q-24 -5 -57 -5q-32 0 -57 5v264q0 120 -115 120q-61 0 -105 -26v-358q-23 -5 -57 -5q-32 0 -56 5v413q36 30 96.5 52.5t130.5 22.5z" />
    <glyph glyph-name="o" unicode="o" horiz-adv-x="576" 
d="M286 -15q-110 0 -179.5 70t-69.5 181q0 110 71.5 181t181.5 71t179.5 -70.5t69.5 -181.5q0 -109 -71.5 -180t-181.5 -71zM288 84q63 0 100 42t37 110q0 69 -37 111.5t-100 42.5t-100 -42.5t-37 -111.5q0 -68 37 -110t100 -42z" />
    <glyph glyph-name="p" unicode="p" horiz-adv-x="565" 
d="M273 487q113 0 184 -65t71 -184q0 -115 -73.5 -184t-177.5 -69q-60 0 -102 14v-184q-23 -5 -56 -5q-32 0 -57 5v599q88 73 211 73zM269 86q65 0 105 40.5t40 110.5q0 68 -40 107t-106 39q-51 0 -93 -23v-255q39 -19 94 -19z" />
    <glyph glyph-name="q" unicode="q" horiz-adv-x="565" 
d="M297 487q127 0 207 -71l-1 -601q-24 -5 -57 -5q-34 0 -56 5v188q-42 -18 -98 -18q-112 0 -183.5 64.5t-71.5 179.5q0 118 75 188t185 70zM296 87q55 0 95 20v254q-45 24 -93 24q-65 0 -106 -41.5t-41 -109.5q0 -69 40 -108t105 -39z" />
    <glyph glyph-name="r" unicode="r" horiz-adv-x="375" 
d="M262 487q64 0 105 -15q0 -59 -30 -98q-35 9 -72 9q-56 0 -89 -19v-364q-22 -5 -57 -5q-33 0 -57 5v419q31 28 84 48t116 20z" />
    <glyph glyph-name="s" unicode="s" horiz-adv-x="469" 
d="M228 -16q-126 0 -196 60q13 54 52 78q65 -47 146 -47q91 0 91 57q0 25 -25 39t-87 24q-75 12 -119.5 44t-44.5 100q0 66 54.5 107t144.5 41q113 0 178 -46q-8 -53 -43 -81q-63 36 -139 36q-86 0 -86 -49q0 -24 21.5 -36.5t80.5 -22.5q86 -13 132 -46t46 -99
q0 -74 -54.5 -116.5t-151.5 -42.5z" />
    <glyph glyph-name="t" unicode="t" horiz-adv-x="428" 
d="M373 116q41 -28 48 -79q-59 -51 -142 -51q-81 0 -129 39t-48 121v229h-81q-4 20 -4 47q0 25 4 45h81v126q24 5 57 5t55 -5v-126h177q5 -19 5 -45q0 -27 -5 -47h-177v-203q0 -49 20.5 -68.5t59.5 -19.5q45 0 79 32z" />
    <glyph glyph-name="u" unicode="u" horiz-adv-x="562" 
d="M442 475q33 0 57 -5v-435q-104 -50 -226 -50q-108 0 -161 49.5t-53 138.5v297q25 5 58 5q34 0 56 -5v-264q0 -62 24 -91t91 -29q54 0 97 18v366q24 5 57 5z" />
    <glyph glyph-name="v" unicode="v" horiz-adv-x="507" 
d="M421 476q42 0 72 -10q-63 -257 -184 -466q-23 -5 -54 -5q-32 0 -56 5q-115 192 -186 466q32 10 78 10q18 0 44 -4q50 -198 117 -352q4 -10 5 -15l6 15q64 148 114 352q26 4 44 4z" />
    <glyph glyph-name="w" unicode="w" horiz-adv-x="753" 
d="M668 475q42 0 71 -9q-67 -279 -176 -466q-23 -5 -56 -5q-31 0 -54 5q-45 85 -80 181q-26 -98 -68 -181q-23 -5 -59 -5q-33 0 -54 5q-112 186 -176 466q29 9 77 9q25 0 45 -3q47 -222 112 -369l3 -13q3 10 4 13q44 100 71 216q-15 53 -38 147q29 9 76 9q22 0 42 -3
q47 -238 101 -369l3 -16q2 10 4 16q60 139 107 369q19 3 45 3z" />
    <glyph glyph-name="x" unicode="x" horiz-adv-x="500" 
d="M318 239l173 -237q-16 -8 -67 -8q-37 0 -60 4l-118 170l-111 -170q-19 -4 -52 -4q-43 0 -70 8l168 238l-162 226q26 10 83 10q23 0 41 -3l110 -163l102 163q23 3 45 3q49 0 76 -10z" />
    <glyph glyph-name="y" unicode="y" horiz-adv-x="517" 
d="M429 476q37 0 71 -12q-45 -227 -128.5 -385.5t-227.5 -287.5q-51 14 -72 74q89 86 128 147q-120 194 -183 454q30 10 78 10q16 0 46 -4q40 -186 119 -352q6 -14 8 -20l3.5 10t4.5 10q64 133 108 352q28 4 45 4z" />
    <glyph glyph-name="z" unicode="z" horiz-adv-x="471" 
d="M435 93q7 -17 7 -46q0 -28 -7 -47h-394q-7 18 -7 37q0 41 32 78l212 240l21 22h-255q-6 26 -6 47q0 22 6 46h378q6 -15 6 -33q0 -49 -32 -85l-205 -241l-17 -18h261z" />
    <glyph glyph-name="braceleft" unicode="{" horiz-adv-x="348" 
d="M280 -100h35q9 -44 0 -89h-56q-73 0 -108.5 41t-35.5 107v177q0 68 -62 68h-35q-8 27 -8 50q0 29 8 51h42q55 0 55 65v177q0 66 35.5 107t108.5 41h56q9 -45 0 -89h-35q-62 0 -62 -59v-184q0 -73 -51 -110q51 -37 51 -110v-184q0 -59 62 -59z" />
    <glyph glyph-name="bar" unicode="|" horiz-adv-x="242" 
d="M78 -180v875q42 11 86 0v-875q-42 -16 -86 0z" />
    <glyph glyph-name="braceright" unicode="}" horiz-adv-x="348" 
d="M329 305q8 -19 8 -51q0 -27 -8 -50h-35q-62 0 -62 -68v-177q0 -66 -35.5 -107t-108.5 -41h-56q-9 45 0 89h35q62 0 62 59v184q0 73 51 110q-51 37 -51 110v184q0 59 -62 59h-35q-9 44 0 89h56q73 0 108.5 -41t35.5 -107v-177q0 -65 56 -65h41z" />
    <glyph glyph-name="asciitilde" unicode="~" horiz-adv-x="558" 
d="M135 158q-51 5 -81 39q20 48 58 74.5t84 26.5q29 0 83 -18t78 -18q41 0 65 46q51 -3 81 -41q-18 -48 -56.5 -75t-83.5 -27q-37 0 -90.5 18t-71.5 18q-40 0 -66 -43z" />
    <glyph glyph-name="uni00A0" unicode="&#xa0;" horiz-adv-x="224" 
 />
    <glyph glyph-name="exclamdown" unicode="&#xa1;" horiz-adv-x="248" 
d="M124 361q-28 0 -47.5 19.5t-19.5 47.5t19.5 47.5t47.5 19.5t47.5 -19.5t19.5 -47.5t-19.5 -47.5t-47.5 -19.5zM125 -173q-32 0 -62 9q1 214 29 466q17 5 32 5q17 0 32 -4q27 -279 28 -467q-30 -9 -59 -9z" />
    <glyph glyph-name="cent" unicode="&#xa2;" horiz-adv-x="500" 
d="M462 134q-56 -56 -142 -64v-103q-14 -3 -33 -3q-21 0 -34 3v103q-98 11 -156.5 74.5t-58.5 166.5q0 99 59.5 164t155.5 76v105q14 3 34 3q19 0 33 -3v-104q91 -10 141 -62q-15 -51 -62 -76q-33 33 -79 40v-286q44 6 84 42q45 -26 58 -76zM153 311q0 -52 25.5 -90.5
t74.5 -50.5v282q-49 -12 -74.5 -50.5t-25.5 -90.5z" />
    <glyph glyph-name="sterling" unicode="&#xa3;" horiz-adv-x="554" 
d="M508 104q6 -27 6 -50q0 -27 -6 -54h-435q0 54 32 124.5t32 122.5v16h-93q-6 21 -6 43t6 43h76q-21 63 -21 107q0 85 62 145t165 60q107 0 184 -61q-11 -62 -58 -90q-56 45 -124 45q-55 0 -85.5 -28.5t-30.5 -72.5q0 -13 1 -25t4 -23.5t5 -18.5l6 -20t6 -18h148
q6 -22 6 -44q0 -21 -6 -42h-132v-17q0 -28 -12.5 -69.5t-30.5 -72.5h301z" />
    <glyph glyph-name="currency" unicode="&#xa4;" horiz-adv-x="621" 
d="M554 327q0 -73 -40 -134l53 -55q-28 -49 -74 -75l-56 57q-56 -36 -126 -36q-69 0 -127 36l-55 -57q-48 28 -75 75l54 56q-40 61 -40 133q0 73 40 134l-54 56q28 49 75 74l56 -57q56 36 126 36q67 0 126 -35l56 56q45 -24 74 -74l-54 -55q41 -62 41 -135zM310 192
q55 0 94 39.5t39 96.5t-38.5 96.5t-94.5 39.5q-55 0 -93.5 -39.5t-38.5 -96.5t38.5 -96.5t93.5 -39.5z" />
    <glyph glyph-name="yen" unicode="&#xa5;" horiz-adv-x="587" 
d="M478 255h-129v-57h129q4 -15 4 -33t-4 -33h-129v-132q-23 -5 -57 -5q-33 0 -58 5v132h-131q-4 15 -4 33t4 33h131v57h-131q-4 15 -4 33t4 33h108l-185 314q38 8 73 8q33 0 54 -3l128 -231l16 -33l15 33l134 231q17 3 51 3q31 0 65 -8l-188 -314h104q4 -15 4 -33t-4 -33z
" />
    <glyph glyph-name="brokenbar" unicode="&#xa6;" horiz-adv-x="241" 
d="M78 335v360q44 12 85 0v-360q-41 -16 -85 0zM78 -180v353q44 12 85 0v-353q-43 -16 -85 0z" />
    <glyph glyph-name="section" unicode="&#xa7;" horiz-adv-x="569" 
d="M256 110l-130 116q-92 82 -92 193q0 104 73 175t178 71q119 0 207 -73q-4 -28 -21.5 -51.5t-44.5 -34.5q-64 52 -139 52q-60 0 -102.5 -41t-42.5 -101q0 -66 59 -117l126 -113q-22 -56 -71 -76zM284 -122q-121 0 -207 74q5 28 22.5 51.5t43.5 34.5q64 -52 140 -52
q60 0 102 40.5t42 100.5q0 68 -57 120l-126 112q19 56 71 77l130 -116q91 -87 91 -196q0 -104 -73.5 -175t-178.5 -71z" />
    <glyph glyph-name="dieresis" unicode="&#xa8;" horiz-adv-x="378" 
d="M85 545q-27 0 -46 18.5t-19 45.5q0 26 18.5 44.5t46.5 18.5q26 0 44.5 -18.5t18.5 -44.5q0 -27 -18.5 -45.5t-44.5 -18.5zM293 545q-26 0 -45 18.5t-19 45.5q0 26 18.5 44.5t45.5 18.5q26 0 45 -18.5t19 -44.5q0 -27 -19 -45.5t-45 -18.5z" />
    <glyph glyph-name="copyright" unicode="&#xa9;" horiz-adv-x="760" 
d="M381 -37q-143 0 -240.5 99.5t-97.5 245.5t97.5 246t240.5 100q142 0 238.5 -100t96.5 -246t-96.5 -245.5t-238.5 -99.5zM381 31q109 0 187 80.5t78 196.5q0 117 -77.5 196.5t-187.5 79.5q-112 0 -189.5 -79t-77.5 -197q0 -117 77.5 -197t189.5 -80zM391 107
q-91 0 -145 53t-54 147q0 90 56 145t143 55q41 0 76.5 -13t54.5 -32q-9 -44 -50 -70q-34 30 -81 30q-51 0 -78 -32t-27 -82q0 -51 26.5 -83.5t78.5 -32.5q51 0 85 30q38 -21 48 -67q-50 -48 -133 -48z" />
    <glyph glyph-name="ordfeminine" unicode="&#xaa;" horiz-adv-x="385" 
d="M194 668q138 0 138 -135v-162q-77 -31 -154 -31q-63 0 -98.5 27t-35.5 74q0 48 37 74.5t98 26.5q42 -2 66 -10v15q0 48 -63 48q-49 1 -91 -29q-35 19 -39 56q58 46 142 46zM135 444q0 -40 56 -40q28 0 54 8v59q-24 11 -55 11q-55 0 -55 -38z" />
    <glyph glyph-name="guillemotleft" unicode="&#xab;" horiz-adv-x="466" 
d="M183 85l-150 168l148 171q33 -6 48 -33l-79 -136l79 -139q-12 -25 -46 -31zM366 85l-150 168l148 171q33 -6 48 -33l-79 -136l79 -139q-12 -25 -46 -31z" />
    <glyph glyph-name="registered" unicode="&#xae;" horiz-adv-x="759" 
d="M381 758q139 0 237 -100.5t98 -246.5t-97.5 -246t-237.5 -100q-142 0 -240 100t-98 246t98 246.5t240 100.5zM381 134q111 0 188.5 80.5t77.5 196.5q0 117 -77.5 196.5t-188.5 79.5q-113 0 -190 -79.5t-77 -196.5t77 -197t190 -80zM532 492q0 -81 -79 -115l94 -161
q-20 -5 -40 -5q-30 0 -40 1l-88 151q-33 0 -66 3v-152q-10 -3 -29 -3q-28 0 -44 3v386q61 14 139 14q153 0 153 -122zM313 543v-108q23 -3 67 -3q75 0 75 59q0 56 -75 56q-36 0 -67 -4z" />
    <glyph glyph-name="macron" unicode="&#xaf;" horiz-adv-x="340" 
d="M29 566q-6 17 -6 43q0 28 6 45h283q5 -23 5 -44t-5 -44h-283z" />
    <glyph glyph-name="degree" unicode="&#xb0;" horiz-adv-x="331" 
d="M165 427q-53 0 -90.5 37.5t-37.5 91.5q0 52 37.5 89.5t90.5 37.5t91 -37.5t38 -89.5q0 -54 -38 -91.5t-91 -37.5zM166 493q25 0 44 18.5t19 43.5q0 27 -18.5 45t-44.5 18t-44.5 -18t-18.5 -45q0 -25 19 -43.5t44 -18.5z" />
    <glyph glyph-name="plusminus" unicode="&#xb1;" horiz-adv-x="541" 
d="M228 267h-169q-11 42 0 84h169v135q42 9 85 0v-135h170q9 -42 0 -84h-170v-138q-43 -11 -85 0v138zM59 60h424q9 -41 0 -83h-424q-11 41 0 83z" />
    <glyph glyph-name="acute" unicode="&#xb4;" horiz-adv-x="256" 
d="M54 517q-25 17 -32 46l157 147q48 -26 65 -90z" />
    <glyph glyph-name="paragraph" unicode="&#xb6;" horiz-adv-x="618" 
d="M303 656q136 0 228 -29v-813q-23 -6 -55 -6q-31 0 -53 6v401q-66 -7 -124 -7q-128 0 -200 61.5t-72 162.5q0 104 70.5 164t205.5 60zM300 308q72 0 123 6v233q-65 10 -122 10q-155 0 -155 -124q0 -57 39 -91t115 -34zM235 137q28 5 54 5q31 0 52 -5v-323q-24 -6 -52 -6
q-30 0 -54 6v323z" />
    <glyph glyph-name="periodcentered" unicode="&#xb7;" horiz-adv-x="240" 
d="M120 265q-28 0 -48.5 20.5t-20.5 48.5t20.5 48.5t48.5 20.5t48.5 -20.5t20.5 -48.5t-20.5 -48.5t-48.5 -20.5z" />
    <glyph glyph-name="cedilla" unicode="&#xb8;" horiz-adv-x="252" 
d="M106 11h67l-17 -48q76 -15 76 -73q0 -51 -37.5 -72.5t-84.5 -21.5q-54 0 -83 21q2 36 26 59q22 -14 46 -14q39 0 39 29q0 32 -65 34z" />
    <glyph glyph-name="ordmasculine" unicode="&#xba;" horiz-adv-x="411" 
d="M204 340q-74 0 -119.5 44t-45.5 120t47 120.5t121 44.5t119.5 -44t45.5 -121q0 -75 -47 -119.5t-121 -44.5zM206 416q35 0 55 23t20 65q0 43 -20 66t-55 23q-36 0 -56 -23.5t-20 -65.5t20 -65t56 -23z" />
    <glyph glyph-name="guillemotright" unicode="&#xbb;" horiz-adv-x="466" 
d="M101 85q-34 6 -47 31l79 137l-80 138q14 27 46 33l150 -170zM284 85q-34 6 -47 31l79 137l-80 138q14 27 46 33l150 -170z" />
    <glyph glyph-name="onequarter" unicode="&#xbc;" horiz-adv-x="774" 
d="M542 665q42 9 86 0l-471 -712q-44 -11 -86 0zM126 264v288l-67 -30q-27 24 -32 68q72 35 100 45.5t55 10.5q21 0 36 -3v-379q-24 -3 -46 -3q-24 0 -46 3zM744 99q0 -21 -3 -40h-33v-61q-14 -2 -42 -2q-29 0 -43 2v61h-180q-21 42 4 96l118 243q45 -1 81 -32l-92 -200
q-9 -21 -9 -30h78v97q21 3 43 3q21 0 42 -3v-97h34q2 -24 2 -37z" />
    <glyph glyph-name="onehalf" unicode="&#xbd;" horiz-adv-x="774" 
d="M549 665q43 9 86 0l-470 -712q-46 -10 -86 0zM126 263v287l-68 -30q-26 24 -31 69q71 36 99.5 46.5t55.5 10.5q23 0 36 -4v-379q-24 -3 -46 -3q-24 0 -46 3zM734 76q5 -11 5 -39q0 -22 -5 -37h-275q-3 9 -3 22q0 29 24 53q89 91 117 125t28 61q0 20 -13 32.5t-37 12.5
q-38 0 -70 -34q-37 10 -54 45q20 29 54.5 48.5t75.5 19.5q60 0 98 -31t38 -86q0 -43 -29.5 -84.5t-89.5 -98.5l-20 -12l29 3h127z" />
    <glyph glyph-name="threequarters" unicode="&#xbe;" horiz-adv-x="814" 
d="M593 665q42 9 86 0l-471 -712q-44 -11 -86 0zM165 328q33 0 52 16.5t19 44.5q0 61 -84 61h-34q-2 3 -2 13q0 13 8 26l64 79h-141q-4 20 -4 42q0 20 4 35h262q5 -34 -16 -60l-68 -79q41 -6 70.5 -34.5t29.5 -79.5q0 -66 -45 -101.5t-113 -35.5q-79 0 -130 46q9 38 44 60
q41 -33 84 -33zM785 99q0 -21 -3 -40h-33v-61q-14 -2 -42 -2q-29 0 -43 2v61h-180q-20 40 4 96l119 243q45 -1 80 -30l-91 -202q-9 -21 -9 -30h77v97q21 3 43 3q21 0 42 -3v-97h34q2 -24 2 -37z" />
    <glyph glyph-name="questiondown" unicode="&#xbf;" horiz-adv-x="421" 
d="M245 364q-28 0 -47.5 19t-19.5 47t19.5 47.5t47.5 19.5t47.5 -19.5t19.5 -47.5t-19.5 -47t-47.5 -19zM253 -169q-98 0 -159 55.5t-61 149.5q0 79 47 133.5t124 73.5q2 16 14 74q14 3 29 3q9 0 27 -2q20 -83 21 -154h-9q-67 0 -104.5 -32.5t-37.5 -89.5q0 -50 31 -80
t83 -30q49 0 94 28q38 -30 44 -81q-59 -48 -143 -48z" />
    <glyph glyph-name="Agrave" unicode="&#xc0;" horiz-adv-x="613" 
d="M414 722q-5 -31 -24 -46l-210 75q0 64 51 98zM364 642l241 -635q-30 -11 -71 -11q-28 0 -47 4l-57 154h-252l-55 -154q-23 -4 -51 -4q-38 0 -63 11l239 635q23 6 59 6q34 0 57 -6zM213 250h182l-74 200l-18 59l-18 -59z" />
    <glyph glyph-name="Aacute" unicode="&#xc1;" horiz-adv-x="613" 
d="M214 676q-20 17 -23 46l183 127q49 -33 51 -98zM364 642l241 -635q-30 -11 -71 -11q-28 0 -47 4l-57 154h-252l-55 -154q-23 -4 -51 -4q-38 0 -63 11l239 635q23 6 59 6q34 0 57 -6zM213 250h182l-74 200l-18 59l-18 -59z" />
    <glyph glyph-name="Acircumflex" unicode="&#xc2;" horiz-adv-x="613" 
d="M193 685q-29 18 -35 53l115 94q35 9 69 0l116 -92q-7 -35 -36 -55l-118 68zM364 642l241 -635q-30 -11 -71 -11q-28 0 -47 4l-57 154h-252l-55 -154q-23 -4 -51 -4q-38 0 -63 11l239 635q23 6 59 6q34 0 57 -6zM213 250h182l-74 200l-18 59l-18 -59z" />
    <glyph glyph-name="Atilde" unicode="&#xc3;" horiz-adv-x="613" 
d="M197 688q-21 0 -44.5 7.5t-34.5 20.5q10 50 42.5 78t77.5 28q30 0 74 -19t57 -19q37 0 47 43q52 0 79 -27q-10 -49 -42.5 -77.5t-74.5 -28.5q-29 0 -74 18t-58 18q-39 0 -49 -42zM364 642l241 -635q-30 -11 -71 -11q-28 0 -47 4l-57 154h-252l-55 -154q-23 -4 -51 -4
q-38 0 -63 11l239 635q23 6 59 6q34 0 57 -6zM213 250h182l-74 200l-18 59l-18 -59z" />
    <glyph glyph-name="Adieresis" unicode="&#xc4;" horiz-adv-x="613" 
d="M202 700q-27 0 -45.5 18.5t-18.5 44.5t18.5 44.5t45.5 18.5q26 0 44 -18.5t18 -44.5t-18 -44.5t-44 -18.5zM413 700q-26 0 -45 18.5t-19 44.5t18.5 44.5t45.5 18.5q26 0 44.5 -18.5t18.5 -44.5t-18.5 -44.5t-44.5 -18.5zM364 642l241 -635q-30 -11 -71 -11q-28 0 -47 4
l-57 154h-252l-55 -154q-23 -4 -51 -4q-38 0 -63 11l239 635q23 6 59 6q34 0 57 -6zM213 250h182l-74 200l-18 59l-18 -59z" />
    <glyph glyph-name="Aring" unicode="&#xc5;" horiz-adv-x="613" 
d="M308 658q-45 0 -76.5 31.5t-31.5 75.5q0 45 31.5 76.5t76.5 31.5q44 0 75 -31.5t31 -76.5q0 -44 -31 -75.5t-75 -31.5zM307 808q-18 0 -29 -12.5t-11 -30.5q0 -17 11.5 -29.5t28.5 -12.5t28.5 12.5t11.5 29.5q0 18 -11 30.5t-29 12.5zM364 642l241 -635q-30 -11 -71 -11
q-28 0 -47 4l-57 154h-252l-55 -154q-23 -4 -51 -4q-38 0 -63 11l239 635q23 6 59 6q34 0 57 -6zM213 250h182l-74 200l-18 59l-18 -59z" />
    <glyph glyph-name="AE" unicode="&#xc6;" horiz-adv-x="849" 
d="M804 103q6 -26 6 -50q0 -26 -6 -53h-384v236h-174l-137 -236q-24 -4 -52 -4q-38 0 -66 11l364 635h437q6 -25 6 -52q0 -26 -6 -51h-258v-196h229q6 -24 6 -48q0 -23 -6 -49h-229v-143h270zM302 333h118v155l3 62l-32 -63z" />
    <glyph glyph-name="Ccedilla" unicode="&#xc7;" horiz-adv-x="595" 
d="M381 -37q76 -15 76 -73q0 -51 -37.5 -72.5t-84.5 -21.5q-54 0 -83 21q2 36 26 59q22 -14 46 -14q39 0 39 29q0 32 -65 34l23 60q-128 14 -204.5 106t-76.5 230q0 148 94 244t236 96q119 0 197 -60q-5 -26 -22 -51.5t-40 -37.5q-61 42 -133 42q-93 0 -151.5 -63
t-58.5 -170q0 -105 58 -168t147 -63q90 0 148 48q49 -28 60 -89q-70 -60 -187 -65z" />
    <glyph glyph-name="Egrave" unicode="&#xc8;" horiz-adv-x="546" 
d="M401 722q-5 -31 -24 -46l-210 75q0 64 51 98zM499 102q7 -22 7 -49q0 -29 -7 -53h-420v642h411q6 -24 6 -52q0 -26 -6 -51h-298v-159h265q6 -26 6 -51q0 -24 -6 -51h-265v-176h307z" />
    <glyph glyph-name="Eacute" unicode="&#xc9;" horiz-adv-x="546" 
d="M201 676q-20 17 -23 46l183 127q49 -33 51 -98zM499 102q7 -22 7 -49q0 -29 -7 -53h-420v642h411q6 -24 6 -52q0 -26 -6 -51h-298v-159h265q6 -26 6 -51q0 -24 -6 -51h-265v-176h307z" />
    <glyph glyph-name="Ecircumflex" unicode="&#xca;" horiz-adv-x="546" 
d="M180 685q-29 18 -35 53l115 94q34 9 69 0l116 -92q-7 -35 -36 -55l-118 68zM499 102q7 -22 7 -49q0 -29 -7 -53h-420v642h411q6 -24 6 -52q0 -26 -6 -51h-298v-159h265q6 -26 6 -51q0 -24 -6 -51h-265v-176h307z" />
    <glyph glyph-name="Edieresis" unicode="&#xcb;" horiz-adv-x="546" 
d="M189 700q-27 0 -45.5 18.5t-18.5 44.5t18.5 44.5t45.5 18.5q26 0 44 -18.5t18 -44.5t-18 -44.5t-44 -18.5zM400 700q-26 0 -45 18.5t-19 44.5t18.5 44.5t45.5 18.5q26 0 44.5 -18.5t18.5 -44.5t-18.5 -44.5t-44.5 -18.5zM499 102q7 -22 7 -49q0 -29 -7 -53h-420v642h411
q6 -24 6 -52q0 -26 -6 -51h-298v-159h265q6 -26 6 -51q0 -24 -6 -51h-265v-176h307z" />
    <glyph glyph-name="Igrave" unicode="&#xcc;" horiz-adv-x="271" 
d="M206 680l-196 71q1 64 52 95l167 -122q-1 -26 -23 -44zM137 -6q-28 0 -58 6v641q27 7 56 7q30 0 57 -7v-641q-27 -6 -55 -6z" />
    <glyph glyph-name="Iacute" unicode="&#xcd;" horiz-adv-x="271" 
d="M51 678q-22 18 -23 44l167 122q51 -31 52 -95zM137 -6q-28 0 -58 6v641q27 7 56 7q30 0 57 -7v-641q-27 -6 -55 -6z" />
    <glyph glyph-name="Icircumflex" unicode="&#xce;" horiz-adv-x="271" 
d="M169 833l100 -99q-12 -33 -44 -50l-93 68l-86 -67q-35 14 -44 44l100 104q34 8 67 0zM137 -6q-28 0 -58 6v641q27 7 56 7q30 0 57 -7v-641q-27 -6 -55 -6z" />
    <glyph glyph-name="Idieresis" unicode="&#xcf;" horiz-adv-x="271" 
d="M55 697q-27 0 -45.5 18t-18.5 45q0 26 18 44t46 18q26 0 44 -18t18 -44q0 -27 -18 -45t-44 -18zM219 697q-26 0 -44.5 18t-18.5 45q0 26 18 44t45 18q26 0 44.5 -18t18.5 -44q0 -27 -18.5 -45t-44.5 -18zM137 -6q-28 0 -58 6v641q27 7 56 7q30 0 57 -7v-641
q-27 -6 -55 -6z" />
    <glyph glyph-name="Eth" unicode="&#xd0;" horiz-adv-x="673" 
d="M266 653q175 0 270.5 -88.5t95.5 -237.5q0 -153 -98 -245t-262 -92q-114 0 -194 12v276h-74q-7 23 -7 42q0 20 7 44h74v275q88 14 188 14zM278 94q111 0 171 62.5t60 167.5q0 103 -61 163t-179 60q-48 0 -77 -3v-180h105q6 -26 6 -43q0 -13 -6 -43h-105v-181q39 -3 86 -3
z" />
    <glyph glyph-name="Ntilde" unicode="&#xd1;" horiz-adv-x="687" 
d="M237 688q-21 0 -44.5 7.5t-34.5 20.5q10 50 42.5 78t77.5 28q30 0 74 -19t57 -19q37 0 47 43q52 0 79 -27q-10 -49 -42.5 -77.5t-74.5 -28.5q-29 0 -74 18t-58 18q-39 0 -49 -42zM552 647q28 0 56 -6v-636q-45 -11 -105 -9l-297 426l-18 34l2 -40v-416q-30 -6 -56 -6
q-24 0 -55 6v635q51 19 106 10l296 -426l18 -32l-2 45v409q32 6 55 6z" />
    <glyph glyph-name="Ograve" unicode="&#xd2;" horiz-adv-x="736" 
d="M453 676l-210 75q0 64 51 98l183 -127q-5 -31 -24 -46zM368 -16q-143 0 -235.5 95t-92.5 243q0 147 92.5 243t235.5 96q144 0 236 -94.5t92 -244.5q0 -145 -92.5 -241.5t-235.5 -96.5zM368 90q93 0 149.5 64.5t56.5 167.5q0 105 -56 169t-150 64t-150 -64t-56 -169
q0 -103 56.5 -167.5t149.5 -64.5z" />
    <glyph glyph-name="Oacute" unicode="&#xd3;" horiz-adv-x="736" 
d="M278 676q-20 17 -23 46l183 127q49 -33 51 -98zM368 -16q-143 0 -235.5 95t-92.5 243q0 147 92.5 243t235.5 96q144 0 236 -94.5t92 -244.5q0 -145 -92.5 -241.5t-235.5 -96.5zM368 90q93 0 149.5 64.5t56.5 167.5q0 105 -56 169t-150 64t-150 -64t-56 -169
q0 -103 56.5 -167.5t149.5 -64.5z" />
    <glyph glyph-name="Ocircumflex" unicode="&#xd4;" horiz-adv-x="736" 
d="M256 685q-29 18 -35 53l115 94q34 9 69 0l116 -92q-7 -35 -36 -55l-118 68zM368 -16q-143 0 -235.5 95t-92.5 243q0 147 92.5 243t235.5 96q144 0 236 -94.5t92 -244.5q0 -145 -92.5 -241.5t-235.5 -96.5zM368 90q93 0 149.5 64.5t56.5 167.5q0 105 -56 169t-150 64
t-150 -64t-56 -169q0 -103 56.5 -167.5t149.5 -64.5z" />
    <glyph glyph-name="Otilde" unicode="&#xd5;" horiz-adv-x="736" 
d="M261 688q-21 0 -44.5 7.5t-34.5 20.5q10 50 42.5 78t77.5 28q30 0 74 -19t57 -19q37 0 47 43q52 0 79 -27q-10 -49 -42.5 -77.5t-74.5 -28.5q-29 0 -74 18t-58 18q-39 0 -49 -42zM368 -16q-143 0 -235.5 95t-92.5 243q0 147 92.5 243t235.5 96q144 0 236 -94.5t92 -244.5
q0 -145 -92.5 -241.5t-235.5 -96.5zM368 90q93 0 149.5 64.5t56.5 167.5q0 105 -56 169t-150 64t-150 -64t-56 -169q0 -103 56.5 -167.5t149.5 -64.5z" />
    <glyph glyph-name="Odieresis" unicode="&#xd6;" horiz-adv-x="736" 
d="M266 700q-27 0 -45.5 18.5t-18.5 44.5t18.5 44.5t45.5 18.5q26 0 44 -18.5t18 -44.5t-18 -44.5t-44 -18.5zM477 700q-26 0 -45 18.5t-19 44.5t18.5 44.5t45.5 18.5q26 0 44.5 -18.5t18.5 -44.5t-18.5 -44.5t-44.5 -18.5zM368 -16q-143 0 -235.5 95t-92.5 243
q0 147 92.5 243t235.5 96q144 0 236 -94.5t92 -244.5q0 -145 -92.5 -241.5t-235.5 -96.5zM368 90q93 0 149.5 64.5t56.5 167.5q0 105 -56 169t-150 64t-150 -64t-56 -169q0 -103 56.5 -167.5t149.5 -64.5z" />
    <glyph glyph-name="multiply" unicode="&#xd7;" horiz-adv-x="468" 
d="M419 370l-126 -126l126 -126q-24 -36 -60 -59l-125 126l-125 -125q-38 25 -59 59l125 125l-125 125q24 37 59 59l125 -125l125 126q36 -23 60 -59z" />
    <glyph glyph-name="Oslash" unicode="&#xd8;" horiz-adv-x="736" 
d="M698 616l-70 -77q68 -90 68 -217q0 -145 -92.5 -241.5t-235.5 -96.5q-110 0 -193 58l-69 -76q-50 15 -68 65l70 76q-68 90 -68 215q0 147 92.5 243t235.5 96q112 0 194 -59l68 75q48 -15 68 -61zM162 322q0 -71 28 -125l296 323q-49 35 -118 35q-94 0 -150 -64t-56 -169z
M574 322q0 73 -28 127l-295 -324q51 -35 117 -35q93 0 149.5 64.5t56.5 167.5z" />
    <glyph glyph-name="Ugrave" unicode="&#xd9;" horiz-adv-x="672" 
d="M423 676l-210 75q0 64 51 98l183 -127q-5 -31 -24 -46zM337 -17q-122 0 -194 70.5t-72 200.5v387q29 6 57 6t58 -6v-386q0 -76 39.5 -120.5t112.5 -44.5t112.5 44.5t39.5 120.5v386q28 6 56 6t56 -6v-385q0 -129 -72.5 -201t-192.5 -72z" />
    <glyph glyph-name="Uacute" unicode="&#xda;" horiz-adv-x="672" 
d="M248 676q-20 17 -23 46l183 127q49 -33 51 -98zM337 -17q-122 0 -194 70.5t-72 200.5v387q29 6 57 6t58 -6v-386q0 -76 39.5 -120.5t112.5 -44.5t112.5 44.5t39.5 120.5v386q28 6 56 6t56 -6v-385q0 -129 -72.5 -201t-192.5 -72z" />
    <glyph glyph-name="Ucircumflex" unicode="&#xdb;" horiz-adv-x="672" 
d="M226 685q-29 18 -35 53l115 94q34 9 69 0l116 -92q-7 -35 -36 -55l-118 68zM337 -17q-122 0 -194 70.5t-72 200.5v387q29 6 57 6t58 -6v-386q0 -76 39.5 -120.5t112.5 -44.5t112.5 44.5t39.5 120.5v386q28 6 56 6t56 -6v-385q0 -129 -72.5 -201t-192.5 -72z" />
    <glyph glyph-name="Udieresis" unicode="&#xdc;" horiz-adv-x="672" 
d="M236 700q-27 0 -45.5 18.5t-18.5 44.5t18.5 44.5t45.5 18.5q26 0 44 -18.5t18 -44.5t-18 -44.5t-44 -18.5zM447 700q-26 0 -45 18.5t-19 44.5t18.5 44.5t45.5 18.5q26 0 44.5 -18.5t18.5 -44.5t-18.5 -44.5t-44.5 -18.5zM337 -17q-122 0 -194 70.5t-72 200.5v387
q29 6 57 6t58 -6v-386q0 -76 39.5 -120.5t112.5 -44.5t112.5 44.5t39.5 120.5v386q28 6 56 6t56 -6v-385q0 -129 -72.5 -201t-192.5 -72z" />
    <glyph glyph-name="Yacute" unicode="&#xdd;" horiz-adv-x="597" 
d="M206 676q-20 17 -23 46l183 127q49 -33 51 -98zM588 640l-233 -399v-241q-29 -6 -57 -6q-27 0 -57 6v247l-235 392q42 10 77 10q22 0 52 -4l149 -255l19 -42l19 42l146 255q21 4 51 4q29 0 69 -9z" />
    <glyph glyph-name="Thorn" unicode="&#xde;" horiz-adv-x="555" 
d="M267 536q131 0 195.5 -55.5t64.5 -153.5q0 -101 -68.5 -162.5t-185.5 -61.5q-43 0 -79 3v-106q-28 -6 -57 -6q-28 0 -58 6v641q29 6 57 6t58 -6v-109q46 4 73 4zM272 202q70 0 103.5 33.5t33.5 90.5q0 52 -36 82t-104 30q-32 0 -75 -5v-227q31 -4 78 -4z" />
    <glyph glyph-name="germandbls" unicode="&#xdf;" horiz-adv-x="603" 
d="M449 286q123 -44 123 -146q0 -72 -46 -114t-126 -42q-53 0 -97 19t-64 41q4 25 19 45.5t35 29.5q50 -43 103 -43q66 0 66 53q0 24 -17.5 38.5t-60.5 30.5q-28 11 -45 20t-38 25.5t-31.5 40.5t-10.5 55q0 69 48.5 105.5t114.5 36.5h2q0 49 -31 83.5t-88 34.5
q-60 0 -93.5 -34.5t-33.5 -101.5v-463q-22 -5 -55 -5q-34 0 -58 5v468q0 106 69 167t171 61q101 0 165.5 -59t65.5 -167q-1 -54 -13 -84q-39 9 -80 9q-35 0 -54 -13t-19 -35q0 -19 15.5 -32t63.5 -29z" />
    <glyph glyph-name="agrave" unicode="&#xe0;" horiz-adv-x="512" 
d="M352 562q-9 -31 -32 -45l-190 103q15 63 65 90zM242 487q100 0 158.5 -48t58.5 -148v-259q-97 -47 -219 -47q-103 0 -156 40.5t-53 113.5q0 72 55.5 111.5t144.5 38.5q67 0 117 -18v27q0 43 -29 67t-85 24q-75 0 -132 -42q-44 22 -52 73q26 25 78 46t114 21zM146 144
q0 -33 26.5 -52.5t77.5 -19.5q50 0 98 15v102q-45 19 -108 19q-94 0 -94 -64z" />
    <glyph glyph-name="aacute" unicode="&#xe1;" horiz-adv-x="512" 
d="M171 517q-25 17 -32 46l157 147q48 -26 65 -90zM242 487q100 0 158.5 -48t58.5 -148v-259q-97 -47 -219 -47q-103 0 -156 40.5t-53 113.5q0 72 55.5 111.5t144.5 38.5q67 0 117 -18v27q0 43 -29 67t-85 24q-75 0 -132 -42q-44 22 -52 73q26 25 78 46t114 21zM146 144
q0 -33 26.5 -52.5t77.5 -19.5q50 0 98 15v102q-45 19 -108 19q-94 0 -94 -64z" />
    <glyph glyph-name="acircumflex" unicode="&#xe2;" horiz-adv-x="512" 
d="M148 525q-36 13 -47 50l114 118q35 7 69 0l111 -114q-11 -39 -48 -55l-101 80zM242 487q100 0 158.5 -48t58.5 -148v-259q-97 -47 -219 -47q-103 0 -156 40.5t-53 113.5q0 72 55.5 111.5t144.5 38.5q67 0 117 -18v27q0 43 -29 67t-85 24q-75 0 -132 -42q-44 22 -52 73
q26 25 78 46t114 21zM146 144q0 -33 26.5 -52.5t77.5 -19.5q50 0 98 15v102q-45 19 -108 19q-94 0 -94 -64z" />
    <glyph glyph-name="atilde" unicode="&#xe3;" horiz-adv-x="512" 
d="M144 546q-21 0 -45 7.5t-35 20.5q10 50 42.5 79t76.5 29q28 -1 70 -20t56 -19q34 0 47 42q47 0 79 -27q-11 -49 -43 -77t-73 -28q-29 0 -71.5 19t-55.5 19q-35 0 -48 -45zM242 487q100 0 158.5 -48t58.5 -148v-259q-97 -47 -219 -47q-103 0 -156 40.5t-53 113.5
q0 72 55.5 111.5t144.5 38.5q67 0 117 -18v27q0 43 -29 67t-85 24q-75 0 -132 -42q-44 22 -52 73q26 25 78 46t114 21zM146 144q0 -33 26.5 -52.5t77.5 -19.5q50 0 98 15v102q-45 19 -108 19q-94 0 -94 -64z" />
    <glyph glyph-name="adieresis" unicode="&#xe4;" horiz-adv-x="512" 
d="M145 545q-27 0 -46 18.5t-19 45.5q0 26 18.5 44.5t46.5 18.5q26 0 44.5 -18.5t18.5 -44.5q0 -27 -18.5 -45.5t-44.5 -18.5zM353 545q-26 0 -45 18.5t-19 45.5q0 26 18.5 44.5t45.5 18.5q26 0 45 -18.5t19 -44.5q0 -27 -19 -45.5t-45 -18.5zM242 487q100 0 158.5 -48
t58.5 -148v-259q-97 -47 -219 -47q-103 0 -156 40.5t-53 113.5q0 72 55.5 111.5t144.5 38.5q67 0 117 -18v27q0 43 -29 67t-85 24q-75 0 -132 -42q-44 22 -52 73q26 25 78 46t114 21zM146 144q0 -33 26.5 -52.5t77.5 -19.5q50 0 98 15v102q-45 19 -108 19q-94 0 -94 -64z
" />
    <glyph glyph-name="aring" unicode="&#xe5;" horiz-adv-x="512" 
d="M250 506q-45 0 -77 31.5t-32 76.5q0 44 32 75.5t77 31.5q44 0 75.5 -31.5t31.5 -75.5q0 -45 -31.5 -76.5t-75.5 -31.5zM249 657q-17 0 -29 -13t-12 -31q0 -17 12 -29.5t29 -12.5q18 0 30 12.5t12 29.5q0 18 -12 31t-30 13zM242 487q100 0 158.5 -48t58.5 -148v-259
q-97 -47 -219 -47q-103 0 -156 40.5t-53 113.5q0 72 55.5 111.5t144.5 38.5q67 0 117 -18v27q0 43 -29 67t-85 24q-75 0 -132 -42q-44 22 -52 73q26 25 78 46t114 21zM146 144q0 -33 26.5 -52.5t77.5 -19.5q50 0 98 15v102q-45 19 -108 19q-94 0 -94 -64z" />
    <glyph glyph-name="ae" unicode="&#xe6;" horiz-adv-x="801" 
d="M201 -15q-77 0 -123 40t-46 111q0 70 53.5 109t141.5 39h108v23q0 39 -29 60t-82 21q-71 0 -128 -42q-38 28 -48 77q26 24 76 44t108 20q134 0 173 -89q24 41 68 65t94 24q90 0 142.5 -61t51.5 -161q0 -31 -3 -60h-307v-1q3 -55 37.5 -89t87.5 -34q30 0 58 9t41 16.5
t34 22.5q40 -27 48 -81q-82 -63 -187 -63q-134 0 -188 103q-58 -103 -181 -103zM450 284h202q0 44 -21.5 76.5t-67.5 32.5q-49 0 -78.5 -32.5t-34.5 -76.5zM220 74q49 0 82 33t33 98l-99 -1q-92 0 -92 -65q0 -30 20.5 -47.5t55.5 -17.5z" />
    <glyph glyph-name="ccedilla" unicode="&#xe7;" horiz-adv-x="479" 
d="M302 -37q76 -15 76 -73q0 -51 -37.5 -72.5t-84.5 -21.5q-54 0 -83 21q2 36 26 59q22 -14 46 -14q39 0 39 29q0 32 -65 34l24 63q-95 13 -150.5 78t-55.5 169q0 113 71 183t180 70q49 0 92.5 -16t67.5 -38q-13 -52 -61 -81q-44 37 -98 37q-66 0 -101.5 -44t-35.5 -110
q0 -65 35 -109t103 -44q58 0 105 40q45 -23 60 -77q-55 -53 -145 -60z" />
    <glyph glyph-name="egrave" unicode="&#xe8;" horiz-adv-x="529" 
d="M374 562q-9 -31 -32 -45l-190 103q15 63 65 90zM492 273q0 -32 -4 -67h-335q7 -59 42 -92.5t94 -33.5q71 0 140 49q42 -27 49 -77q-84 -67 -197 -67q-108 0 -176 67.5t-68 181.5q0 110 68 181.5t170 71.5q96 0 156.5 -59.5t60.5 -154.5zM154 281h227q0 47 -26 80t-80 34
q-51 0 -83 -31.5t-38 -82.5z" />
    <glyph glyph-name="eacute" unicode="&#xe9;" horiz-adv-x="529" 
d="M193 517q-25 17 -32 46l157 147q48 -26 65 -90zM492 273q0 -32 -4 -67h-335q7 -59 42 -92.5t94 -33.5q71 0 140 49q42 -27 49 -77q-84 -67 -197 -67q-108 0 -176 67.5t-68 181.5q0 110 68 181.5t170 71.5q96 0 156.5 -59.5t60.5 -154.5zM154 281h227q0 47 -26 80t-80 34
q-51 0 -83 -31.5t-38 -82.5z" />
    <glyph glyph-name="ecircumflex" unicode="&#xea;" horiz-adv-x="529" 
d="M169 525q-36 13 -47 50l114 118q34 7 69 0l111 -114q-11 -39 -48 -55l-101 80zM492 273q0 -32 -4 -67h-335q7 -59 42 -92.5t94 -33.5q71 0 140 49q42 -27 49 -77q-84 -67 -197 -67q-108 0 -176 67.5t-68 181.5q0 110 68 181.5t170 71.5q96 0 156.5 -59.5t60.5 -154.5z
M154 281h227q0 47 -26 80t-80 34q-51 0 -83 -31.5t-38 -82.5z" />
    <glyph glyph-name="edieresis" unicode="&#xeb;" horiz-adv-x="529" 
d="M167 545q-27 0 -46 18.5t-19 45.5q0 26 18.5 44.5t46.5 18.5q26 0 44.5 -18.5t18.5 -44.5q0 -27 -18.5 -45.5t-44.5 -18.5zM375 545q-26 0 -45 18.5t-19 45.5q0 26 18.5 44.5t45.5 18.5q26 0 45 -18.5t19 -44.5q0 -27 -19 -45.5t-45 -18.5zM492 273q0 -32 -4 -67h-335
q7 -59 42 -92.5t94 -33.5q71 0 140 49q42 -27 49 -77q-84 -67 -197 -67q-108 0 -176 67.5t-68 181.5q0 110 68 181.5t170 71.5q96 0 156.5 -59.5t60.5 -154.5zM154 281h227q0 47 -26 80t-80 34q-51 0 -83 -31.5t-38 -82.5z" />
    <glyph glyph-name="igrave" unicode="&#xec;" horiz-adv-x="245" 
d="M186 518l-184 113q15 64 72 89l146 -159q-7 -30 -34 -43zM123 -5q-33 0 -57 5v473q24 5 57 5t56 -5v-473q-23 -5 -56 -5z" />
    <glyph glyph-name="iacute" unicode="&#xed;" horiz-adv-x="245" 
d="M63 516q-26 12 -35 41l140 164q59 -22 76 -86zM123 -5q-33 0 -57 5v473q24 5 57 5t56 -5v-473q-23 -5 -56 -5z" />
    <glyph glyph-name="icircumflex" unicode="&#xee;" horiz-adv-x="245" 
d="M146 693l101 -118q-9 -30 -45 -45l-85 68l-83 -68q-34 11 -45 45l103 118q27 6 54 0zM123 -5q-33 0 -57 5v473q24 5 57 5t56 -5v-473q-23 -5 -56 -5z" />
    <glyph glyph-name="idieresis" unicode="&#xef;" horiz-adv-x="246" 
d="M32 545q-27 0 -45.5 18t-18.5 45q0 26 18.5 44t45.5 18q26 0 44.5 -18t18.5 -44q0 -27 -18.5 -45t-44.5 -18zM203 545q-26 0 -44.5 18t-18.5 45q0 26 18.5 44t44.5 18t44.5 -18t18.5 -44q0 -27 -18.5 -45t-44.5 -18zM123 -5q-33 0 -57 5v473q24 5 57 5t56 -5v-473
q-23 -5 -56 -5z" />
    <glyph glyph-name="eth" unicode="&#xf0;" horiz-adv-x="547" 
d="M336 594q170 -115 170 -362q0 -110 -65 -178.5t-175 -68.5q-102 0 -165 61.5t-63 163.5q0 100 66 163.5t162 63.5q53 0 102 -22q-37 67 -113 108l-66 -59q-16 9 -25 22q-11 13 -17 27l43 38q-37 12 -76 21q-5 66 35 100q75 -18 128 -44l60 54q11 -7 24 -20q13 -17 18 -29
zM271 81q57 0 88 37.5t31 98.5q0 58 -33 93t-86 35q-54 0 -86.5 -35t-32.5 -97q0 -60 32 -96t87 -36z" />
    <glyph glyph-name="ntilde" unicode="&#xf1;" horiz-adv-x="568" 
d="M176 546q-21 0 -45 7.5t-35 20.5q10 50 42.5 79t76.5 29q28 -1 70 -20t56 -19q34 0 47 42q47 0 79 -27q-11 -49 -43 -77t-73 -28q-29 0 -71.5 19t-55.5 19q-35 0 -48 -45zM289 488q109 0 164.5 -55t55.5 -142v-291q-24 -5 -57 -5q-32 0 -57 5v264q0 120 -115 120
q-61 0 -105 -26v-358q-23 -5 -57 -5q-32 0 -56 5v413q36 30 96.5 52.5t130.5 22.5z" />
    <glyph glyph-name="ograve" unicode="&#xf2;" horiz-adv-x="576" 
d="M359 517l-190 103q15 63 65 90l157 -148q-9 -31 -32 -45zM286 -15q-110 0 -179.5 70t-69.5 181q0 110 71.5 181t181.5 71t179.5 -70.5t69.5 -181.5q0 -109 -71.5 -180t-181.5 -71zM288 84q63 0 100 42t37 110q0 69 -37 111.5t-100 42.5t-100 -42.5t-37 -111.5
q0 -68 37 -110t100 -42z" />
    <glyph glyph-name="oacute" unicode="&#xf3;" horiz-adv-x="576" 
d="M210 517q-25 17 -32 46l157 147q48 -26 65 -90zM286 -15q-110 0 -179.5 70t-69.5 181q0 110 71.5 181t181.5 71t179.5 -70.5t69.5 -181.5q0 -109 -71.5 -180t-181.5 -71zM288 84q63 0 100 42t37 110q0 69 -37 111.5t-100 42.5t-100 -42.5t-37 -111.5q0 -68 37 -110
t100 -42z" />
    <glyph glyph-name="ocircumflex" unicode="&#xf4;" horiz-adv-x="576" 
d="M323 693l111 -114q-11 -39 -48 -55l-101 80l-98 -79q-36 13 -47 50l114 118q34 7 69 0zM286 -15q-110 0 -179.5 70t-69.5 181q0 110 71.5 181t181.5 71t179.5 -70.5t69.5 -181.5q0 -109 -71.5 -180t-181.5 -71zM288 84q63 0 100 42t37 110q0 69 -37 111.5t-100 42.5
t-100 -42.5t-37 -111.5q0 -68 37 -110t100 -42z" />
    <glyph glyph-name="otilde" unicode="&#xf5;" horiz-adv-x="576" 
d="M183 546q-21 0 -45 7.5t-35 20.5q10 50 42.5 79t76.5 29q28 -1 70 -20t56 -19q34 0 47 42q47 0 79 -27q-11 -49 -43 -77t-73 -28q-29 0 -71.5 19t-55.5 19q-35 0 -48 -45zM286 -15q-110 0 -179.5 70t-69.5 181q0 110 71.5 181t181.5 71t179.5 -70.5t69.5 -181.5
q0 -109 -71.5 -180t-181.5 -71zM288 84q63 0 100 42t37 110q0 69 -37 111.5t-100 42.5t-100 -42.5t-37 -111.5q0 -68 37 -110t100 -42z" />
    <glyph glyph-name="odieresis" unicode="&#xf6;" horiz-adv-x="576" 
d="M184 545q-27 0 -46 18.5t-19 45.5q0 26 18.5 44.5t46.5 18.5q26 0 44.5 -18.5t18.5 -44.5q0 -27 -18.5 -45.5t-44.5 -18.5zM392 545q-26 0 -45 18.5t-19 45.5q0 26 18.5 44.5t45.5 18.5q26 0 45 -18.5t19 -44.5q0 -27 -19 -45.5t-45 -18.5zM286 -15q-110 0 -179.5 70
t-69.5 181q0 110 71.5 181t181.5 71t179.5 -70.5t69.5 -181.5q0 -109 -71.5 -180t-181.5 -71zM288 84q63 0 100 42t37 110q0 69 -37 111.5t-100 42.5t-100 -42.5t-37 -111.5q0 -68 37 -110t100 -42z" />
    <glyph glyph-name="divide" unicode="&#xf7;" horiz-adv-x="516" 
d="M258 326q-29 0 -50 20.5t-21 49.5t21 50t50 21t50 -21t21 -50t-21 -49.5t-50 -20.5zM48 198q-5 22 -5 40t5 40h420q5 -22 5 -40t-5 -40h-420zM258 10q-29 0 -50 21t-21 50t21 49.5t50 20.5t50 -20.5t21 -49.5t-21 -50t-50 -21z" />
    <glyph glyph-name="oslash" unicode="&#xf8;" horiz-adv-x="578" 
d="M483 403q57 -68 57 -167q0 -109 -71.5 -180t-181.5 -71q-81 0 -143 41l-51 -57q-34 13 -47 47l48 54q-56 69 -56 166q0 110 72 181t181 71q83 0 144 -42l50 55q35 -11 47 -43zM152 236q0 -48 18 -83l195 216q-34 21 -76 21q-63 0 -100 -42.5t-37 -111.5zM289 84
q63 0 100 42t37 110q0 48 -18 84l-194 -216q32 -20 75 -20z" />
    <glyph glyph-name="ugrave" unicode="&#xf9;" horiz-adv-x="562" 
d="M384 562q-9 -31 -32 -45l-190 103q15 63 65 90zM442 475q33 0 57 -5v-435q-104 -50 -226 -50q-108 0 -161 49.5t-53 138.5v297q25 5 58 5q34 0 56 -5v-264q0 -62 24 -91t91 -29q54 0 97 18v366q24 5 57 5z" />
    <glyph glyph-name="uacute" unicode="&#xfa;" horiz-adv-x="562" 
d="M203 517q-25 17 -32 46l157 147q48 -26 65 -90zM442 475q33 0 57 -5v-435q-104 -50 -226 -50q-108 0 -161 49.5t-53 138.5v297q25 5 58 5q34 0 56 -5v-264q0 -62 24 -91t91 -29q54 0 97 18v366q24 5 57 5z" />
    <glyph glyph-name="ucircumflex" unicode="&#xfb;" horiz-adv-x="562" 
d="M179 525q-36 13 -47 50l114 118q34 7 69 0l111 -114q-11 -39 -48 -55l-101 80zM442 475q33 0 57 -5v-435q-104 -50 -226 -50q-108 0 -161 49.5t-53 138.5v297q25 5 58 5q34 0 56 -5v-264q0 -62 24 -91t91 -29q54 0 97 18v366q24 5 57 5z" />
    <glyph glyph-name="udieresis" unicode="&#xfc;" horiz-adv-x="562" 
d="M177 545q-27 0 -46 18.5t-19 45.5q0 26 18.5 44.5t46.5 18.5q26 0 44.5 -18.5t18.5 -44.5q0 -27 -18.5 -45.5t-44.5 -18.5zM385 545q-26 0 -45 18.5t-19 45.5q0 26 18.5 44.5t45.5 18.5q26 0 45 -18.5t19 -44.5q0 -27 -19 -45.5t-45 -18.5zM442 475q33 0 57 -5v-435
q-104 -50 -226 -50q-108 0 -161 49.5t-53 138.5v297q25 5 58 5q34 0 56 -5v-264q0 -62 24 -91t91 -29q54 0 97 18v366q24 5 57 5z" />
    <glyph glyph-name="yacute" unicode="&#xfd;" horiz-adv-x="517" 
d="M187 517q-25 17 -32 46l157 147q48 -26 65 -90zM429 476q37 0 71 -12q-45 -227 -128.5 -385.5t-227.5 -287.5q-51 14 -72 74q89 86 128 147q-120 194 -183 454q30 10 78 10q16 0 46 -4q40 -186 119 -352q6 -14 8 -20l3.5 10t4.5 10q64 133 108 352q28 4 45 4z" />
    <glyph glyph-name="thorn" unicode="&#xfe;" horiz-adv-x="568" 
d="M278 487q112 0 182.5 -64.5t70.5 -181.5q0 -115 -73 -185.5t-181 -70.5q-57 0 -99 15v-185q-22 -5 -56 -5q-33 0 -57 5v841q24 5 56 5q33 0 57 -5v-186q51 17 100 17zM272 86q65 0 105 40.5t40 109.5q0 68 -39.5 107.5t-105.5 39.5q-50 0 -94 -18v-260q39 -19 94 -19z
" />
    <glyph glyph-name="ydieresis" unicode="&#xff;" horiz-adv-x="517" 
d="M161 545q-27 0 -46 18.5t-19 45.5q0 26 18.5 44.5t46.5 18.5q26 0 44.5 -18.5t18.5 -44.5q0 -27 -18.5 -45.5t-44.5 -18.5zM369 545q-26 0 -45 18.5t-19 45.5q0 26 18.5 44.5t45.5 18.5q26 0 45 -18.5t19 -44.5q0 -27 -19 -45.5t-45 -18.5zM429 476q37 0 71 -12
q-45 -227 -128.5 -385.5t-227.5 -287.5q-51 14 -72 74q89 86 128 147q-120 194 -183 454q30 10 78 10q16 0 46 -4q40 -186 119 -352q6 -14 8 -20l3.5 10t4.5 10q64 133 108 352q28 4 45 4z" />
    <glyph glyph-name="Amacron" unicode="&#x100;" horiz-adv-x="613" 
d="M451 718h-289q-6 26 -6 41q0 14 6 42h289q6 -19 6 -42q0 -21 -6 -41zM364 642l241 -635q-30 -11 -71 -11q-28 0 -47 4l-57 154h-252l-55 -154q-23 -4 -51 -4q-38 0 -63 11l239 635q23 6 59 6q34 0 57 -6zM213 250h182l-74 200l-18 59l-18 -59z" />
    <glyph glyph-name="amacron" unicode="&#x101;" horiz-adv-x="512" 
d="M391 566h-283q-6 17 -6 43q0 28 6 45h283q5 -23 5 -44t-5 -44zM242 487q100 0 158.5 -48t58.5 -148v-259q-97 -47 -219 -47q-103 0 -156 40.5t-53 113.5q0 72 55.5 111.5t144.5 38.5q67 0 117 -18v27q0 43 -29 67t-85 24q-75 0 -132 -42q-44 22 -52 73q26 25 78 46
t114 21zM146 144q0 -33 26.5 -52.5t77.5 -19.5q50 0 98 15v102q-45 19 -108 19q-94 0 -94 -64z" />
    <glyph glyph-name="Abreve" unicode="&#x102;" horiz-adv-x="613" 
d="M308 686q-72 0 -113.5 40t-41.5 96q32 13 73 8q15 -60 84 -60q31 0 53.5 15.5t26.5 44.5q41 5 71 -8q0 -54 -41.5 -95t-111.5 -41zM364 642l241 -635q-30 -11 -71 -11q-28 0 -47 4l-57 154h-252l-55 -154q-23 -4 -51 -4q-38 0 -63 11l239 635q23 6 59 6q34 0 57 -6z
M213 250h182l-74 200l-18 59l-18 -59z" />
    <glyph glyph-name="abreve" unicode="&#x103;" horiz-adv-x="512" 
d="M250 529q-76 0 -116.5 44.5t-40.5 104.5q33 14 76 9q14 -77 83 -77q35 0 55 20.5t24 56.5q46 5 75 -9q0 -59 -40.5 -104t-115.5 -45zM242 487q100 0 158.5 -48t58.5 -148v-259q-97 -47 -219 -47q-103 0 -156 40.5t-53 113.5q0 72 55.5 111.5t144.5 38.5q67 0 117 -18v27
q0 43 -29 67t-85 24q-75 0 -132 -42q-44 22 -52 73q26 25 78 46t114 21zM146 144q0 -33 26.5 -52.5t77.5 -19.5q50 0 98 15v102q-45 19 -108 19q-94 0 -94 -64z" />
    <glyph glyph-name="Aogonek" unicode="&#x104;" horiz-adv-x="613" 
d="M615 -96q37 -25 37 -65q-43 -41 -115 -41q-42 0 -70.5 23.5t-28.5 63.5q0 59 64 113q-5 0 -15 2l-57 154h-252l-55 -154q-23 -4 -51 -4q-38 0 -63 11l239 635q23 6 59 6q34 0 57 -6l241 -635q-75 -43 -75 -89q0 -34 34 -34q26 0 51 20zM213 250h182l-74 200l-18 59
l-18 -59z" />
    <glyph glyph-name="aogonek" unicode="&#x105;" horiz-adv-x="512" 
d="M460 -94q37 -25 37 -65q-43 -41 -115 -41q-42 0 -70.5 23.5t-28.5 61.5q0 55 54 109q-47 -9 -97 -9q-103 0 -156 40.5t-53 113.5q0 72 55.5 111.5t144.5 38.5q67 0 117 -18v27q0 43 -29 67t-85 24q-75 0 -132 -42q-44 22 -52 73q26 25 78 46t114 21q100 0 158.5 -48
t58.5 -148v-259q-36 -28 -60 -59t-24 -54q0 -33 35 -33q22 0 50 20zM146 144q0 -33 26.5 -52.5t77.5 -19.5q50 0 98 15v102q-45 19 -108 19q-94 0 -94 -64z" />
    <glyph glyph-name="Cacute" unicode="&#x106;" horiz-adv-x="595" 
d="M260 676q-20 17 -23 46l183 127q49 -33 51 -98zM364 -17q-146 0 -235 94t-89 244q0 148 94 244t236 96q119 0 197 -60q-5 -26 -22 -51.5t-40 -37.5q-61 42 -133 42q-93 0 -151.5 -63t-58.5 -170q0 -105 58 -168t147 -63q90 0 148 48q49 -28 60 -89q-78 -66 -211 -66z" />
    <glyph glyph-name="cacute" unicode="&#x107;" horiz-adv-x="479" 
d="M198 517q-25 17 -32 46l157 147q48 -26 65 -90zM289 -15q-115 0 -183.5 66.5t-68.5 183.5q0 113 71 183t180 70q49 0 92.5 -16t67.5 -38q-13 -52 -61 -81q-44 37 -98 37q-66 0 -101.5 -44t-35.5 -110q0 -65 35 -109t103 -44q58 0 105 40q45 -23 60 -77q-63 -61 -166 -61z
" />
    <glyph glyph-name="Cdotaccent" unicode="&#x10a;" horiz-adv-x="595" 
d="M353 692q-30 0 -51 20.5t-21 50.5t21 50.5t51 20.5q29 0 50 -20.5t21 -50.5t-21 -50.5t-50 -20.5zM364 -17q-146 0 -235 94t-89 244q0 148 94 244t236 96q119 0 197 -60q-5 -26 -22 -51.5t-40 -37.5q-61 42 -133 42q-93 0 -151.5 -63t-58.5 -170q0 -105 58 -168t147 -63
q90 0 148 48q49 -28 60 -89q-78 -66 -211 -66z" />
    <glyph glyph-name="cdotaccent" unicode="&#x10b;" horiz-adv-x="479" 
d="M276 544q-31 0 -52.5 21t-21.5 51t21.5 51t52.5 21q29 0 50.5 -21t21.5 -51t-21.5 -51t-50.5 -21zM289 -15q-115 0 -183.5 66.5t-68.5 183.5q0 113 71 183t180 70q49 0 92.5 -16t67.5 -38q-13 -52 -61 -81q-44 37 -98 37q-66 0 -101.5 -44t-35.5 -110q0 -65 35 -109
t103 -44q58 0 105 40q45 -23 60 -77q-63 -61 -166 -61z" />
    <glyph glyph-name="Ccaron" unicode="&#x10c;" horiz-adv-x="595" 
d="M319 692l-116 93q7 35 36 54l118 -68l111 68q29 -16 35 -52l-115 -95q-34 -9 -69 0zM364 -17q-146 0 -235 94t-89 244q0 148 94 244t236 96q119 0 197 -60q-5 -26 -22 -51.5t-40 -37.5q-61 42 -133 42q-93 0 -151.5 -63t-58.5 -170q0 -105 58 -168t147 -63q90 0 148 48
q49 -28 60 -89q-78 -66 -211 -66z" />
    <glyph glyph-name="ccaron" unicode="&#x10d;" horiz-adv-x="479" 
d="M238 531l-109 114q9 40 47 55l99 -79l101 79q35 -13 47 -51l-116 -118q-35 -7 -69 0zM289 -15q-115 0 -183.5 66.5t-68.5 183.5q0 113 71 183t180 70q49 0 92.5 -16t67.5 -38q-13 -52 -61 -81q-44 37 -98 37q-66 0 -101.5 -44t-35.5 -110q0 -65 35 -109t103 -44
q58 0 105 40q45 -23 60 -77q-63 -61 -166 -61z" />
    <glyph glyph-name="Dcaron" unicode="&#x10e;" horiz-adv-x="673" 
d="M342 692q-34 -9 -69 0l-116 93q7 35 36 54l118 -68l111 68q29 -16 35 -52zM266 653q175 0 270.5 -88.5t95.5 -237.5q0 -153 -98 -245t-262 -92q-114 0 -194 12v637q88 14 188 14zM278 94q111 0 171 62.5t60 167.5q0 103 -61 163t-179 60q-48 0 -77 -3v-447q39 -3 86 -3z
" />
    <glyph glyph-name="dcaron" unicode="&#x10f;" horiz-adv-x="571" 
d="M659 711q5 -20 5 -43q0 -45 -19 -87.5t-49 -69.5q-29 2 -42 24q20 42 20 107q0 39 -12 68q18 11 51 11q29 0 46 -10zM391 657q23 5 56 5t57 -5v-625q-89 -47 -205 -47q-119 0 -190.5 65t-71.5 183q0 114 74 183.5t184 69.5q57 0 96 -15v186zM297 84q49 -1 94 15v266
q-33 21 -92 21q-64 0 -105.5 -41.5t-41.5 -109.5q0 -69 40 -110t105 -41z" />
    <glyph glyph-name="Dcroat" unicode="&#x110;" horiz-adv-x="673" 
d="M266 653q175 0 270.5 -88.5t95.5 -237.5q0 -153 -98 -245t-262 -92q-114 0 -194 12v276h-74q-7 23 -7 42q0 20 7 44h74v275q88 14 188 14zM278 94q111 0 171 62.5t60 167.5q0 103 -61 163t-179 60q-48 0 -77 -3v-180h105q6 -26 6 -43q0 -13 -6 -43h-105v-181q39 -3 86 -3
z" />
    <glyph glyph-name="dcroat" unicode="&#x111;" horiz-adv-x="567" 
d="M589 576q0 -20 -6 -38h-79v-506q-89 -47 -205 -47q-119 0 -190.5 65t-71.5 183q0 114 74 183.5t184 69.5q57 0 96 -15v67h-82q-6 16 -6 37q0 19 6 39h82v43q23 5 56 5t57 -5v-43h79q6 -18 6 -38zM297 84q49 -1 94 15v266q-33 21 -92 21q-64 0 -105.5 -41.5t-41.5 -109.5
q0 -69 40 -110t105 -41z" />
    <glyph glyph-name="Emacron" unicode="&#x112;" horiz-adv-x="546" 
d="M438 718h-289q-6 26 -6 41q0 14 6 42h289q6 -19 6 -42q0 -21 -6 -41zM499 102q7 -22 7 -49q0 -29 -7 -53h-420v642h411q6 -24 6 -52q0 -26 -6 -51h-298v-159h265q6 -26 6 -51q0 -24 -6 -51h-265v-176h307z" />
    <glyph glyph-name="emacron" unicode="&#x113;" horiz-adv-x="529" 
d="M412 566h-283q-6 17 -6 43q0 28 6 45h283q5 -23 5 -44t-5 -44zM492 273q0 -32 -4 -67h-335q7 -59 42 -92.5t94 -33.5q71 0 140 49q42 -27 49 -77q-84 -67 -197 -67q-108 0 -176 67.5t-68 181.5q0 110 68 181.5t170 71.5q96 0 156.5 -59.5t60.5 -154.5zM154 281h227
q0 47 -26 80t-80 34q-51 0 -83 -31.5t-38 -82.5z" />
    <glyph glyph-name="Edotaccent" unicode="&#x116;" horiz-adv-x="546" 
d="M295 692q-30 0 -51 20.5t-21 50.5t21 50.5t51 20.5q29 0 50 -20.5t21 -50.5t-21 -50.5t-50 -20.5zM499 102q7 -22 7 -49q0 -29 -7 -53h-420v642h411q6 -24 6 -52q0 -26 -6 -51h-298v-159h265q6 -26 6 -51q0 -24 -6 -51h-265v-176h307z" />
    <glyph glyph-name="edotaccent" unicode="&#x117;" horiz-adv-x="529" 
d="M271 544q-31 0 -52.5 21t-21.5 51t21.5 51t52.5 21q29 0 50.5 -21t21.5 -51t-21.5 -51t-50.5 -21zM492 273q0 -32 -4 -67h-335q7 -59 42 -92.5t94 -33.5q71 0 140 49q42 -27 49 -77q-84 -67 -197 -67q-108 0 -176 67.5t-68 181.5q0 110 68 181.5t170 71.5
q96 0 156.5 -59.5t60.5 -154.5zM154 281h227q0 47 -26 80t-80 34q-51 0 -83 -31.5t-38 -82.5z" />
    <glyph glyph-name="Eogonek" unicode="&#x118;" horiz-adv-x="546" 
d="M520 -96q37 -23 37 -64q-41 -41 -108 -41q-46 0 -76 23t-30 63q0 70 69 115h-333v642h411q6 -24 6 -52q0 -26 -6 -51h-298v-159h265q6 -26 6 -51q0 -24 -6 -51h-265v-176h307q7 -22 7 -49q0 -29 -7 -53q-64 -48 -64 -82q0 -17 10 -25t24 -8q27 0 51 19z" />
    <glyph glyph-name="eogonek" unicode="&#x119;" horiz-adv-x="529" 
d="M492 273q0 -32 -4 -67h-335q7 -59 42 -92.5t94 -33.5q71 0 140 49q42 -27 49 -77q-13 -11 -29 -20q-83 -66 -83 -113q0 -33 35 -33q23 0 50 20q37 -25 37 -65q-43 -41 -115 -41q-42 0 -70.5 23.5t-28.5 61.5q0 50 48 102q-26 -2 -41 -2q-108 0 -176 67.5t-68 181.5
q0 110 68 181.5t170 71.5q96 0 156.5 -59.5t60.5 -154.5zM154 281h227q0 47 -26 80t-80 34q-51 0 -83 -31.5t-38 -82.5z" />
    <glyph glyph-name="Ecaron" unicode="&#x11a;" horiz-adv-x="546" 
d="M330 692q-34 -9 -69 0l-116 93q7 35 36 54l118 -68l111 68q29 -16 35 -52zM499 102q7 -22 7 -49q0 -29 -7 -53h-420v642h411q6 -24 6 -52q0 -26 -6 -51h-298v-159h265q6 -26 6 -51q0 -24 -6 -51h-265v-176h307z" />
    <glyph glyph-name="ecaron" unicode="&#x11b;" horiz-adv-x="529" 
d="M302 531q-34 -7 -69 0l-109 114q9 40 47 55l99 -79l101 79q35 -13 47 -51zM492 273q0 -32 -4 -67h-335q7 -59 42 -92.5t94 -33.5q71 0 140 49q42 -27 49 -77q-84 -67 -197 -67q-108 0 -176 67.5t-68 181.5q0 110 68 181.5t170 71.5q96 0 156.5 -59.5t60.5 -154.5z
M154 281h227q0 47 -26 80t-80 34q-51 0 -83 -31.5t-38 -82.5z" />
    <glyph glyph-name="Gbreve" unicode="&#x11e;" horiz-adv-x="652" 
d="M356 686q-72 0 -113.5 40t-41.5 96q32 13 73 8q15 -60 84 -60q31 0 53.5 15.5t26.5 44.5q41 5 71 -8q0 -54 -41.5 -95t-111.5 -41zM366 352h233v-319q-96 -50 -224 -50q-149 0 -241.5 91t-92.5 245t95 248t239 94q131 0 211 -56q-10 -66 -59 -95q-64 43 -153 43
q-92 0 -151.5 -62t-59.5 -171q0 -107 54 -169t159 -62q64 0 111 15v142h-121q-6 29 -6 54t6 52z" />
    <glyph glyph-name="gbreve" unicode="&#x11f;" horiz-adv-x="560" 
d="M289 529q-76 0 -116.5 44.5t-40.5 104.5q33 14 76 9q14 -77 83 -77q35 0 55 20.5t24 56.5q46 5 75 -9q0 -59 -40.5 -104t-115.5 -45zM295 488q117 0 203 -65v-403q0 -101 -66 -160t-171 -59q-143 0 -220 85q6 23 23 44t43 30q56 -65 150 -65q64 0 95.5 30.5t31.5 81.5v22
q-44 -19 -98 -19q-107 0 -178.5 62.5t-71.5 169.5q0 110 74 178t185 68zM296 104q49 0 88 22v242q-39 21 -88 21q-63 0 -104 -40t-41 -105q0 -64 40.5 -102t104.5 -38z" />
    <glyph glyph-name="Gdotaccent" unicode="&#x120;" horiz-adv-x="652" 
d="M355 692q-30 0 -51 20.5t-21 50.5t21 50.5t51 20.5q29 0 50 -20.5t21 -50.5t-21 -50.5t-50 -20.5zM366 352h233v-319q-96 -50 -224 -50q-149 0 -241.5 91t-92.5 245t95 248t239 94q131 0 211 -56q-10 -66 -59 -95q-64 43 -153 43q-92 0 -151.5 -62t-59.5 -171
q0 -107 54 -169t159 -62q64 0 111 15v142h-121q-6 29 -6 54t6 52z" />
    <glyph glyph-name="gdotaccent" unicode="&#x121;" horiz-adv-x="560" 
d="M288 544q-31 0 -52.5 21t-21.5 51t21.5 51t52.5 21q29 0 50.5 -21t21.5 -51t-21.5 -51t-50.5 -21zM295 488q117 0 203 -65v-403q0 -101 -66 -160t-171 -59q-143 0 -220 85q6 23 23 44t43 30q56 -65 150 -65q64 0 95.5 30.5t31.5 81.5v22q-44 -19 -98 -19
q-107 0 -178.5 62.5t-71.5 169.5q0 110 74 178t185 68zM296 104q49 0 88 22v242q-39 21 -88 21q-63 0 -104 -40t-41 -105q0 -64 40.5 -102t104.5 -38z" />
    <glyph glyph-name="Gcommaaccent" unicode="&#x122;" horiz-adv-x="652" 
d="M366 352h233v-319q-96 -50 -224 -50q-149 0 -241.5 91t-92.5 245t95 248t239 94q131 0 211 -56q-10 -66 -59 -95q-64 43 -153 43q-92 0 -151.5 -62t-59.5 -171q0 -107 54 -169t159 -62q64 0 111 15v142h-121q-6 29 -6 54t6 52zM366 -37q27 0 46 -9q3 -20 3 -37
q0 -43 -21 -81t-59 -61q-28 4 -40 30q28 36 28 91q0 29 -10 57q22 10 53 10z" />
    <glyph glyph-name="gcommaaccent" unicode="&#x123;" horiz-adv-x="560" 
d="M282 508q-26 0 -46 9q-3 19 -3 37q0 43 21 81t59 61q28 -4 40 -30q-28 -36 -28 -91q0 -29 10 -57q-22 -10 -53 -10zM295 488q117 0 203 -65v-403q0 -101 -66 -160t-171 -59q-143 0 -220 85q6 23 23 44t43 30q56 -65 150 -65q64 0 95.5 30.5t31.5 81.5v22q-44 -19 -98 -19
q-107 0 -178.5 62.5t-71.5 169.5q0 110 74 178t185 68zM296 104q49 0 88 22v242q-39 21 -88 21q-63 0 -104 -40t-41 -105q0 -64 40.5 -102t104.5 -38z" />
    <glyph glyph-name="Hbar" unicode="&#x126;" horiz-adv-x="688" 
d="M684 490q0 -20 -6 -39h-69v-451q-27 -6 -54 -6q-29 0 -60 6v274h-303v-274q-28 -6 -57 -6q-26 0 -56 6v451h-65q-7 17 -7 38q0 22 7 39h65v113q22 6 54 6q36 0 59 -6v-113h303v113q30 6 57 6q28 0 57 -6v-113h69q6 -16 6 -38zM495 378v73h-303v-73h303z" />
    <glyph glyph-name="hbar" unicode="&#x127;" horiz-adv-x="570" 
d="M301 488q101 0 155.5 -54.5t54.5 -136.5v-297q-24 -5 -58 -5q-32 0 -56 5v263q0 120 -114 120q-53 0 -104 -28v-355q-23 -5 -56 -5t-58 5v539h-59q-6 17 -6 37t6 39h59v41q24 5 57 5t57 -5v-41h101q6 -18 6 -38t-6 -38h-101v-79q59 28 122 28z" />
    <glyph glyph-name="Itilde" unicode="&#x128;" horiz-adv-x="271" 
d="M190 693q-24 0 -58 16t-44 16q-30 0 -37 -31q-50 -5 -76 27q8 45 37 71.5t66 26.5q23 0 59.5 -16.5t44.5 -16.5q27 0 33 31q50 7 76 -26q-9 -46 -36.5 -72t-64.5 -26zM137 -6q-28 0 -58 6v641q27 7 56 7q30 0 57 -7v-641q-27 -6 -55 -6z" />
    <glyph glyph-name="itilde" unicode="&#x129;" horiz-adv-x="245" 
d="M170 561q-22 0 -52 12.5t-40 12.5q-25 0 -38 -33q-47 -4 -76 30q11 42 39.5 67t62.5 25q20 0 49.5 -12t42.5 -12q24 0 37 30q49 3 75 -30q-11 -42 -38 -66t-62 -24zM123 -5q-33 0 -57 5v473q24 5 57 5t56 -5v-473q-23 -5 -56 -5z" />
    <glyph glyph-name="Imacron" unicode="&#x12a;" horiz-adv-x="271" 
d="M23 715q-6 21 -6 44t6 45h225q5 -18 5 -45q0 -25 -5 -44h-225zM137 -6q-28 0 -58 6v641q27 7 56 7q30 0 57 -7v-641q-27 -6 -55 -6z" />
    <glyph glyph-name="imacron" unicode="&#x12b;" horiz-adv-x="245" 
d="M20 567q-5 17 -5 43q0 28 5 45h207q4 -28 4 -44t-4 -44h-207zM123 -5q-33 0 -57 5v473q24 5 57 5t56 -5v-473q-23 -5 -56 -5z" />
    <glyph glyph-name="Iogonek" unicode="&#x12e;" horiz-adv-x="271" 
d="M210 -96q38 -25 38 -65q-43 -41 -116 -41q-42 0 -70 23.5t-28 63.5q0 60 62 112l-17 3v641q27 7 56 7q30 0 57 -7v-641q-66 -41 -66 -82q0 -34 33 -34q26 0 51 20z" />
    <glyph glyph-name="iogonek" unicode="&#x12f;" horiz-adv-x="245" 
d="M122 545q-30 0 -51.5 21t-21.5 51q0 31 21 52t52 21q30 0 51 -21t21 -52q0 -30 -21 -51t-51 -21zM195 -100q37 -23 37 -64q-41 -41 -115 -41q-44 0 -72.5 23.5t-28.5 63.5q0 61 71 115l-21 3v473q24 5 57 5t56 -5v-473l-4 -1q-65 -45 -65 -84q0 -34 35 -34q26 0 50 19z
" />
    <glyph glyph-name="Idotaccent" unicode="&#x130;" horiz-adv-x="271" 
d="M137 692q-30 0 -51 20.5t-21 50.5t21 50.5t51 20.5q29 0 50 -20.5t21 -50.5t-21 -50.5t-50 -20.5zM137 -6q-28 0 -58 6v641q27 7 56 7q30 0 57 -7v-641q-27 -6 -55 -6z" />
    <glyph glyph-name="dotlessi" unicode="&#x131;" horiz-adv-x="245" 
d="M123 -5q-33 0 -57 5v473q24 5 57 5t56 -5v-473q-23 -5 -56 -5z" />
    <glyph glyph-name="IJ" unicode="&#x132;" horiz-adv-x="547" 
d="M130 162q-33 0 -59 5v474q23 6 57 6t58 -6v-474q-23 -5 -56 -5zM282 -25q-47 0 -84.5 17.5t-57.5 39.5q9 60 61 88q35 -39 78 -39q82 0 82 88v472q20 6 55 6q34 0 58 -6v-471q0 -93 -52 -144t-140 -51z" />
    <glyph glyph-name="ij" unicode="&#x133;" horiz-adv-x="489" 
d="M123 545q-31 0 -52.5 21t-21.5 51t21.5 51t52.5 21q29 0 50.5 -21t21.5 -51t-21.5 -51t-50.5 -21zM366 544q-31 0 -52.5 21t-21.5 51t21.5 51t52.5 21q29 0 50.5 -21t21.5 -51t-21.5 -51t-50.5 -21zM123 -5q-33 0 -57 5v473q24 5 57 5t56 -5v-473q-23 -5 -56 -5z
M252 -198q-82 0 -124 40q3 22 18 44.5t35 33.5q33 -22 59 -22q70 0 70 83v491q22 5 55 5q34 0 58 -5v-488q0 -87 -50 -134.5t-121 -47.5z" />
    <glyph glyph-name="Kcommaaccent" unicode="&#x136;" horiz-adv-x="612" 
d="M339 346l280 -340q-37 -8 -88 -8q-30 0 -58 2l-222 272l-59 -44v-228q-27 -6 -57 -6q-26 0 -56 6v641q27 6 55 6q29 0 58 -6v-285q86 66 142.5 129t119.5 159q27 3 57 3q40 0 75 -6q-108 -171 -247 -295zM318 -37q26 0 46 -9q3 -20 3 -37q0 -43 -21 -81t-59 -61
q-28 4 -40 30q28 36 28 91q0 29 -10 57q22 10 53 10z" />
    <glyph glyph-name="kcommaaccent" unicode="&#x137;" horiz-adv-x="513" 
d="M306 242l209 -239q-38 -9 -82 -9q-31 0 -57 3l-159 181q-26 -16 -39 -23v-155q-22 -5 -56 -5q-32 0 -57 5v656q24 5 56 5q33 0 57 -5v-382q119 76 185 197q20 3 57 3q40 0 69 -7q-75 -133 -183 -225zM248 -37q26 0 46 -9q3 -20 3 -37q0 -43 -21 -81t-59 -61q-28 4 -40 30
q28 36 28 91q0 29 -10 57q22 10 53 10z" />
    <glyph glyph-name="kgreenlandic" unicode="&#x138;" horiz-adv-x="517" 
d="M304 247l216 -244q-40 -9 -85 -9q-36 0 -57 3l-165 184l-37 -22v-159q-22 -5 -56 -5q-31 0 -56 5v470q23 5 55 5q33 0 57 -5v-192q117 74 187 193q16 3 55 3q41 0 72 -7q-77 -129 -186 -220z" />
    <glyph glyph-name="Lacute" unicode="&#x139;" horiz-adv-x="493" 
d="M227 849q49 -33 51 -98l-211 -75q-20 17 -23 46zM472 102q6 -26 6 -50q0 -25 -6 -52h-393v642q29 6 56 6q29 0 57 -6v-540h280z" />
    <glyph glyph-name="lacute" unicode="&#x13a;" horiz-adv-x="246" 
d="M34 676q-20 17 -23 46l183 127q49 -33 51 -98zM123 -5q-32 0 -57 5v656q23 5 56 5q34 0 58 -5v-656q-22 -5 -57 -5z" />
    <glyph glyph-name="Lcommaaccent" unicode="&#x13b;" horiz-adv-x="493" 
d="M472 102q6 -26 6 -50q0 -25 -6 -52h-393v642q29 6 56 6q29 0 57 -6v-540h280zM284 -37q26 0 46 -9q3 -20 3 -37q0 -43 -21 -81t-59 -61q-28 4 -40 30q28 36 28 91q0 29 -10 57q22 10 53 10z" />
    <glyph glyph-name="lcommaaccent" unicode="&#x13c;" horiz-adv-x="246" 
d="M123 -5q-32 0 -57 5v656q23 5 56 5q34 0 58 -5v-656q-22 -5 -57 -5zM94 -225q-28 4 -40 30q28 36 28 91q0 29 -10 57q22 10 53 10q27 0 46 -9q3 -19 3 -37q0 -43 -21 -81t-59 -61z" />
    <glyph glyph-name="Lcaron" unicode="&#x13d;" horiz-adv-x="493" 
d="M357 511q-28 4 -42 24q20 44 20 107q0 40 -12 69q20 11 51 11q29 0 46 -10q5 -20 5 -43q0 -45 -19 -88.5t-49 -69.5zM472 102q6 -26 6 -50q0 -25 -6 -52h-393v642q29 6 56 6q29 0 57 -6v-540h280z" />
    <glyph glyph-name="lcaron" unicode="&#x13e;" horiz-adv-x="250" 
d="M270 511q-28 4 -42 24q20 44 20 107q0 40 -12 69q20 11 51 11q29 0 46 -10q6 -24 6 -43q0 -45 -19 -88.5t-50 -69.5zM123 -5q-32 0 -57 5v656q23 5 56 5q34 0 58 -5v-656q-22 -5 -57 -5z" />
    <glyph glyph-name="Ldot" unicode="&#x13f;" horiz-adv-x="496" 
d="M472 102q6 -26 6 -50q0 -25 -6 -52h-393v642q29 6 56 6q29 0 57 -6v-540h280zM372 277q-28 0 -48.5 20.5t-20.5 48.5t20.5 48.5t48.5 20.5t48.5 -20.5t20.5 -48.5t-20.5 -48.5t-48.5 -20.5z" />
    <glyph glyph-name="ldot" unicode="&#x140;" horiz-adv-x="324" 
d="M123 -5q-32 0 -57 5v656q23 5 56 5q34 0 58 -5v-656q-22 -5 -57 -5zM283 258q-28 0 -48 20.5t-20 48.5t20 48.5t48 20.5q29 0 49.5 -20t20.5 -49t-20.5 -49t-49.5 -20z" />
    <glyph glyph-name="Lslash" unicode="&#x141;" horiz-adv-x="493" 
d="M472 102q6 -26 6 -50q0 -25 -6 -52h-393v245l-51 -26q-13 10 -23.5 32t-12.5 40l87 45v306q29 6 56 6q29 0 57 -6v-247l63 33q32 -32 35 -73l-98 -51v-202h280z" />
    <glyph glyph-name="lslash" unicode="&#x142;" horiz-adv-x="246" 
d="M264 362l-84 -43v-319q-22 -5 -57 -5q-32 0 -57 5v260l-52 -27q-31 24 -34 68l86 45v310q23 5 56 5q34 0 58 -5v-251l51 26q28 -28 33 -69z" />
    <glyph glyph-name="Nacute" unicode="&#x143;" horiz-adv-x="687" 
d="M254 676q-20 17 -23 46l183 127q49 -33 51 -98zM552 647q28 0 56 -6v-636q-45 -11 -105 -9l-297 426l-18 34l2 -40v-416q-30 -6 -56 -6q-24 0 -55 6v635q51 19 106 10l296 -426l18 -32l-2 45v409q32 6 55 6z" />
    <glyph glyph-name="nacute" unicode="&#x144;" horiz-adv-x="568" 
d="M203 517q-25 17 -32 46l157 147q48 -26 65 -90zM289 488q109 0 164.5 -55t55.5 -142v-291q-24 -5 -57 -5q-32 0 -57 5v264q0 120 -115 120q-61 0 -105 -26v-358q-23 -5 -57 -5q-32 0 -56 5v413q36 30 96.5 52.5t130.5 22.5z" />
    <glyph glyph-name="Ncommaaccent" unicode="&#x145;" horiz-adv-x="687" 
d="M552 647q28 0 56 -6v-636q-45 -11 -105 -9l-297 426l-18 34l2 -40v-416q-30 -6 -56 -6q-24 0 -55 6v635q51 19 106 10l296 -426l18 -32l-2 45v409q32 6 55 6zM352 -37q26 0 46 -9q3 -20 3 -37q0 -43 -21 -81t-59 -61q-28 4 -40 30q28 36 28 91q0 29 -10 57q22 10 53 10z
" />
    <glyph glyph-name="ncommaaccent" unicode="&#x146;" horiz-adv-x="568" 
d="M289 488q109 0 164.5 -55t55.5 -142v-291q-24 -5 -57 -5q-32 0 -57 5v264q0 120 -115 120q-61 0 -105 -26v-358q-23 -5 -57 -5q-32 0 -56 5v413q36 30 96.5 52.5t130.5 22.5zM288 -37q27 0 46 -9q3 -20 3 -37q0 -43 -21 -81t-59 -61q-28 4 -40 30q28 36 28 91
q0 29 -10 57q22 10 53 10z" />
    <glyph glyph-name="Ncaron" unicode="&#x147;" horiz-adv-x="687" 
d="M382 692q-34 -9 -69 0l-116 93q7 35 36 54l118 -68l111 68q29 -16 35 -52zM552 647q28 0 56 -6v-636q-45 -11 -105 -9l-297 426l-18 34l2 -40v-416q-30 -6 -56 -6q-24 0 -55 6v635q51 19 106 10l296 -426l18 -32l-2 45v409q32 6 55 6z" />
    <glyph glyph-name="ncaron" unicode="&#x148;" horiz-adv-x="568" 
d="M312 531q-34 -7 -69 0l-109 114q9 40 47 55l99 -79l101 79q35 -13 47 -51zM289 488q109 0 164.5 -55t55.5 -142v-291q-24 -5 -57 -5q-32 0 -57 5v264q0 120 -115 120q-61 0 -105 -26v-358q-23 -5 -57 -5q-32 0 -56 5v413q36 30 96.5 52.5t130.5 22.5z" />
    <glyph glyph-name="napostrophe" unicode="&#x149;" horiz-adv-x="587" 
d="M123 679q8 -19 8 -55q0 -53 -27 -100.5t-61 -74.5q-12 1 -24.5 9t-16.5 19q31 40 31 120q0 48 -14 78q25 11 60 11q26 0 44 -7zM289 488q109 0 164.5 -55t55.5 -142v-291q-24 -5 -57 -5q-32 0 -57 5v264q0 120 -115 120q-61 0 -105 -26v-358q-23 -5 -57 -5q-32 0 -56 5
v413q36 30 96.5 52.5t130.5 22.5z" />
    <glyph glyph-name="Eng" unicode="&#x14a;" horiz-adv-x="687" 
d="M552 647q28 0 56 -6v-654q0 -93 -53 -143.5t-139 -50.5q-48 0 -85 17t-58 40q5 28 21.5 50.5t39.5 33.5q39 -39 78 -39q84 0 84 91v20l-290 416l-18 34l2 -40v-416q-30 -6 -56 -6q-24 0 -55 6v635q51 19 106 10l296 -426l18 -32l-2 45v409q32 6 55 6z" />
    <glyph glyph-name="eng" unicode="&#x14b;" horiz-adv-x="568" 
d="M289 488q109 0 164 -55t55 -142v-317q0 -85 -52 -132t-127 -47q-77 0 -123 43q12 54 53 77q29 -26 63 -26q73 0 73 91v284q0 119 -118 119q-55 0 -102 -30v-353q-24 -5 -57 -5q-32 0 -56 5v409q36 32 96 55.5t131 23.5z" />
    <glyph glyph-name="Omacron" unicode="&#x14c;" horiz-adv-x="736" 
d="M226 718q-6 26 -6 41q0 14 6 42h289q6 -19 6 -42q0 -21 -6 -41h-289zM368 -16q-143 0 -235.5 95t-92.5 243q0 147 92.5 243t235.5 96q144 0 236 -94.5t92 -244.5q0 -145 -92.5 -241.5t-235.5 -96.5zM368 90q93 0 149.5 64.5t56.5 167.5q0 105 -56 169t-150 64t-150 -64
t-56 -169q0 -103 56.5 -167.5t149.5 -64.5z" />
    <glyph glyph-name="omacron" unicode="&#x14d;" horiz-adv-x="576" 
d="M147 566q-6 17 -6 43q0 28 6 45h283q5 -23 5 -44t-5 -44h-283zM286 -15q-110 0 -179.5 70t-69.5 181q0 110 71.5 181t181.5 71t179.5 -70.5t69.5 -181.5q0 -109 -71.5 -180t-181.5 -71zM288 84q63 0 100 42t37 110q0 69 -37 111.5t-100 42.5t-100 -42.5t-37 -111.5
q0 -68 37 -110t100 -42z" />
    <glyph glyph-name="Ohungarumlaut" unicode="&#x150;" horiz-adv-x="736" 
d="M254 664q-27 11 -38 36l105 144q56 -11 73 -66zM426 664q-27 11 -38 36l105 144q56 -11 73 -66zM368 -16q-143 0 -235.5 95t-92.5 243q0 147 92.5 243t235.5 96q144 0 236 -94.5t92 -244.5q0 -145 -92.5 -241.5t-235.5 -96.5zM368 90q93 0 149.5 64.5t56.5 167.5
q0 105 -56 169t-150 64t-150 -64t-56 -169q0 -103 56.5 -167.5t149.5 -64.5z" />
    <glyph glyph-name="ohungarumlaut" unicode="&#x151;" horiz-adv-x="576" 
d="M180 519q-30 11 -41 32l88 163q53 -8 79 -58zM338 519q-30 10 -41 33l91 161q52 -10 77 -59zM286 -15q-110 0 -179.5 70t-69.5 181q0 110 71.5 181t181.5 71t179.5 -70.5t69.5 -181.5q0 -109 -71.5 -180t-181.5 -71zM288 84q63 0 100 42t37 110q0 69 -37 111.5t-100 42.5
t-100 -42.5t-37 -111.5q0 -68 37 -110t100 -42z" />
    <glyph glyph-name="OE" unicode="&#x152;" horiz-adv-x="890" 
d="M850 53q0 -26 -6 -53h-376q-55 -10 -99 -10q-146 0 -237 90.5t-91 240.5q0 143 93 236t238 93q57 0 101 -8h361q6 -25 6 -52q0 -25 -6 -52h-270v-157h237q6 -27 6 -52q0 -27 -6 -52h-237v-173h280q6 -26 6 -51zM164 321q0 -100 56 -162t152 -62q39 0 77 8v429
q-32 7 -77 7q-94 0 -151 -61t-57 -159z" />
    <glyph glyph-name="oe" unicode="&#x153;" horiz-adv-x="891" 
d="M853 273q0 -31 -3 -70h-321q6 -58 40 -90t92 -32q64 0 134 49q37 -25 47 -81q-81 -64 -191 -64q-123 0 -185 88q-69 -88 -186 -88q-107 0 -175 69.5t-68 181.5q0 108 69.5 180t173.5 72q121 0 190 -91q64 90 170 90q95 0 154 -59.5t59 -154.5zM529 283h215q0 45 -26 78
t-79 33q-45 0 -74 -32t-36 -79zM280 83q61 0 97.5 42t36.5 111q0 68 -37 110.5t-97 42.5q-58 0 -94 -42.5t-36 -110.5t36 -110.5t94 -42.5z" />
    <glyph glyph-name="Racute" unicode="&#x154;" horiz-adv-x="594" 
d="M190 676q-20 17 -23 46l183 127q49 -33 51 -98zM413 261l157 -255q-36 -10 -90 -10q-26 0 -36 2l-143 238h-15q-62 0 -94 2v-238q-29 -6 -57 -6q-27 0 -57 6v632q95 21 205 21q129 0 192 -52.5t63 -146.5q0 -137 -125 -193zM192 335q33 -2 97 -2q68 0 101 31.5t33 83.5
q0 107 -135 107q-44 0 -96 -5v-215z" />
    <glyph glyph-name="racute" unicode="&#x155;" horiz-adv-x="375" 
d="M146 517q-25 17 -32 46l157 147q48 -26 65 -90zM262 487q64 0 105 -15q0 -59 -30 -98q-35 9 -72 9q-56 0 -89 -19v-364q-22 -5 -57 -5q-33 0 -57 5v419q31 28 84 48t116 20z" />
    <glyph glyph-name="Rcommaaccent" unicode="&#x156;" horiz-adv-x="594" 
d="M413 261l157 -255q-36 -10 -90 -10q-26 0 -36 2l-143 238h-15q-62 0 -94 2v-238q-29 -6 -57 -6q-27 0 -57 6v632q95 21 205 21q129 0 192 -52.5t63 -146.5q0 -137 -125 -193zM192 335q33 -2 97 -2q68 0 101 31.5t33 83.5q0 107 -135 107q-44 0 -96 -5v-215zM305 -37
q27 0 46 -9q3 -20 3 -37q0 -43 -21 -81t-59 -61q-28 4 -40 30q28 36 28 91q0 29 -10 57q22 10 53 10z" />
    <glyph glyph-name="rcommaaccent" unicode="&#x157;" horiz-adv-x="375" 
d="M262 487q64 0 105 -15q0 -59 -30 -98q-35 9 -72 9q-56 0 -89 -19v-364q-22 -5 -57 -5q-33 0 -57 5v419q31 28 84 48t116 20zM122 -37q26 0 46 -9q3 -19 3 -37q0 -43 -21 -81t-59 -61q-28 4 -40 30q28 36 28 91q0 29 -10 57q22 10 53 10z" />
    <glyph glyph-name="Rcaron" unicode="&#x158;" horiz-adv-x="594" 
d="M318 692q-34 -9 -69 0l-116 93q7 35 36 54l118 -68l111 68q29 -16 35 -52zM413 261l157 -255q-36 -10 -90 -10q-26 0 -36 2l-143 238h-15q-62 0 -94 2v-238q-29 -6 -57 -6q-27 0 -57 6v632q95 21 205 21q129 0 192 -52.5t63 -146.5q0 -137 -125 -193zM192 335
q33 -2 97 -2q68 0 101 31.5t33 83.5q0 107 -135 107q-44 0 -96 -5v-215z" />
    <glyph glyph-name="rcaron" unicode="&#x159;" horiz-adv-x="375" 
d="M255 531q-35 -7 -69 0l-109 114q9 40 47 55l99 -79l101 79q35 -13 47 -51zM62 419q31 28 84 48t116 20q64 0 105 -15q0 -59 -30 -98q-35 9 -72 9q-56 0 -89 -19v-364q-22 -5 -57 -5q-33 0 -57 5v419z" />
    <glyph glyph-name="Sacute" unicode="&#x15a;" horiz-adv-x="540" 
d="M180 676q-20 17 -23 46l183 127q49 -33 51 -98zM263 -16q-147 0 -231 80q10 60 59 89q71 -64 173 -64q62 0 93 23.5t31 63.5q0 35 -28 58.5t-111 43.5q-43 10 -75 23t-61.5 34.5t-45.5 55.5t-16 80q0 84 61.5 135.5t163.5 51.5q132 0 214 -64q-2 -27 -17.5 -53.5
t-37.5 -38.5q-72 52 -163 52q-50 0 -80 -21.5t-30 -53.5q0 -33 25.5 -53t104.5 -39q102 -25 154.5 -70.5t53.5 -128.5q1 -97 -62.5 -150.5t-174.5 -53.5z" />
    <glyph glyph-name="sacute" unicode="&#x15b;" horiz-adv-x="469" 
d="M158 517q-25 17 -32 46l157 147q48 -26 65 -90zM228 -16q-126 0 -196 60q13 54 52 78q65 -47 146 -47q91 0 91 57q0 25 -25 39t-87 24q-75 12 -119.5 44t-44.5 100q0 66 54.5 107t144.5 41q113 0 178 -46q-8 -53 -43 -81q-63 36 -139 36q-86 0 -86 -49q0 -24 21.5 -36.5
t80.5 -22.5q86 -13 132 -46t46 -99q0 -74 -54.5 -116.5t-151.5 -42.5z" />
    <glyph glyph-name="Scedilla" unicode="&#x15e;" horiz-adv-x="540" 
d="M500 188q1 -87 -51.5 -139.5t-145.5 -62.5l-8 -23q76 -15 76 -73q0 -51 -37.5 -72.5t-84.5 -21.5q-54 0 -83 21q2 36 26 59q22 -14 46 -14q39 0 39 29q0 32 -65 34l23 60q-127 7 -203 79q10 60 59 89q71 -64 173 -64q62 0 93 23.5t31 63.5q0 35 -28 58.5t-111 43.5
q-43 10 -75 23t-61.5 34.5t-45.5 55.5t-16 80q0 84 61.5 135.5t163.5 51.5q132 0 214 -64q-2 -27 -17.5 -53.5t-37.5 -38.5q-72 52 -163 52q-50 0 -80 -21.5t-30 -53.5q0 -33 25.5 -53t104.5 -39q102 -25 154.5 -70.5t53.5 -128.5z" />
    <glyph glyph-name="scedilla" unicode="&#x15f;" horiz-adv-x="469" 
d="M434 143q0 -65 -42.5 -106t-119.5 -50l-8 -24q76 -15 76 -73q0 -51 -37.5 -72.5t-84.5 -21.5q-54 0 -83 21q2 36 26 59q22 -14 46 -14q39 0 39 29q0 32 -65 34l23 60q-109 6 -172 59q13 54 52 78q65 -47 146 -47q91 0 91 57q0 25 -25 39t-87 24q-75 12 -119.5 44
t-44.5 100q0 66 54.5 107t144.5 41q113 0 178 -46q-8 -53 -43 -81q-63 36 -139 36q-86 0 -86 -49q0 -24 21.5 -36.5t80.5 -22.5q86 -13 132 -46t46 -99z" />
    <glyph glyph-name="Scaron" unicode="&#x160;" horiz-adv-x="540" 
d="M239 692l-116 93q7 35 36 54l118 -68l111 68q29 -16 35 -52l-115 -95q-34 -9 -69 0zM263 -16q-147 0 -231 80q10 60 59 89q71 -64 173 -64q62 0 93 23.5t31 63.5q0 35 -28 58.5t-111 43.5q-43 10 -75 23t-61.5 34.5t-45.5 55.5t-16 80q0 84 61.5 135.5t163.5 51.5
q132 0 214 -64q-2 -27 -17.5 -53.5t-37.5 -38.5q-72 52 -163 52q-50 0 -80 -21.5t-30 -53.5q0 -33 25.5 -53t104.5 -39q102 -25 154.5 -70.5t53.5 -128.5q1 -97 -62.5 -150.5t-174.5 -53.5z" />
    <glyph glyph-name="scaron" unicode="&#x161;" horiz-adv-x="469" 
d="M198 531l-109 114q9 40 47 55l99 -79l101 79q35 -13 47 -51l-116 -118q-35 -7 -69 0zM228 -16q-126 0 -196 60q13 54 52 78q65 -47 146 -47q91 0 91 57q0 25 -25 39t-87 24q-75 12 -119.5 44t-44.5 100q0 66 54.5 107t144.5 41q113 0 178 -46q-8 -53 -43 -81
q-63 36 -139 36q-86 0 -86 -49q0 -24 21.5 -36.5t80.5 -22.5q86 -13 132 -46t46 -99q0 -74 -54.5 -116.5t-151.5 -42.5z" />
    <glyph glyph-name="uni0162" unicode="&#x162;" horiz-adv-x="543" 
d="M328 -1q-4 0 -12 -1.5l-13 -2.5l-11 -32q76 -15 76 -73q0 -51 -37.5 -72.5t-84.5 -21.5q-54 0 -83 21q2 36 26 59q22 -14 46 -14q39 0 39 29q0 32 -65 34l27 71l-21 3v541h-195q-6 26 -6 51t6 51h502q6 -26 6 -51q0 -24 -6 -51h-194v-541z" />
    <glyph glyph-name="uni0163" unicode="&#x163;" horiz-adv-x="428" 
d="M279 -37q76 -15 76 -73q0 -51 -37.5 -72.5t-84.5 -21.5q-54 0 -83 21q2 36 26 59q22 -14 46 -14q39 0 39 29q0 32 -65 34l26 67q-120 25 -120 154v229h-81q-4 20 -4 47q0 25 4 45h81v126q24 5 57 5t55 -5v-126h177q5 -19 5 -45q0 -27 -5 -47h-177v-203q0 -49 20.5 -68.5
t59.5 -19.5q45 0 79 32q41 -28 48 -79q-57 -48 -134 -51z" />
    <glyph glyph-name="Tcaron" unicode="&#x164;" horiz-adv-x="543" 
d="M307 692q-35 -9 -69 0l-116 93q8 35 36 54l118 -68l111 68q29 -16 35 -52zM528 591q0 -24 -6 -51h-194v-541q-38 -6 -57 -6q-18 0 -56 6v541h-195q-6 26 -6 51t6 51h502q6 -26 6 -51z" />
    <glyph glyph-name="tcaron" unicode="&#x165;" horiz-adv-x="428" 
d="M334 511q-28 4 -42 24q20 44 20 107q0 40 -12 69q20 11 51 11q29 0 46 -10q5 -20 5 -43q0 -45 -19 -88.5t-49 -69.5zM373 116q41 -28 48 -79q-59 -51 -142 -51q-81 0 -129 39t-48 121v229h-81q-4 20 -4 47q0 25 4 45h81v126q24 5 57 5t55 -5v-126h177q5 -19 5 -45
q0 -27 -5 -47h-177v-203q0 -49 20.5 -68.5t59.5 -19.5q45 0 79 32z" />
    <glyph glyph-name="Tbar" unicode="&#x166;" horiz-adv-x="543" 
d="M522 540h-194v-182h93q6 -26 6 -43q0 -13 -6 -43h-93v-273q-38 -6 -57 -6q-18 0 -56 6v273h-94q-7 18 -7 42t7 44h94v182h-195q-6 26 -6 51t6 51h502q6 -26 6 -51q0 -24 -6 -51z" />
    <glyph glyph-name="tbar" unicode="&#x167;" horiz-adv-x="428" 
d="M373 116q41 -28 48 -79q-59 -51 -142 -51q-81 0 -129 39t-48 121v78h-61q-7 15 -7 37q0 21 7 39h61v75h-81q-4 20 -4 47q0 25 4 45h81v126q24 5 57 5t55 -5v-126h177q5 -19 5 -45q0 -27 -5 -47h-177v-75h108q6 -18 6 -38t-6 -38h-108v-52q0 -49 20.5 -68.5t59.5 -19.5
q45 0 79 32z" />
    <glyph glyph-name="Utilde" unicode="&#x168;" horiz-adv-x="672" 
d="M231 688q-21 0 -44.5 7.5t-34.5 20.5q10 50 42.5 78t77.5 28q30 0 74 -19t57 -19q37 0 47 43q52 0 79 -27q-10 -49 -42.5 -77.5t-74.5 -28.5q-29 0 -74 18t-58 18q-39 0 -49 -42zM337 -17q-122 0 -194 70.5t-72 200.5v387q29 6 57 6t58 -6v-386q0 -76 39.5 -120.5
t112.5 -44.5t112.5 44.5t39.5 120.5v386q28 6 56 6t56 -6v-385q0 -129 -72.5 -201t-192.5 -72z" />
    <glyph glyph-name="utilde" unicode="&#x169;" horiz-adv-x="562" 
d="M176 546q-21 0 -45 7.5t-35 20.5q10 50 42.5 79t76.5 29q28 -1 70 -20t56 -19q34 0 47 42q47 0 79 -27q-11 -49 -43 -77t-73 -28q-29 0 -71.5 19t-55.5 19q-35 0 -48 -45zM442 475q33 0 57 -5v-435q-104 -50 -226 -50q-108 0 -161 49.5t-53 138.5v297q25 5 58 5
q34 0 56 -5v-264q0 -62 24 -91t91 -29q54 0 97 18v366q24 5 57 5z" />
    <glyph glyph-name="Umacron" unicode="&#x16a;" horiz-adv-x="672" 
d="M196 718q-6 26 -6 41q0 14 6 42h289q6 -19 6 -42q0 -21 -6 -41h-289zM337 -17q-122 0 -194 70.5t-72 200.5v387q29 6 57 6t58 -6v-386q0 -76 39.5 -120.5t112.5 -44.5t112.5 44.5t39.5 120.5v386q28 6 56 6t56 -6v-385q0 -129 -72.5 -201t-192.5 -72z" />
    <glyph glyph-name="umacron" unicode="&#x16b;" horiz-adv-x="562" 
d="M422 566h-283q-6 17 -6 43q0 28 6 45h283q5 -23 5 -44t-5 -44zM442 475q33 0 57 -5v-435q-104 -50 -226 -50q-108 0 -161 49.5t-53 138.5v297q25 5 58 5q34 0 56 -5v-264q0 -62 24 -91t91 -29q54 0 97 18v366q24 5 57 5z" />
    <glyph glyph-name="Uring" unicode="&#x16e;" horiz-adv-x="672" 
d="M342 658q-45 0 -76.5 31.5t-31.5 75.5q0 45 31.5 76.5t76.5 31.5q44 0 75 -31.5t31 -76.5q0 -44 -31 -75.5t-75 -31.5zM341 723q17 0 28.5 12.5t11.5 29.5q0 18 -11 30.5t-29 12.5t-29 -12.5t-11 -30.5q0 -17 11.5 -29.5t28.5 -12.5zM337 -17q-122 0 -194 70.5t-72 200.5
v387q29 6 57 6t58 -6v-386q0 -76 39.5 -120.5t112.5 -44.5t112.5 44.5t39.5 120.5v386q28 6 56 6t56 -6v-385q0 -129 -72.5 -201t-192.5 -72z" />
    <glyph glyph-name="uring" unicode="&#x16f;" horiz-adv-x="562" 
d="M282 506q-45 0 -77 31.5t-32 76.5q0 44 32 75.5t77 31.5q44 0 75.5 -31.5t31.5 -75.5q0 -45 -31.5 -76.5t-75.5 -31.5zM281 657q-17 0 -29 -13t-12 -31q0 -17 12 -29.5t29 -12.5q18 0 30 12.5t12 29.5q0 18 -12 31t-30 13zM442 475q33 0 57 -5v-435q-104 -50 -226 -50
q-108 0 -161 49.5t-53 138.5v297q25 5 58 5q34 0 56 -5v-264q0 -62 24 -91t91 -29q54 0 97 18v366q24 5 57 5z" />
    <glyph glyph-name="Uhungarumlaut" unicode="&#x170;" horiz-adv-x="672" 
d="M224 664q-27 11 -38 36l105 144q56 -11 73 -66zM396 664q-27 11 -38 36l105 144q56 -11 73 -66zM337 -17q-122 0 -194 70.5t-72 200.5v387q29 6 57 6t58 -6v-386q0 -76 39.5 -120.5t112.5 -44.5t112.5 44.5t39.5 120.5v386q28 6 56 6t56 -6v-385q0 -129 -72.5 -201
t-192.5 -72z" />
    <glyph glyph-name="uhungarumlaut" unicode="&#x171;" horiz-adv-x="562" 
d="M172 519q-30 11 -41 32l88 163q53 -8 79 -58zM330 519q-30 10 -41 33l91 161q52 -10 77 -59zM442 475q33 0 57 -5v-435q-104 -50 -226 -50q-108 0 -161 49.5t-53 138.5v297q25 5 58 5q34 0 56 -5v-264q0 -62 24 -91t91 -29q54 0 97 18v366q24 5 57 5z" />
    <glyph glyph-name="Uogonek" unicode="&#x172;" horiz-adv-x="672" 
d="M475 14q-63 -56 -63 -95q0 -33 35 -33q23 0 50 20q37 -25 37 -65q-43 -41 -115 -41q-42 0 -70.5 23.5t-28.5 61.5q0 49 45 99q-9 -1 -28 -1q-122 0 -194 70.5t-72 200.5v387q29 6 57 6t58 -6v-386q0 -76 39.5 -120.5t112.5 -44.5t112.5 44.5t39.5 120.5v386q28 6 56 6
t56 -6v-385q0 -174 -127 -242z" />
    <glyph glyph-name="uogonek" unicode="&#x173;" horiz-adv-x="562" 
d="M494 -94q37 -25 37 -65q-43 -41 -115 -41q-42 0 -70.5 23.5t-28.5 61.5q0 54 54 108q-46 -8 -98 -8q-108 0 -161 49.5t-53 138.5v297q25 5 58 5q34 0 56 -5v-264q0 -62 24 -91t91 -29q54 0 97 18v366q24 5 57 5t57 -5v-435l-6 -3q-36 -28 -60 -59t-24 -54q0 -33 35 -33
q22 0 50 20z" />
    <glyph glyph-name="Wcircumflex" unicode="&#x174;" horiz-adv-x="927" 
d="M355 685q-29 18 -35 53l115 94q35 9 69 0l116 -92q-7 -35 -36 -55l-118 68zM831 649q50 0 79 -11q-84 -376 -193 -637q-30 -6 -62 -6q-27 0 -61 6l-110 377l-16 71l-16 -72l-122 -375q-28 -6 -60 -6q-31 0 -67 6q-110 271 -179 637q40 10 83 10q23 0 42 -3
q37 -263 122 -525l16 70l125 400q23 6 58 6q34 0 57 -6l118 -400l17 -71q86 259 132 525q15 4 37 4z" />
    <glyph glyph-name="wcircumflex" unicode="&#x175;" horiz-adv-x="753" 
d="M272 525q-36 13 -47 50l114 118q35 7 69 0l111 -114q-11 -39 -48 -55l-101 80zM668 475q42 0 71 -9q-67 -279 -176 -466q-23 -5 -56 -5q-31 0 -54 5q-45 85 -80 181q-26 -98 -68 -181q-23 -5 -59 -5q-33 0 -54 5q-112 186 -176 466q29 9 77 9q25 0 45 -3
q47 -222 112 -369l3 -13q3 10 4 13q44 100 71 216q-15 53 -38 147q29 9 76 9q22 0 42 -3q47 -238 101 -369l3 -16q2 10 4 16q60 139 107 369q19 3 45 3z" />
    <glyph glyph-name="Ycircumflex" unicode="&#x176;" horiz-adv-x="597" 
d="M185 685q-29 18 -35 53l115 94q35 9 69 0l116 -92q-7 -35 -36 -55l-118 68zM588 640l-233 -399v-241q-29 -6 -57 -6q-27 0 -57 6v247l-235 392q42 10 77 10q22 0 52 -4l149 -255l19 -42l19 42l146 255q21 4 51 4q29 0 69 -9z" />
    <glyph glyph-name="ycircumflex" unicode="&#x177;" horiz-adv-x="517" 
d="M163 525q-36 13 -47 50l114 118q34 7 69 0l111 -114q-11 -39 -48 -55l-101 80zM429 476q37 0 71 -12q-45 -227 -128.5 -385.5t-227.5 -287.5q-51 14 -72 74q89 86 128 147q-120 194 -183 454q30 10 78 10q16 0 46 -4q40 -186 119 -352q6 -14 8 -20l3.5 10t4.5 10
q64 133 108 352q28 4 45 4z" />
    <glyph glyph-name="Ydieresis" unicode="&#x178;" horiz-adv-x="597" 
d="M194 700q-27 0 -45.5 18.5t-18.5 44.5t18.5 44.5t45.5 18.5q26 0 44 -18.5t18 -44.5t-18 -44.5t-44 -18.5zM405 700q-26 0 -45 18.5t-19 44.5t18.5 44.5t45.5 18.5q26 0 44.5 -18.5t18.5 -44.5t-18.5 -44.5t-44.5 -18.5zM588 640l-233 -399v-241q-29 -6 -57 -6
q-27 0 -57 6v247l-235 392q42 10 77 10q22 0 52 -4l149 -255l19 -42l19 42l146 255q21 4 51 4q29 0 69 -9z" />
    <glyph glyph-name="Zacute" unicode="&#x179;" horiz-adv-x="574" 
d="M193 676q-20 17 -23 46l183 127q49 -33 51 -98zM538 101q6 -23 6 -50q0 -29 -6 -51h-498q-6 18 -6 40q0 37 30 75l305 405l17 22l-345 -1q-6 22 -6 50q0 31 6 51h488q5 -20 5 -40q0 -36 -29 -75l-300 -397l-23 -29h356z" />
    <glyph glyph-name="zacute" unicode="&#x17a;" horiz-adv-x="471" 
d="M155 517q-25 17 -32 46l157 147q48 -26 65 -90zM435 93q7 -17 7 -46q0 -28 -7 -47h-394q-7 18 -7 37q0 41 32 78l212 240l21 22h-255q-6 26 -6 47q0 22 6 46h378q6 -15 6 -33q0 -49 -32 -85l-205 -241l-17 -18h261z" />
    <glyph glyph-name="Zdotaccent" unicode="&#x17b;" horiz-adv-x="574" 
d="M286 692q-30 0 -51 20.5t-21 50.5t21 50.5t51 20.5q29 0 50 -20.5t21 -50.5t-21 -50.5t-50 -20.5zM538 101q6 -23 6 -50q0 -29 -6 -51h-498q-6 18 -6 40q0 37 30 75l305 405l17 22l-345 -1q-6 22 -6 50q0 31 6 51h488q5 -20 5 -40q0 -36 -29 -75l-300 -397l-23 -29h356z
" />
    <glyph glyph-name="zdotaccent" unicode="&#x17c;" horiz-adv-x="471" 
d="M233 544q-31 0 -52.5 21t-21.5 51t21.5 51t52.5 21q29 0 50.5 -21t21.5 -51t-21.5 -51t-50.5 -21zM435 93q7 -17 7 -46q0 -28 -7 -47h-394q-7 18 -7 37q0 41 32 78l212 240l21 22h-255q-6 26 -6 47q0 22 6 46h378q6 -15 6 -33q0 -49 -32 -85l-205 -241l-17 -18h261z" />
    <glyph glyph-name="Zcaron" unicode="&#x17d;" horiz-adv-x="574" 
d="M321 692q-35 -9 -69 0l-116 93q8 35 36 54l118 -68l111 68q29 -16 35 -52zM538 101q6 -23 6 -50q0 -29 -6 -51h-498q-6 18 -6 40q0 37 30 75l305 405l17 22l-345 -1q-6 22 -6 50q0 31 6 51h488q5 -20 5 -40q0 -36 -29 -75l-300 -397l-23 -29h356z" />
    <glyph glyph-name="zcaron" unicode="&#x17e;" horiz-adv-x="471" 
d="M264 531q-34 -7 -69 0l-109 114q9 40 47 55l99 -79l101 79q35 -13 47 -51zM435 93q7 -17 7 -46q0 -28 -7 -47h-394q-7 18 -7 37q0 41 32 78l212 240l21 22h-255q-6 26 -6 47q0 22 6 46h378q6 -15 6 -33q0 -49 -32 -85l-205 -241l-17 -18h261z" />
    <glyph glyph-name="uni01EA" unicode="&#x1ea;" horiz-adv-x="736" 
d="M525 22q-71 -60 -71 -103q0 -33 35 -33q23 0 50 20q37 -25 37 -65q-43 -41 -115 -41q-42 0 -70.5 23.5t-28.5 61.5q0 50 47 101q-26 -2 -41 -2q-143 0 -235.5 95t-92.5 243q0 147 92.5 243t235.5 96q144 0 236 -94.5t92 -244.5q0 -100 -46 -179t-125 -121zM162 322
q0 -103 56.5 -167.5t149.5 -64.5t149.5 64.5t56.5 167.5q0 105 -56 169t-150 64t-150 -64t-56 -169z" />
    <glyph glyph-name="uni01EB" unicode="&#x1eb;" horiz-adv-x="576" 
d="M434 -94q37 -25 37 -65q-43 -41 -115 -41q-42 0 -70.5 23.5t-28.5 61.5q0 50 46 100h-17q-110 0 -179.5 70t-69.5 181q0 110 71.5 181t181.5 71t179.5 -70.5t69.5 -181.5q0 -72 -33.5 -130t-91.5 -90q-65 -56 -65 -97q0 -33 35 -33q22 0 50 20zM151 236q0 -68 37 -110
t100 -42t100 42t37 110q0 69 -37 111.5t-100 42.5t-100 -42.5t-37 -111.5z" />
    <glyph glyph-name="AEacute" unicode="&#x1fc;" horiz-adv-x="849" 
d="M404 676q-20 17 -23 46l183 127q49 -33 51 -98zM804 103q6 -26 6 -50q0 -26 -6 -53h-384v236h-174l-137 -236q-24 -4 -52 -4q-38 0 -66 11l364 635h437q6 -25 6 -52q0 -26 -6 -51h-258v-196h229q6 -24 6 -48q0 -23 -6 -49h-229v-143h270zM302 333h118v155l3 62l-32 -63z
" />
    <glyph glyph-name="aeacute" unicode="&#x1fd;" horiz-adv-x="801" 
d="M326 517q-25 17 -32 46l157 147q48 -26 65 -90zM201 -15q-77 0 -123 40t-46 111q0 70 53.5 109t141.5 39h108v23q0 39 -29 60t-82 21q-71 0 -128 -42q-38 28 -48 77q26 24 76 44t108 20q134 0 173 -89q24 41 68 65t94 24q90 0 142.5 -61t51.5 -161q0 -31 -3 -60h-307v-1
q3 -55 37.5 -89t87.5 -34q30 0 58 9t41 16.5t34 22.5q40 -27 48 -81q-82 -63 -187 -63q-134 0 -188 103q-58 -103 -181 -103zM450 284h202q0 44 -21.5 76.5t-67.5 32.5q-49 0 -78.5 -32.5t-34.5 -76.5zM220 74q49 0 82 33t33 98l-99 -1q-92 0 -92 -65q0 -30 20.5 -47.5
t55.5 -17.5z" />
    <glyph glyph-name="Oslashacute" unicode="&#x1fe;" horiz-adv-x="736" 
d="M278 676q-20 17 -23 46l183 127q49 -33 51 -98zM698 616l-70 -77q68 -90 68 -217q0 -145 -92.5 -241.5t-235.5 -96.5q-110 0 -193 58l-69 -76q-50 15 -68 65l70 76q-68 90 -68 215q0 147 92.5 243t235.5 96q112 0 194 -59l68 75q48 -15 68 -61zM162 322q0 -71 28 -125
l296 323q-49 35 -118 35q-94 0 -150 -64t-56 -169zM574 322q0 73 -28 127l-295 -324q51 -35 117 -35q93 0 149.5 64.5t56.5 167.5z" />
    <glyph glyph-name="oslashacute" unicode="&#x1ff;" horiz-adv-x="578" 
d="M212 517q-25 17 -32 46l157 147q48 -26 65 -90zM483 403q57 -68 57 -167q0 -109 -71.5 -180t-181.5 -71q-81 0 -143 41l-51 -57q-34 13 -47 47l48 54q-56 69 -56 166q0 110 72 181t181 71q83 0 144 -42l50 55q35 -11 47 -43zM152 236q0 -48 18 -83l195 216q-34 21 -76 21
q-63 0 -100 -42.5t-37 -111.5zM289 84q63 0 100 42t37 110q0 48 -18 84l-194 -216q32 -20 75 -20z" />
    <glyph glyph-name="Scommaaccent" unicode="&#x218;" horiz-adv-x="540" 
d="M263 -16q-147 0 -231 80q10 60 59 89q71 -64 173 -64q62 0 93 23.5t31 63.5q0 35 -28 58.5t-111 43.5q-43 10 -75 23t-61.5 34.5t-45.5 55.5t-16 80q0 84 61.5 135.5t163.5 51.5q132 0 214 -64q-2 -27 -17.5 -53.5t-37.5 -38.5q-72 52 -163 52q-50 0 -80 -21.5t-30 -53.5
q0 -33 25.5 -53t104.5 -39q102 -25 154.5 -70.5t53.5 -128.5q1 -97 -62.5 -150.5t-174.5 -53.5zM249 -225q-28 4 -40 30q28 36 28 91q0 29 -10 57q22 10 53 10q26 0 46 -9q3 -20 3 -37q0 -43 -21 -81t-59 -61z" />
    <glyph glyph-name="scommaaccent" unicode="&#x219;" horiz-adv-x="469" 
d="M228 -16q-126 0 -196 60q13 54 52 78q65 -47 146 -47q91 0 91 57q0 25 -25 39t-87 24q-75 12 -119.5 44t-44.5 100q0 66 54.5 107t144.5 41q113 0 178 -46q-8 -53 -43 -81q-63 36 -139 36q-86 0 -86 -49q0 -24 21.5 -36.5t80.5 -22.5q86 -13 132 -46t46 -99
q0 -74 -54.5 -116.5t-151.5 -42.5zM218 -225q-28 4 -40 30q28 36 28 91q0 29 -10 57q22 10 53 10q27 0 46 -9q3 -20 3 -37q0 -43 -21 -81t-59 -61z" />
    <glyph glyph-name="uni021A" unicode="&#x21a;" horiz-adv-x="543" 
d="M528 591q0 -24 -6 -51h-194v-541q-38 -6 -57 -6q-18 0 -56 6v541h-195q-6 26 -6 51t6 51h502q6 -26 6 -51zM277 -37q27 0 46 -9q3 -20 3 -37q0 -43 -21 -81t-59 -61q-28 4 -40 30q28 36 28 91q0 29 -10 57q22 10 53 10z" />
    <glyph glyph-name="uni021B" unicode="&#x21b;" horiz-adv-x="428" 
d="M421 37q-59 -51 -142 -51q-81 0 -129 39t-48 121v229h-81q-4 20 -4 47q0 25 4 45h81v126q24 5 57 5t55 -5v-126h177q5 -19 5 -45q0 -27 -5 -47h-177v-203q0 -49 20.5 -68.5t59.5 -19.5q45 0 79 32q41 -28 48 -79zM265 -37q27 0 46 -9q3 -20 3 -37q0 -43 -21 -81t-59 -61
q-28 4 -40 30q28 36 28 91q0 29 -10 57q22 10 53 10z" />
    <glyph glyph-name="circumflex" unicode="&#x2c6;" horiz-adv-x="339" 
d="M207 693l111 -114q-11 -39 -48 -55l-101 80l-98 -79q-36 13 -47 50l114 118q34 7 69 0z" />
    <glyph glyph-name="caron" unicode="&#x2c7;" horiz-adv-x="338" 
d="M135 531l-109 114q9 40 47 55l99 -79l101 79q35 -13 47 -51l-116 -118q-34 -7 -69 0z" />
    <glyph glyph-name="breve" unicode="&#x2d8;" horiz-adv-x="356" 
d="M178 529q-76 0 -116.5 44.5t-40.5 104.5q33 14 76 9q14 -77 83 -77q35 0 55 20.5t24 56.5q46 5 75 -9q0 -59 -40.5 -104t-115.5 -45z" />
    <glyph glyph-name="dotaccent" unicode="&#x2d9;" horiz-adv-x="232" 
d="M117 544q-31 0 -52.5 21t-21.5 51t21.5 51t52.5 21q29 0 50.5 -21t21.5 -51t-21.5 -51t-50.5 -21z" />
    <glyph glyph-name="ring" unicode="&#x2da;" horiz-adv-x="254" 
d="M128 506q-45 0 -77 31.5t-32 76.5q0 44 32 75.5t77 31.5q44 0 75.5 -31.5t31.5 -75.5q0 -45 -31.5 -76.5t-75.5 -31.5zM127 571q18 0 30 12.5t12 29.5q0 18 -12 31t-30 13q-17 0 -29 -13t-12 -31q0 -17 12 -29.5t29 -12.5z" />
    <glyph glyph-name="ogonek" unicode="&#x2db;" horiz-adv-x="277" 
d="M130 -200q-42 0 -70.5 23.5t-28.5 61.5q0 74 99 147h77q-36 -28 -60 -59t-24 -54q0 -33 35 -33q22 0 50 20q37 -25 37 -65q-43 -41 -115 -41z" />
    <glyph glyph-name="tilde" unicode="&#x2dc;" horiz-adv-x="392" 
d="M91 546q-20 0 -44.5 7.5t-35.5 20.5q11 51 43 79.5t76 28.5q28 -1 70 -20t56 -19q36 0 47 42q49 0 79 -27q-11 -49 -42.5 -77t-73.5 -28q-28 0 -71 19t-55 19q-36 0 -49 -45z" />
    <glyph glyph-name="hungarumlaut" unicode="&#x2dd;" horiz-adv-x="353" 
d="M55 519q-30 11 -41 32l88 163q53 -8 79 -58zM213 519q-30 10 -41 33l91 161q52 -10 77 -59z" />
    <glyph glyph-name="gravecomb" unicode="&#x300;" 
d="M-53 517l-190 103q15 63 65 90l157 -148q-9 -31 -32 -45z" />
    <glyph glyph-name="acutecomb" unicode="&#x301;" 
d="M-207 517q-25 17 -32 46l157 147q48 -26 65 -90z" />
    <glyph glyph-name="uni0302" unicode="&#x302;" 
d="M-139 693l111 -114q-11 -39 -48 -55l-101 80l-98 -79q-36 13 -47 50l114 118q34 7 69 0z" />
    <glyph glyph-name="tildecomb" unicode="&#x303;" 
d="M-301 546q-21 0 -45 7.5t-35 20.5q10 50 42.5 79t76.5 29q28 -1 70 -20t56 -19q34 0 47 42q47 0 79 -27q-11 -49 -43 -77t-73 -28q-29 0 -71.5 19t-55.5 19q-35 0 -48 -45z" />
    <glyph glyph-name="uni0304" unicode="&#x304;" 
d="M-311 566q-6 17 -6 43q0 28 6 45h283q5 -23 5 -44t-5 -44h-283z" />
    <glyph glyph-name="uni0306" unicode="&#x306;" 
d="M-176 529q-76 0 -116.5 44.5t-40.5 104.5q33 14 76 9q14 -77 83 -77q35 0 55 20.5t24 56.5q46 5 75 -9q0 -59 -40.5 -104t-115.5 -45z" />
    <glyph glyph-name="uni0307" unicode="&#x307;" 
d="M-115 544q-31 0 -52.5 21t-21.5 51t21.5 51t52.5 21q29 0 50.5 -21t21.5 -51t-21.5 -51t-50.5 -21z" />
    <glyph glyph-name="uni0308" unicode="&#x308;" 
d="M-293 545q-27 0 -46 18.5t-19 45.5q0 26 18.5 44.5t46.5 18.5q26 0 44.5 -18.5t18.5 -44.5q0 -27 -18.5 -45.5t-44.5 -18.5zM-85 545q-26 0 -45 18.5t-19 45.5q0 26 18.5 44.5t45.5 18.5q26 0 45 -18.5t19 -44.5q0 -27 -19 -45.5t-45 -18.5z" />
    <glyph glyph-name="uni030A" unicode="&#x30a;" 
d="M-123 506q-45 0 -77 31.5t-32 76.5q0 44 32 75.5t77 31.5q44 0 75.5 -31.5t31.5 -75.5q0 -45 -31.5 -76.5t-75.5 -31.5zM-124 571q18 0 30 12.5t12 29.5q0 18 -12 31t-30 13q-17 0 -29 -13t-12 -31q0 -17 12 -29.5t29 -12.5z" />
    <glyph glyph-name="uni030B" unicode="&#x30b;" 
d="M-310 519q-30 11 -41 32l88 163q53 -8 79 -58zM-152 519q-30 10 -41 33l91 161q52 -10 77 -59z" />
    <glyph glyph-name="uni030C" unicode="&#x30c;" 
d="M-210 531l-109 114q9 40 47 55l99 -79l101 79q35 -13 47 -51l-116 -118q-35 -7 -69 0z" />
    <glyph glyph-name="uni0326" unicode="&#x326;" 
d="M-118 -225q-28 4 -40 30q28 36 28 91q0 29 -10 57q22 10 53 10q27 0 46 -9q3 -20 3 -37q0 -43 -21 -81t-59 -61z" />
    <glyph glyph-name="uni0327" unicode="&#x327;" 
d="M-149 11h67l-17 -48q76 -15 76 -73q0 -51 -37.5 -72.5t-84.5 -21.5q-54 0 -83 21q2 36 26 59q22 -14 46 -14q39 0 39 29q0 32 -65 34z" />
    <glyph glyph-name="uni0328" unicode="&#x328;" 
d="M-130 -200q-42 0 -70.5 23.5t-28.5 61.5q0 74 99 147h77q-36 -28 -60 -59t-24 -54q0 -33 35 -33q22 0 50 20q37 -25 37 -65q-43 -41 -115 -41z" />
    <glyph glyph-name="uni0335" unicode="&#x335;" 
d="M-304 443q-6 17 -6 37t6 39h274q6 -18 6 -38t-6 -38h-274z" />
    <glyph glyph-name="uni0336" unicode="&#x336;" 
d="M-690 434q-7 17 -7 38q0 22 7 39h664q6 -17 6 -38q0 -19 -6 -39h-664z" />
    <glyph glyph-name="uni0337" unicode="&#x337;" 
d="M-256 254q-31 24 -34 68l251 130q28 -28 33 -69z" />
    <glyph glyph-name="uni0338" unicode="&#x338;" 
d="M-489 -30q-34 11 -47 47l439 485q35 -13 47 -43z" />
    <glyph glyph-name="Wgrave" unicode="&#x1e80;" horiz-adv-x="927" 
d="M576 722q-5 -31 -24 -46l-210 75q0 64 51 98zM831 649q50 0 79 -11q-84 -376 -193 -637q-30 -6 -62 -6q-27 0 -61 6l-110 377l-16 71l-16 -72l-122 -375q-28 -6 -60 -6q-31 0 -67 6q-110 271 -179 637q40 10 83 10q23 0 42 -3q37 -263 122 -525l16 70l125 400q23 6 58 6
q34 0 57 -6l118 -400l17 -71q86 259 132 525q15 4 37 4z" />
    <glyph glyph-name="wgrave" unicode="&#x1e81;" horiz-adv-x="753" 
d="M477 562q-9 -31 -32 -45l-190 103q15 63 65 90zM668 475q42 0 71 -9q-67 -279 -176 -466q-23 -5 -56 -5q-31 0 -54 5q-45 85 -80 181q-26 -98 -68 -181q-23 -5 -59 -5q-33 0 -54 5q-112 186 -176 466q29 9 77 9q25 0 45 -3q47 -222 112 -369l3 -13q3 10 4 13
q44 100 71 216q-15 53 -38 147q29 9 76 9q22 0 42 -3q47 -238 101 -369l3 -16q2 10 4 16q60 139 107 369q19 3 45 3z" />
    <glyph glyph-name="Wacute" unicode="&#x1e82;" horiz-adv-x="927" 
d="M377 676q-20 17 -23 46l183 127q49 -33 51 -98zM831 649q50 0 79 -11q-84 -376 -193 -637q-30 -6 -62 -6q-27 0 -61 6l-110 377l-16 71l-16 -72l-122 -375q-28 -6 -60 -6q-31 0 -67 6q-110 271 -179 637q40 10 83 10q23 0 42 -3q37 -263 122 -525l16 70l125 400
q23 6 58 6q34 0 57 -6l118 -400l17 -71q86 259 132 525q15 4 37 4z" />
    <glyph glyph-name="wacute" unicode="&#x1e83;" horiz-adv-x="753" 
d="M296 517q-25 17 -32 46l157 147q48 -26 65 -90zM668 475q42 0 71 -9q-67 -279 -176 -466q-23 -5 -56 -5q-31 0 -54 5q-45 85 -80 181q-26 -98 -68 -181q-23 -5 -59 -5q-33 0 -54 5q-112 186 -176 466q29 9 77 9q25 0 45 -3q47 -222 112 -369l3 -13q3 10 4 13
q44 100 71 216q-15 53 -38 147q29 9 76 9q22 0 42 -3q47 -238 101 -369l3 -16q2 10 4 16q60 139 107 369q19 3 45 3z" />
    <glyph glyph-name="Wdieresis" unicode="&#x1e84;" horiz-adv-x="927" 
d="M364 700q-27 0 -45.5 18.5t-18.5 44.5t18.5 44.5t45.5 18.5q26 0 44 -18.5t18 -44.5t-18 -44.5t-44 -18.5zM575 700q-26 0 -45 18.5t-19 44.5t18.5 44.5t45.5 18.5q26 0 44.5 -18.5t18.5 -44.5t-18.5 -44.5t-44.5 -18.5zM831 649q50 0 79 -11q-84 -376 -193 -637
q-30 -6 -62 -6q-27 0 -61 6l-110 377l-16 71l-16 -72l-122 -375q-28 -6 -60 -6q-31 0 -67 6q-110 271 -179 637q40 10 83 10q23 0 42 -3q37 -263 122 -525l16 70l125 400q23 6 58 6q34 0 57 -6l118 -400l17 -71q86 259 132 525q15 4 37 4z" />
    <glyph glyph-name="wdieresis" unicode="&#x1e85;" horiz-adv-x="753" 
d="M270 545q-27 0 -46 18.5t-19 45.5q0 26 18.5 44.5t46.5 18.5q26 0 44.5 -18.5t18.5 -44.5q0 -27 -18.5 -45.5t-44.5 -18.5zM478 545q-26 0 -45 18.5t-19 45.5q0 26 18.5 44.5t45.5 18.5q26 0 45 -18.5t19 -44.5q0 -27 -19 -45.5t-45 -18.5zM668 475q42 0 71 -9
q-67 -279 -176 -466q-23 -5 -56 -5q-31 0 -54 5q-45 85 -80 181q-26 -98 -68 -181q-23 -5 -59 -5q-33 0 -54 5q-112 186 -176 466q29 9 77 9q25 0 45 -3q47 -222 112 -369l3 -13q3 10 4 13q44 100 71 216q-15 53 -38 147q29 9 76 9q22 0 42 -3q47 -238 101 -369l3 -16
q2 10 4 16q60 139 107 369q19 3 45 3z" />
    <glyph glyph-name="uni1E9E" unicode="&#x1e9e;" horiz-adv-x="646" 
d="M469 370q79 -45 113.5 -85t34.5 -113q0 -87 -55.5 -137.5t-139.5 -50.5q-114 0 -173 63q10 57 60 89q50 -48 112 -48q39 0 60.5 20.5t21.5 52.5q0 30 -16.5 52t-69.5 51q-42 24 -64.5 40t-43.5 48.5t-21 73.5q0 72 61 114q-20 -2 -45 -2q-52 0 -85 -27.5t-33 -81.5v-429
q-22 -5 -55 -5q-34 0 -59 5v427q0 99 64.5 157t167.5 58h219q6 -24 6 -49q0 -30 -6 -57q-57 -3 -86.5 -25.5t-29.5 -60.5q0 -24 13 -41.5t49 -38.5z" />
    <glyph glyph-name="Ygrave" unicode="&#x1ef2;" horiz-adv-x="597" 
d="M406 722q-5 -31 -24 -46l-210 75q0 64 51 98zM588 640l-233 -399v-241q-29 -6 -57 -6q-27 0 -57 6v247l-235 392q42 10 77 10q22 0 52 -4l149 -255l19 -42l19 42l146 255q21 4 51 4q29 0 69 -9z" />
    <glyph glyph-name="ygrave" unicode="&#x1ef3;" horiz-adv-x="517" 
d="M367 562q-9 -31 -32 -45l-190 103q15 63 65 90zM429 476q37 0 71 -12q-45 -227 -128.5 -385.5t-227.5 -287.5q-51 14 -72 74q89 86 128 147q-120 194 -183 454q30 10 78 10q16 0 46 -4q40 -186 119 -352q6 -14 8 -20l3.5 10t4.5 10q64 133 108 352q28 4 45 4z" />
    <glyph glyph-name="uni1EF8" unicode="&#x1ef8;" horiz-adv-x="597" 
d="M189 688q-21 0 -44.5 7.5t-34.5 20.5q10 50 42.5 78t77.5 28q30 0 74 -19t57 -19q37 0 47 43q52 0 79 -27q-10 -49 -42.5 -77.5t-74.5 -28.5q-29 0 -74 18t-58 18q-39 0 -49 -42zM588 640l-233 -399v-241q-29 -6 -57 -6q-27 0 -57 6v247l-235 392q42 10 77 10q22 0 52 -4
l149 -255l19 -42l19 42l146 255q21 4 51 4q29 0 69 -9z" />
    <glyph glyph-name="uni1EF9" unicode="&#x1ef9;" horiz-adv-x="517" 
d="M159 546q-21 0 -45 7.5t-35 20.5q10 50 42.5 79t76.5 29q28 -1 70 -20t56 -19q34 0 47 42q47 0 79 -27q-11 -49 -43 -77t-73 -28q-29 0 -71.5 19t-55.5 19q-35 0 -48 -45zM429 476q37 0 71 -12q-45 -227 -128.5 -385.5t-227.5 -287.5q-51 14 -72 74q89 86 128 147
q-120 194 -183 454q30 10 78 10q16 0 46 -4q40 -186 119 -352q6 -14 8 -20l3.5 10t4.5 10q64 133 108 352q28 4 45 4z" />
    <glyph glyph-name="endash" unicode="&#x2013;" horiz-adv-x="570" 
d="M66 209q-6 16 -6 41q0 24 6 41h438q6 -20 6 -41q0 -22 -6 -41h-438z" />
    <glyph glyph-name="emdash" unicode="&#x2014;" horiz-adv-x="1069" 
d="M67 208q-7 20 -7 42t7 42h936q5 -23 5 -42t-5 -42h-936z" />
    <glyph glyph-name="quoteleft" unicode="&#x2018;" horiz-adv-x="215" 
d="M97 449q-26 0 -44 7q-8 19 -8 55q0 53 27 100.5t61 74.5q12 -1 24.5 -9t16.5 -19q-31 -41 -31 -120q0 -49 15 -78q-25 -11 -61 -11z" />
    <glyph glyph-name="quoteright" unicode="&#x2019;" horiz-adv-x="208" 
d="M82 449q-12 1 -24.5 9t-16.5 19q31 40 31 120q0 48 -14 78q25 11 60 11q26 0 44 -7q8 -19 8 -55q0 -53 -27 -100.5t-61 -74.5z" />
    <glyph glyph-name="quotesinglbase" unicode="&#x201a;" horiz-adv-x="221" 
d="M77 -125q-13 1 -25.5 9t-16.5 19q32 40 32 120q0 45 -15 78q27 10 61 10q29 0 44 -7q8 -19 8 -55q0 -53 -27 -100.5t-61 -73.5z" />
    <glyph glyph-name="quotedblleft" unicode="&#x201c;" horiz-adv-x="372" 
d="M97 449q-27 0 -44 7q-8 19 -8 55q0 53 26.5 100t60.5 75q12 -1 25 -9t17 -19q-32 -41 -32 -120q0 -46 15 -78q-24 -11 -60 -11zM255 449q-27 0 -45 7q-8 19 -8 55q0 53 27 100.5t62 74.5q12 -1 24.5 -9t16.5 -19q-31 -41 -31 -120q0 -48 14 -78q-25 -11 -60 -11z" />
    <glyph glyph-name="quotedblright" unicode="&#x201d;" horiz-adv-x="367" 
d="M83 446q-12 1 -24.5 9t-16.5 19q31 40 31 120q0 48 -15 78q27 10 61 10q29 0 44 -7q8 -19 8 -55q0 -53 -27 -100t-61 -74zM242 446q-13 1 -25.5 9t-16.5 19q32 40 32 120q0 45 -15 78q25 10 60 10q29 0 44 -7q8 -19 8 -55q0 -53 -26.5 -100.5t-60.5 -73.5z" />
    <glyph glyph-name="quotedblbase" unicode="&#x201e;" horiz-adv-x="378" 
d="M77 -125q-13 1 -25 9t-16 19q30 40 30 120q0 47 -14 78q27 10 60 10q30 0 45 -7q8 -19 8 -55q0 -53 -27 -100.5t-61 -73.5zM235 -125q-12 1 -24.5 9t-16.5 19q31 40 31 120q0 47 -14 78q25 10 60 10q30 0 44 -7q8 -19 8 -55q0 -53 -27 -100.5t-61 -73.5z" />
    <glyph glyph-name="dagger" unicode="&#x2020;" horiz-adv-x="500" 
d="M453 493q0 -27 -6 -54l-147 10v-607q-22 -6 -51 -6q-27 0 -51 6v607l-145 -10q-6 26 -6 53q0 28 6 53l145 -10v185q28 5 51 5q24 0 51 -5v-185l147 10q6 -21 6 -52z" />
    <glyph glyph-name="daggerdbl" unicode="&#x2021;" horiz-adv-x="500" 
d="M300 112l147 10q6 -23 6 -52q0 -27 -6 -54l-147 10v-184q-22 -6 -51 -6q-27 0 -51 6v184l-145 -10q-6 26 -6 53t6 53l145 -10v337l-145 -10q-6 26 -6 53q0 28 6 53l145 -10v185q28 5 51 5q24 0 51 -5v-185l147 10q6 -21 6 -52q0 -27 -6 -54l-147 10v-337z" />
    <glyph glyph-name="bullet" unicode="&#x2022;" horiz-adv-x="367" 
d="M184 158q-47 0 -80.5 33t-33.5 79q0 47 33.5 80.5t80.5 33.5q46 0 79 -33.5t33 -80.5q0 -46 -33 -79t-79 -33z" />
    <glyph glyph-name="ellipsis" unicode="&#x2026;" horiz-adv-x="591" 
d="M112 -14q-27 0 -46 19t-19 46q0 26 18.5 44.5t46.5 18.5q26 0 44.5 -18.5t18.5 -44.5q0 -27 -18.5 -46t-44.5 -19zM300 -14q-27 0 -46 19t-19 46q0 26 19 44.5t46 18.5q26 0 44.5 -18.5t18.5 -44.5q0 -27 -18.5 -46t-44.5 -19zM480 -14q-26 0 -45 19t-19 46
q0 26 18.5 44.5t45.5 18.5q26 0 45 -18.5t19 -44.5q0 -27 -19 -46t-45 -19z" />
    <glyph glyph-name="perthousand" unicode="&#x2030;" horiz-adv-x="1107" 
d="M119 -47l436 674q44 9 83 0l-437 -674q-44 -11 -82 0zM181 300q-71 0 -111 42t-40 110t40 109.5t111 41.5q70 0 109.5 -41.5t39.5 -109.5t-39.5 -110t-109.5 -42zM181 369q35 0 52.5 22.5t17.5 60.5q0 37 -17.5 60t-52.5 23q-36 0 -54 -23t-18 -60q0 -38 18 -60.5
t54 -22.5zM578 -16q-70 0 -110.5 42t-40.5 110q0 67 40 109t111 42q70 0 110 -42t40 -109q0 -68 -40 -110t-110 -42zM925 -16q-70 0 -110 42t-40 110t40 109.5t110 41.5t110 -42t40 -109q0 -68 -40 -110t-110 -42zM578 53q35 0 52.5 22.5t17.5 60.5q0 37 -17.5 60t-52.5 23
t-53 -23t-18 -60q0 -38 18 -60.5t53 -22.5zM925 53q35 0 53 22.5t18 60.5q0 37 -18 60t-53 23t-53 -23t-18 -60q0 -38 18 -60.5t53 -22.5z" />
    <glyph glyph-name="guilsinglleft" unicode="&#x2039;" horiz-adv-x="283" 
d="M183 85l-150 168l148 171q33 -6 48 -33l-79 -136l79 -139q-12 -25 -46 -31z" />
    <glyph glyph-name="guilsinglright" unicode="&#x203a;" horiz-adv-x="283" 
d="M101 85q-34 6 -47 31l79 137l-80 138q14 27 46 33l150 -170z" />
    <glyph glyph-name="fraction" unicode="&#x2044;" horiz-adv-x="556" 
d="M0 -47l471 712q43 9 85 0l-470 -712q-44 -10 -86 0z" />
    <glyph glyph-name="Euro" unicode="&#x20ac;" horiz-adv-x="642" 
d="M550 125q48 -31 57 -85q-67 -55 -186 -55q-116 0 -193.5 64t-101.5 176h-92q-4 22 -4 33q0 12 4 34h83q-1 10 -1 32q0 23 1 34h-65q-4 15 -4 33q0 19 4 34h75q27 109 106 173t193 64q103 0 173 -50q-14 -59 -56 -85q-51 33 -115 33q-143 0 -181 -135h183q4 -15 4 -34
q0 -18 -4 -33h-195q-1 -11 -1 -34q0 -22 1 -32h178q3 -16 3 -34q0 -16 -3 -33h-166q20 -67 66 -102.5t111 -35.5q74 0 126 38z" />
    <glyph glyph-name="trademark" unicode="&#x2122;" horiz-adv-x="777" 
d="M649 668q30 0 58 -4v-356q-24 -3 -44 -3q-19 0 -38 3v142l5 62l-66 -160q-16 -4 -40 -4q-25 0 -42 4l-68 161l5 -63v-142q-18 -3 -39 -3q-19 0 -43 3v356q30 4 55 4q19 0 41 -2l86 -196l8 -26l7 26l80 196q24 2 35 2zM35 665h279q3 -21 3 -39q0 -20 -3 -38h-95v-281
q-22 -3 -43 -3q-20 0 -43 3v281h-98q-3 18 -3 38q0 18 3 39z" />
    <glyph glyph-name="minus" unicode="&#x2212;" horiz-adv-x="559" 
d="M68 196q-5 16 -5 42q0 25 5 41h424q5 -22 5 -41q0 -20 -5 -42h-424z" />
    <glyph glyph-name="approxequal" unicode="&#x2248;" horiz-adv-x="542" 
d="M115 249q-15 4 -32 17t-24 28q22 40 57 63t74 23q32 0 82 -21.5t79 -21.5q37 0 72 47q43 -10 60 -46q-23 -41 -58.5 -64.5t-75.5 -23.5q-38 0 -87.5 21.5t-72.5 21.5q-46 0 -74 -44zM116 63q-16 5 -33 17.5t-24 27.5q22 40 57 63t74 23q32 0 82 -21.5t79 -21.5
q37 0 72 47q43 -10 60 -45q-22 -42 -57.5 -65.5t-76.5 -23.5q-38 0 -87.5 22t-72.5 22q-45 0 -73 -45z" />
    <glyph glyph-name="notequal" unicode="&#x2260;" horiz-adv-x="559" 
d="M297 180h194q5 -22 5 -41t-5 -42h-243l-69 -118q-33 9 -61 38l47 80h-98q-4 19 -4 42q0 24 4 41h147l64 109h-211q-4 19 -4 42t4 42h261l61 104q38 -11 61 -37l-39 -67h80q5 -23 5 -42t-5 -42h-130z" />
    <glyph glyph-name="dotlessj" unicode="&#xf6be;" horiz-adv-x="257" 
d="M20 -198q-82 0 -124 40q2 22 17 44.5t36 33.5q31 -22 58 -22q70 0 70 83v491q24 5 56 5q34 0 58 -5v-488q0 -87 -50 -134.5t-121 -47.5z" />
    <glyph glyph-name="uniF8FF" unicode="&#xf8ff;" horiz-adv-x="1451" 
d="M691 583q0 26 17.5 44t43.5 18t44 -18t18 -44t-18 -43.5t-44 -17.5t-43.5 18t-17.5 43zM219 270h-119q0 134 9 314h100q10 -200 10 -314zM694 270q0 92 3 147h-61l3 -65q4 -4 15 -4q13 0 18 5v-74q-14 -15 -68 -15q-82 0 -82 66q0 12 2 49t2 38h-22v79l119 30l1 -17h178
q10 -64 10 -239h-118zM328 265q-92 0 -92 114q0 135 134 135q124 0 124 -117v-127h-83l-8 61q-6 -33 -23.5 -49.5t-51.5 -16.5zM1090 270h-114q0 26 1 56t1 37q0 29 -15 29q-18 0 -18 -29q0 -7 1.5 -37t1.5 -56h-114q0 175 10 239h80q6 -44 6 -76q2 15 6.5 30t24 33t49.5 18
q42 0 58.5 -25t18.5 -81zM1351 391q0 -126 -123 -126q-122 0 -122 124q0 125 124 125q121 0 121 -123zM390 375q0 26 -24 26q-22 0 -22 -26q0 -30 22 -30q24 0 24 30zM1251 375q0 26 -23 26q-21 0 -21 -26q0 -30 21 -30q23 0 23 30zM428 238h104q10 -53 10 -138
q0 -81 -33.5 -115.5t-118.5 -34.5q-61 0 -88 17v83q24 -16 70 -16q21 0 34 6t16.5 11.5t3.5 10.5q-16 -11 -49 -11q-90 0 -90 83v13h-55l3 -65q6 -4 15 -4q13 0 18 5v-73q-19 -15 -68 -15q-45 0 -63 17t-18 54q0 39 3 81h-18v80l117 29l-1 -18h177v-119q0 -16 3 -21.5
t12 -5.5q16 0 16 27v119zM733 243q37 0 58.5 -29t21.5 -84q0 -135 -137 -135q1 -15 1 -39h-119q0 142 10 282h78q7 -42 7 -76q17 81 80 81zM1070 127q0 -21 -3 -35h-124q11 -18 50 -18q34 0 55 12v-75q-23 -16 -78 -16q-141 0 -141 122q0 59 32.5 92.5t92.5 33.5
q55 0 85.5 -30t30.5 -86zM978 109q3 27 -17 27q-23 0 -23 -27h40zM670 72q5 0 12.5 2.5t16 11.5t8.5 23q0 23 -20 23q-22 0 -22 -31q0 -14 5 -29zM1074 13q0 -23 24 -23t24 23t-24 23t-24 -23zM1080 13q0 18 18 18t18 -18t-18 -18t-18 18zM1108 2l-6 9q7 0 7 7t-10 7h-11
v-23h5v9h5l4 -9h6zM1100 15h-7v6h7q4 0 4 -3t-4 -3z" />
    <glyph glyph-name="A.ss01" horiz-adv-x="616" 
d="M365 642q140 -291 238 -635q-30 -11 -71 -11q-28 0 -47 4q-14 58 -43 154h-272q-21 -70 -42 -154q-24 -4 -51 -4q-38 0 -64 11q96 349 236 635q23 6 59 6q34 0 57 -6zM200 250h211q-39 114 -89 227l-17 41l-16 -41q-53 -118 -89 -227z" />
    <glyph glyph-name="Aacute.ss01" horiz-adv-x="616" 
d="M216 676q-20 17 -23 46l183 127q49 -33 51 -98zM365 642q140 -291 238 -635q-30 -11 -71 -11q-28 0 -47 4q-14 58 -43 154h-272q-21 -70 -42 -154q-24 -4 -51 -4q-38 0 -64 11q96 349 236 635q23 6 59 6q34 0 57 -6zM200 250h211q-39 114 -89 227l-17 41l-16 -41
q-53 -118 -89 -227z" />
    <glyph glyph-name="Abreve.ss01" horiz-adv-x="616" 
d="M309 686q-72 0 -113.5 40t-41.5 96q32 13 73 8q15 -60 84 -60q31 0 53.5 15.5t26.5 44.5q41 5 71 -8q0 -54 -41.5 -95t-111.5 -41zM365 642q140 -291 238 -635q-30 -11 -71 -11q-28 0 -47 4q-14 58 -43 154h-272q-21 -70 -42 -154q-24 -4 -51 -4q-38 0 -64 11
q96 349 236 635q23 6 59 6q34 0 57 -6zM200 250h211q-39 114 -89 227l-17 41l-16 -41q-53 -118 -89 -227z" />
    <glyph glyph-name="Acircumflex.ss01" horiz-adv-x="616" 
d="M194 685q-29 18 -35 53l115 94q34 9 69 0l116 -92q-7 -35 -36 -55l-118 68zM365 642q140 -291 238 -635q-30 -11 -71 -11q-28 0 -47 4q-14 58 -43 154h-272q-21 -70 -42 -154q-24 -4 -51 -4q-38 0 -64 11q96 349 236 635q23 6 59 6q34 0 57 -6zM200 250h211
q-39 114 -89 227l-17 41l-16 -41q-53 -118 -89 -227z" />
    <glyph glyph-name="Adieresis.ss01" horiz-adv-x="616" 
d="M203 700q-27 0 -45.5 18.5t-18.5 44.5t18.5 44.5t45.5 18.5q26 0 44 -18.5t18 -44.5t-18 -44.5t-44 -18.5zM414 700q-26 0 -45 18.5t-19 44.5t18.5 44.5t45.5 18.5q26 0 44.5 -18.5t18.5 -44.5t-18.5 -44.5t-44.5 -18.5zM365 642q140 -291 238 -635q-30 -11 -71 -11
q-28 0 -47 4q-14 58 -43 154h-272q-21 -70 -42 -154q-24 -4 -51 -4q-38 0 -64 11q96 349 236 635q23 6 59 6q34 0 57 -6zM200 250h211q-39 114 -89 227l-17 41l-16 -41q-53 -118 -89 -227z" />
    <glyph glyph-name="Agrave.ss01" horiz-adv-x="616" 
d="M415 722q-5 -31 -24 -46l-210 75q0 64 51 98zM365 642q140 -291 238 -635q-30 -11 -71 -11q-28 0 -47 4q-14 58 -43 154h-272q-21 -70 -42 -154q-24 -4 -51 -4q-38 0 -64 11q96 349 236 635q23 6 59 6q34 0 57 -6zM200 250h211q-39 114 -89 227l-17 41l-16 -41
q-53 -118 -89 -227z" />
    <glyph glyph-name="Amacron.ss01" horiz-adv-x="616" 
d="M453 718h-289q-6 26 -6 41q0 14 6 42h289q6 -19 6 -42q0 -21 -6 -41zM365 642q140 -291 238 -635q-30 -11 -71 -11q-28 0 -47 4q-14 58 -43 154h-272q-21 -70 -42 -154q-24 -4 -51 -4q-38 0 -64 11q96 349 236 635q23 6 59 6q34 0 57 -6zM200 250h211q-39 114 -89 227
l-17 41l-16 -41q-53 -118 -89 -227z" />
    <glyph glyph-name="Aogonek.ss01" horiz-adv-x="616" 
d="M620 -96q37 -25 37 -65q-43 -41 -115 -41q-43 0 -71 23.5t-28 63.5q0 60 57 113q-5 0 -15 2q-14 58 -43 154h-272q-21 -70 -42 -154q-24 -4 -51 -4q-38 0 -64 11q96 349 236 635q23 6 59 6q34 0 57 -6q140 -291 238 -635q-69 -39 -69 -86q0 -19 10.5 -28t24.5 -9
q23 0 51 20zM200 250h211q-39 114 -89 227l-17 41l-16 -41q-53 -118 -89 -227z" />
    <glyph glyph-name="Aring.ss01" horiz-adv-x="616" 
d="M309 658q-45 0 -76.5 31.5t-31.5 75.5q0 45 31.5 76.5t76.5 31.5q44 0 75 -31.5t31 -76.5q0 -44 -31 -75.5t-75 -31.5zM308 808q-18 0 -29 -12.5t-11 -30.5q0 -17 11.5 -29.5t28.5 -12.5t28.5 12.5t11.5 29.5q0 18 -11 30.5t-29 12.5zM365 642q140 -291 238 -635
q-30 -11 -71 -11q-28 0 -47 4q-14 58 -43 154h-272q-21 -70 -42 -154q-24 -4 -51 -4q-38 0 -64 11q96 349 236 635q23 6 59 6q34 0 57 -6zM200 250h211q-39 114 -89 227l-17 41l-16 -41q-53 -118 -89 -227z" />
    <glyph glyph-name="Atilde.ss01" horiz-adv-x="616" 
d="M199 688q-21 0 -44.5 7.5t-34.5 20.5q10 50 42.5 78t77.5 28q30 0 74 -19t57 -19q37 0 47 43q52 0 79 -27q-10 -49 -42.5 -77.5t-74.5 -28.5q-29 0 -74 18t-58 18q-39 0 -49 -42zM365 642q140 -291 238 -635q-30 -11 -71 -11q-28 0 -47 4q-14 58 -43 154h-272
q-21 -70 -42 -154q-24 -4 -51 -4q-38 0 -64 11q96 349 236 635q23 6 59 6q34 0 57 -6zM200 250h211q-39 114 -89 227l-17 41l-16 -41q-53 -118 -89 -227z" />
    <glyph glyph-name="E.ss01" horiz-adv-x="496" 
d="M430 131q42 -25 51 -86q-72 -59 -196 -59q-108 0 -175.5 47t-67.5 143q0 116 107 162q-80 45 -80 141q0 79 56.5 129t149.5 50q101 0 171 -45q-5 -55 -46 -88q-58 30 -117 30q-50 0 -77 -22.5t-27 -63.5q0 -89 131 -89h54q8 -21 8 -46q0 -22 -8 -46h-66q-137 0 -137 -101
q0 -47 32 -73.5t92 -26.5q86 0 145 44z" />
    <glyph glyph-name="Eacute.ss01" horiz-adv-x="496" 
d="M179 676q-20 17 -23 46l183 127q49 -33 51 -98zM430 131q42 -25 51 -86q-72 -59 -196 -59q-108 0 -175.5 47t-67.5 143q0 116 107 162q-80 45 -80 141q0 79 56.5 129t149.5 50q101 0 171 -45q-5 -55 -46 -88q-58 30 -117 30q-50 0 -77 -22.5t-27 -63.5q0 -89 131 -89h54
q8 -21 8 -46q0 -22 -8 -46h-66q-137 0 -137 -101q0 -47 32 -73.5t92 -26.5q86 0 145 44z" />
    <glyph glyph-name="Ecaron.ss01" horiz-adv-x="496" 
d="M307 692q-35 -9 -69 0l-116 93q8 35 36 54l118 -68l111 68q29 -16 35 -52zM430 131q42 -25 51 -86q-72 -59 -196 -59q-108 0 -175.5 47t-67.5 143q0 116 107 162q-80 45 -80 141q0 79 56.5 129t149.5 50q101 0 171 -45q-5 -55 -46 -88q-58 30 -117 30q-50 0 -77 -22.5
t-27 -63.5q0 -89 131 -89h54q8 -21 8 -46q0 -22 -8 -46h-66q-137 0 -137 -101q0 -47 32 -73.5t92 -26.5q86 0 145 44z" />
    <glyph glyph-name="Ecircumflex.ss01" horiz-adv-x="496" 
d="M157 685q-29 18 -35 53l115 94q35 9 69 0l116 -92q-7 -35 -36 -55l-118 68zM430 131q42 -25 51 -86q-72 -59 -196 -59q-108 0 -175.5 47t-67.5 143q0 116 107 162q-80 45 -80 141q0 79 56.5 129t149.5 50q101 0 171 -45q-5 -55 -46 -88q-58 30 -117 30q-50 0 -77 -22.5
t-27 -63.5q0 -89 131 -89h54q8 -21 8 -46q0 -22 -8 -46h-66q-137 0 -137 -101q0 -47 32 -73.5t92 -26.5q86 0 145 44z" />
    <glyph glyph-name="Edieresis.ss01" horiz-adv-x="496" 
d="M166 700q-27 0 -45.5 18.5t-18.5 44.5t18.5 44.5t45.5 18.5q26 0 44 -18.5t18 -44.5t-18 -44.5t-44 -18.5zM377 700q-26 0 -45 18.5t-19 44.5t18.5 44.5t45.5 18.5q26 0 44.5 -18.5t18.5 -44.5t-18.5 -44.5t-44.5 -18.5zM430 131q42 -25 51 -86q-72 -59 -196 -59
q-108 0 -175.5 47t-67.5 143q0 116 107 162q-80 45 -80 141q0 79 56.5 129t149.5 50q101 0 171 -45q-5 -55 -46 -88q-58 30 -117 30q-50 0 -77 -22.5t-27 -63.5q0 -89 131 -89h54q8 -21 8 -46q0 -22 -8 -46h-66q-137 0 -137 -101q0 -47 32 -73.5t92 -26.5q86 0 145 44z" />
    <glyph glyph-name="Edotaccent.ss01" horiz-adv-x="496" 
d="M272 692q-30 0 -51 20.5t-21 50.5t21 50.5t51 20.5q29 0 50 -20.5t21 -50.5t-21 -50.5t-50 -20.5zM430 131q42 -25 51 -86q-72 -59 -196 -59q-108 0 -175.5 47t-67.5 143q0 116 107 162q-80 45 -80 141q0 79 56.5 129t149.5 50q101 0 171 -45q-5 -55 -46 -88
q-58 30 -117 30q-50 0 -77 -22.5t-27 -63.5q0 -89 131 -89h54q8 -21 8 -46q0 -22 -8 -46h-66q-137 0 -137 -101q0 -47 32 -73.5t92 -26.5q86 0 145 44z" />
    <glyph glyph-name="Egrave.ss01" horiz-adv-x="496" 
d="M378 722q-5 -31 -24 -46l-210 75q0 64 51 98zM430 131q42 -25 51 -86q-72 -59 -196 -59q-108 0 -175.5 47t-67.5 143q0 116 107 162q-80 45 -80 141q0 79 56.5 129t149.5 50q101 0 171 -45q-5 -55 -46 -88q-58 30 -117 30q-50 0 -77 -22.5t-27 -63.5q0 -89 131 -89h54
q8 -21 8 -46q0 -22 -8 -46h-66q-137 0 -137 -101q0 -47 32 -73.5t92 -26.5q86 0 145 44z" />
    <glyph glyph-name="Emacron.ss01" horiz-adv-x="496" 
d="M416 718h-289q-6 26 -6 41q0 14 6 42h289q6 -19 6 -42q0 -21 -6 -41zM430 131q42 -25 51 -86q-72 -59 -196 -59q-108 0 -175.5 47t-67.5 143q0 116 107 162q-80 45 -80 141q0 79 56.5 129t149.5 50q101 0 171 -45q-5 -55 -46 -88q-58 30 -117 30q-50 0 -77 -22.5
t-27 -63.5q0 -89 131 -89h54q8 -21 8 -46q0 -22 -8 -46h-66q-137 0 -137 -101q0 -47 32 -73.5t92 -26.5q86 0 145 44z" />
    <glyph glyph-name="Eogonek.ss01" horiz-adv-x="496" 
d="M463 -94q37 -25 37 -65q-43 -41 -115 -41q-42 0 -70.5 23.5t-28.5 61.5q0 54 50 104q-24 -3 -51 -3q-108 0 -175.5 47t-67.5 143q0 116 107 162q-80 45 -80 141q0 79 56.5 129t149.5 50q101 0 171 -45q-5 -55 -46 -88q-58 30 -117 30q-50 0 -77 -22.5t-27 -63.5
q0 -89 131 -89h54q8 -21 8 -46q0 -22 -8 -46h-66q-137 0 -137 -101q0 -47 32 -73.5t92 -26.5q86 0 145 44q42 -25 51 -86q-11 -9 -23 -16q-80 -65 -80 -110q0 -33 35 -33q23 0 50 20z" />
    <glyph glyph-name="Q.ss02" horiz-adv-x="736" 
d="M696 322q0 -168 -118 -265l71 -96q-13 -22 -36 -39.5t-49 -21.5l-76 105q-56 -21 -120 -21q-143 0 -235.5 95t-92.5 243q0 147 92.5 243t235.5 96q144 0 236 -94.5t92 -244.5zM368 90q29 0 53 6l-49 68q32 38 85 57l54 -74q63 66 63 175q0 105 -56 169t-150 64t-150 -64
t-56 -169q0 -103 56.5 -167.5t149.5 -64.5z" />
    <glyph glyph-name="a.ss01" horiz-adv-x="579" 
d="M495 155q0 -35 11 -50.5t41 -29.5q-2 -57 -47 -89q-64 14 -89 54q-61 -55 -151 -55q-101 0 -162 62t-61 177q0 114 72.5 188.5t187.5 74.5q118 0 198 -57v-275zM279 83q63 0 103 49v236q-43 18 -86 18q-65 0 -104.5 -43t-39.5 -118q0 -67 35.5 -104.5t91.5 -37.5z" />
    <glyph glyph-name="aacute.ss01" horiz-adv-x="579" 
d="M206 517q-25 17 -32 46l157 147q48 -26 65 -90zM495 155q0 -35 11 -50.5t41 -29.5q-2 -57 -47 -89q-64 14 -89 54q-61 -55 -151 -55q-101 0 -162 62t-61 177q0 114 72.5 188.5t187.5 74.5q118 0 198 -57v-275zM279 83q63 0 103 49v236q-43 18 -86 18q-65 0 -104.5 -43
t-39.5 -118q0 -67 35.5 -104.5t91.5 -37.5z" />
    <glyph glyph-name="abreve.ss01" horiz-adv-x="579" 
d="M284 529q-76 0 -116.5 44.5t-40.5 104.5q33 14 76 9q14 -77 83 -77q35 0 55 20.5t24 56.5q46 5 75 -9q0 -59 -40.5 -104t-115.5 -45zM495 155q0 -35 11 -50.5t41 -29.5q-2 -57 -47 -89q-64 14 -89 54q-61 -55 -151 -55q-101 0 -162 62t-61 177q0 114 72.5 188.5
t187.5 74.5q118 0 198 -57v-275zM279 83q63 0 103 49v236q-43 18 -86 18q-65 0 -104.5 -43t-39.5 -118q0 -67 35.5 -104.5t91.5 -37.5z" />
    <glyph glyph-name="acircumflex.ss01" horiz-adv-x="579" 
d="M182 525q-36 13 -47 50l114 118q35 7 69 0l111 -114q-11 -39 -48 -55l-101 80zM495 155q0 -35 11 -50.5t41 -29.5q-2 -57 -47 -89q-64 14 -89 54q-61 -55 -151 -55q-101 0 -162 62t-61 177q0 114 72.5 188.5t187.5 74.5q118 0 198 -57v-275zM279 83q63 0 103 49v236
q-43 18 -86 18q-65 0 -104.5 -43t-39.5 -118q0 -67 35.5 -104.5t91.5 -37.5z" />
    <glyph glyph-name="adieresis.ss01" horiz-adv-x="579" 
d="M180 545q-27 0 -46 18.5t-19 45.5q0 26 18.5 44.5t46.5 18.5q26 0 44.5 -18.5t18.5 -44.5q0 -27 -18.5 -45.5t-44.5 -18.5zM388 545q-26 0 -45 18.5t-19 45.5q0 26 18.5 44.5t45.5 18.5q26 0 45 -18.5t19 -44.5q0 -27 -19 -45.5t-45 -18.5zM495 155q0 -35 11 -50.5
t41 -29.5q-2 -57 -47 -89q-64 14 -89 54q-61 -55 -151 -55q-101 0 -162 62t-61 177q0 114 72.5 188.5t187.5 74.5q118 0 198 -57v-275zM279 83q63 0 103 49v236q-43 18 -86 18q-65 0 -104.5 -43t-39.5 -118q0 -67 35.5 -104.5t91.5 -37.5z" />
    <glyph glyph-name="agrave.ss01" horiz-adv-x="579" 
d="M386 562q-9 -31 -32 -45l-190 103q15 63 65 90zM495 155q0 -35 11 -50.5t41 -29.5q-2 -57 -47 -89q-64 14 -89 54q-61 -55 -151 -55q-101 0 -162 62t-61 177q0 114 72.5 188.5t187.5 74.5q118 0 198 -57v-275zM279 83q63 0 103 49v236q-43 18 -86 18q-65 0 -104.5 -43
t-39.5 -118q0 -67 35.5 -104.5t91.5 -37.5z" />
    <glyph glyph-name="amacron.ss01" horiz-adv-x="579" 
d="M425 566h-283q-6 17 -6 43q0 28 6 45h283q5 -23 5 -44t-5 -44zM495 155q0 -35 11 -50.5t41 -29.5q-2 -57 -47 -89q-64 14 -89 54q-61 -55 -151 -55q-101 0 -162 62t-61 177q0 114 72.5 188.5t187.5 74.5q118 0 198 -57v-275zM279 83q63 0 103 49v236q-43 18 -86 18
q-65 0 -104.5 -43t-39.5 -118q0 -67 35.5 -104.5t91.5 -37.5z" />
    <glyph glyph-name="aogonek.ss01" horiz-adv-x="581" 
d="M511 -96q38 -23 38 -64q-40 -42 -111 -42q-44 0 -74 25t-30 64q0 82 101 134q-14 11 -22 21q-60 -57 -157 -57q-98 0 -158 62.5t-60 179.5q0 112 72 186t183 74q124 0 204 -57v-281q0 -27 11.5 -39.5t38.5 -17.5q-2 -64 -27 -95q-47 -12 -70.5 -33.5t-23.5 -44.5
q0 -35 37 -35q23 0 48 20zM278 83q65 0 106 49v235q-40 20 -91 20q-63 0 -101.5 -43t-38.5 -116q0 -69 34 -107t91 -38z" />
    <glyph glyph-name="aring.ss01" horiz-adv-x="579" 
d="M284 506q-45 0 -77 31.5t-32 76.5q0 44 32 75.5t77 31.5q44 0 75.5 -31.5t31.5 -75.5q0 -45 -31.5 -76.5t-75.5 -31.5zM283 657q-17 0 -29 -13t-12 -31q0 -17 12 -29.5t29 -12.5q18 0 30 12.5t12 29.5q0 18 -12 31t-30 13zM495 155q0 -35 11 -50.5t41 -29.5
q-2 -57 -47 -89q-64 14 -89 54q-61 -55 -151 -55q-101 0 -162 62t-61 177q0 114 72.5 188.5t187.5 74.5q118 0 198 -57v-275zM279 83q63 0 103 49v236q-43 18 -86 18q-65 0 -104.5 -43t-39.5 -118q0 -67 35.5 -104.5t91.5 -37.5z" />
    <glyph glyph-name="atilde.ss01" horiz-adv-x="579" 
d="M178 546q-21 0 -45 7.5t-35 20.5q10 50 42.5 79t76.5 29q28 -1 70 -20t56 -19q34 0 47 42q47 0 79 -27q-11 -49 -43 -77t-73 -28q-29 0 -71.5 19t-55.5 19q-35 0 -48 -45zM495 155q0 -35 11 -50.5t41 -29.5q-2 -57 -47 -89q-64 14 -89 54q-61 -55 -151 -55
q-101 0 -162 62t-61 177q0 114 72.5 188.5t187.5 74.5q118 0 198 -57v-275zM279 83q63 0 103 49v236q-43 18 -86 18q-65 0 -104.5 -43t-39.5 -118q0 -67 35.5 -104.5t91.5 -37.5z" />
    <glyph glyph-name="e.ss01" horiz-adv-x="516" 
d="M429 134q40 -29 48 -80q-78 -69 -197 -69q-107 0 -175 62t-68 182q0 113 70 185t175 72q90 0 141.5 -43.5t51.5 -109.5q0 -145 -210 -145q-59 0 -111 16q13 -123 139 -123q32 0 62 11t40 17.5t34 24.5zM281 394q-51 0 -83.5 -30t-41.5 -84q50 -16 108 -14q56 0 78 15.5
t22 46.5q0 27 -21.5 46.5t-61.5 19.5z" />
    <glyph glyph-name="eacute.ss01" horiz-adv-x="516" 
d="M193 517q-25 17 -32 46l157 147q48 -26 65 -90zM429 134q40 -29 48 -80q-78 -69 -197 -69q-107 0 -175 62t-68 182q0 113 70 185t175 72q90 0 141.5 -43.5t51.5 -109.5q0 -145 -210 -145q-59 0 -111 16q13 -123 139 -123q32 0 62 11t40 17.5t34 24.5zM281 394
q-51 0 -83.5 -30t-41.5 -84q50 -16 108 -14q56 0 78 15.5t22 46.5q0 27 -21.5 46.5t-61.5 19.5z" />
    <glyph glyph-name="ecaron.ss01" horiz-adv-x="516" 
d="M302 531q-34 -7 -69 0l-109 114q9 40 47 55l99 -79l101 79q35 -13 47 -51zM429 134q40 -29 48 -80q-78 -69 -197 -69q-107 0 -175 62t-68 182q0 113 70 185t175 72q90 0 141.5 -43.5t51.5 -109.5q0 -145 -210 -145q-59 0 -111 16q13 -123 139 -123q32 0 62 11t40 17.5
t34 24.5zM281 394q-51 0 -83.5 -30t-41.5 -84q50 -16 108 -14q56 0 78 15.5t22 46.5q0 27 -21.5 46.5t-61.5 19.5z" />
    <glyph glyph-name="ecircumflex.ss01" horiz-adv-x="516" 
d="M169 525q-36 13 -47 50l114 118q34 7 69 0l111 -114q-11 -39 -48 -55l-101 80zM429 134q40 -29 48 -80q-78 -69 -197 -69q-107 0 -175 62t-68 182q0 113 70 185t175 72q90 0 141.5 -43.5t51.5 -109.5q0 -145 -210 -145q-59 0 -111 16q13 -123 139 -123q32 0 62 11
t40 17.5t34 24.5zM281 394q-51 0 -83.5 -30t-41.5 -84q50 -16 108 -14q56 0 78 15.5t22 46.5q0 27 -21.5 46.5t-61.5 19.5z" />
    <glyph glyph-name="edieresis.ss01" horiz-adv-x="516" 
d="M167 545q-27 0 -46 18.5t-19 45.5q0 26 18.5 44.5t46.5 18.5q26 0 44.5 -18.5t18.5 -44.5q0 -27 -18.5 -45.5t-44.5 -18.5zM375 545q-26 0 -45 18.5t-19 45.5q0 26 18.5 44.5t45.5 18.5q26 0 45 -18.5t19 -44.5q0 -27 -19 -45.5t-45 -18.5zM429 134q40 -29 48 -80
q-78 -69 -197 -69q-107 0 -175 62t-68 182q0 113 70 185t175 72q90 0 141.5 -43.5t51.5 -109.5q0 -145 -210 -145q-59 0 -111 16q13 -123 139 -123q32 0 62 11t40 17.5t34 24.5zM281 394q-51 0 -83.5 -30t-41.5 -84q50 -16 108 -14q56 0 78 15.5t22 46.5q0 27 -21.5 46.5
t-61.5 19.5z" />
    <glyph glyph-name="edotaccent.ss01" horiz-adv-x="516" 
d="M271 544q-31 0 -52.5 21t-21.5 51t21.5 51t52.5 21q29 0 50.5 -21t21.5 -51t-21.5 -51t-50.5 -21zM429 134q40 -29 48 -80q-78 -69 -197 -69q-107 0 -175 62t-68 182q0 113 70 185t175 72q90 0 141.5 -43.5t51.5 -109.5q0 -145 -210 -145q-59 0 -111 16q13 -123 139 -123
q32 0 62 11t40 17.5t34 24.5zM281 394q-51 0 -83.5 -30t-41.5 -84q50 -16 108 -14q56 0 78 15.5t22 46.5q0 27 -21.5 46.5t-61.5 19.5z" />
    <glyph glyph-name="egrave.ss01" horiz-adv-x="516" 
d="M374 562q-9 -31 -32 -45l-190 103q15 63 65 90zM429 134q40 -29 48 -80q-78 -69 -197 -69q-107 0 -175 62t-68 182q0 113 70 185t175 72q90 0 141.5 -43.5t51.5 -109.5q0 -145 -210 -145q-59 0 -111 16q13 -123 139 -123q32 0 62 11t40 17.5t34 24.5zM281 394
q-51 0 -83.5 -30t-41.5 -84q50 -16 108 -14q56 0 78 15.5t22 46.5q0 27 -21.5 46.5t-61.5 19.5z" />
    <glyph glyph-name="emacron.ss01" horiz-adv-x="516" 
d="M412 566h-283q-6 17 -6 43q0 28 6 45h283q5 -23 5 -44t-5 -44zM429 134q40 -29 48 -80q-78 -69 -197 -69q-107 0 -175 62t-68 182q0 113 70 185t175 72q90 0 141.5 -43.5t51.5 -109.5q0 -145 -210 -145q-59 0 -111 16q13 -123 139 -123q32 0 62 11t40 17.5t34 24.5z
M281 394q-51 0 -83.5 -30t-41.5 -84q50 -16 108 -14q56 0 78 15.5t22 46.5q0 27 -21.5 46.5t-61.5 19.5z" />
    <glyph glyph-name="eogonek.ss01" horiz-adv-x="516" 
d="M448 -94q37 -25 37 -65q-43 -41 -115 -41q-42 0 -70.5 23.5t-28.5 61.5q0 52 48 102q-26 -2 -39 -2q-107 0 -175 62t-68 182q0 113 70 185t175 72q90 0 141.5 -43.5t51.5 -109.5q0 -145 -210 -145q-59 0 -111 16q13 -123 139 -123q32 0 62 11t40 17.5t34 24.5
q40 -29 48 -80q-15 -14 -36 -27q-33 -26 -55.5 -56t-22.5 -52q0 -33 35 -33q22 0 50 20zM281 394q-51 0 -83.5 -30t-41.5 -84q50 -16 108 -14q56 0 78 15.5t22 46.5q0 27 -21.5 46.5t-61.5 19.5z" />
    <glyph glyph-name="g.ss01" horiz-adv-x="556" 
d="M291 488q116 0 202 -65v-406q0 -99 -66.5 -157.5t-175.5 -58.5q-79 0 -126.5 34.5t-47.5 95.5q0 75 89 118q-59 26 -94 77.5t-35 122.5q0 106 73 172.5t181 66.5zM292 390q-61 0 -100.5 -38.5t-39.5 -100.5q0 -60 38.5 -95t101.5 -35q49 0 88 22v225q-41 22 -88 22z
M252 -111q61 0 94.5 32.5t33.5 85.5v34q-30 -11 -64 -14q-133 -14 -133 -83q0 -55 69 -55z" />
    <glyph glyph-name="gbreve.ss01" horiz-adv-x="556" 
d="M277 529q-76 0 -116.5 44.5t-40.5 104.5q33 14 76 9q14 -77 83 -77q35 0 55 20.5t24 56.5q46 5 75 -9q0 -59 -40.5 -104t-115.5 -45zM291 488q116 0 202 -65v-406q0 -99 -66.5 -157.5t-175.5 -58.5q-79 0 -126.5 34.5t-47.5 95.5q0 75 89 118q-59 26 -94 77.5t-35 122.5
q0 106 73 172.5t181 66.5zM292 390q-61 0 -100.5 -38.5t-39.5 -100.5q0 -60 38.5 -95t101.5 -35q49 0 88 22v225q-41 22 -88 22zM252 -111q61 0 94.5 32.5t33.5 85.5v34q-30 -11 -64 -14q-133 -14 -133 -83q0 -55 69 -55z" />
    <glyph glyph-name="gcommaaccent.ss01" horiz-adv-x="556" 
d="M271 508q-27 0 -46 9q-3 19 -3 37q0 43 21 81t59 61q28 -4 40 -30q-28 -36 -28 -91q0 -29 10 -57q-22 -10 -53 -10zM291 488q116 0 202 -65v-406q0 -99 -66.5 -157.5t-175.5 -58.5q-79 0 -126.5 34.5t-47.5 95.5q0 75 89 118q-59 26 -94 77.5t-35 122.5q0 106 73 172.5
t181 66.5zM292 390q-61 0 -100.5 -38.5t-39.5 -100.5q0 -60 38.5 -95t101.5 -35q49 0 88 22v225q-41 22 -88 22zM252 -111q61 0 94.5 32.5t33.5 85.5v34q-30 -11 -64 -14q-133 -14 -133 -83q0 -55 69 -55z" />
    <glyph glyph-name="gdotaccent.ss01" horiz-adv-x="556" 
d="M277 544q-31 0 -52.5 21t-21.5 51t21.5 51t52.5 21q29 0 50.5 -21t21.5 -51t-21.5 -51t-50.5 -21zM291 488q116 0 202 -65v-406q0 -99 -66.5 -157.5t-175.5 -58.5q-79 0 -126.5 34.5t-47.5 95.5q0 75 89 118q-59 26 -94 77.5t-35 122.5q0 106 73 172.5t181 66.5zM292 390
q-61 0 -100.5 -38.5t-39.5 -100.5q0 -60 38.5 -95t101.5 -35q49 0 88 22v225q-41 22 -88 22zM252 -111q61 0 94.5 32.5t33.5 85.5v34q-30 -11 -64 -14q-133 -14 -133 -83q0 -55 69 -55z" />
    <glyph glyph-name="k.ss01" horiz-adv-x="553" 
d="M395 174l134 -171q-36 -10 -79 -10q-34 0 -58 3l-111 151q-19 25 -19 65q130 22 130 101q0 32 -22 51.5t-58 19.5q-60 0 -97 -37t-37 -91v-256q-22 -5 -56 -5q-32 0 -57 5v656q24 5 56 5q33 0 57 -5v-232q63 61 154 61q79 0 125.5 -40.5t46.5 -109.5q0 -116 -109 -161z
" />
    <glyph glyph-name="kcommaaccent.ss01" horiz-adv-x="553" 
d="M395 174l134 -171q-36 -10 -79 -10q-34 0 -58 3l-111 151q-19 25 -19 65q130 22 130 101q0 32 -22 51.5t-58 19.5q-60 0 -97 -37t-37 -91v-256q-22 -5 -56 -5q-32 0 -57 5v656q24 5 56 5q33 0 57 -5v-232q63 61 154 61q79 0 125.5 -40.5t46.5 -109.5q0 -116 -109 -161z
M264 -37q26 0 46 -9q3 -20 3 -37q0 -43 -21 -81t-59 -61q-28 4 -40 30q28 36 28 91q0 29 -10 57q22 10 53 10z" />
    <glyph glyph-name="l.ss01" horiz-adv-x="313" 
d="M202 -11q-62 0 -101 33t-39 100v535q32 5 57 5q26 0 56 -5v-517q0 -51 47 -51q24 0 44 21q39 -28 47 -82q-41 -39 -111 -39z" />
    <glyph glyph-name="lacute.ss01" horiz-adv-x="313" 
d="M31 676q-20 17 -23 46l183 127q49 -33 51 -98zM202 -11q-62 0 -101 33t-39 100v535q32 5 57 5q26 0 56 -5v-517q0 -51 47 -51q24 0 44 21q39 -28 47 -82q-41 -39 -111 -39z" />
    <glyph glyph-name="lcaron.ss01" horiz-adv-x="313" 
d="M264 511q-28 4 -42 24q20 44 20 107q0 40 -12 69q20 11 51 11q29 0 46 -10q5 -20 5 -43q0 -45 -19 -88.5t-49 -69.5zM202 -11q-62 0 -101 33t-39 100v535q32 5 57 5q26 0 56 -5v-517q0 -51 47 -51q24 0 44 21q39 -28 47 -82q-41 -39 -111 -39z" />
    <glyph glyph-name="lcommaaccent.ss01" horiz-adv-x="313" 
d="M202 -11q-62 0 -101 33t-39 100v535q32 5 57 5q26 0 56 -5v-517q0 -51 47 -51q24 0 44 21q39 -28 47 -82q-41 -39 -111 -39zM162 -225q-28 4 -40 30q28 36 28 91q0 29 -10 57q22 10 53 10q27 0 46 -9q3 -19 3 -37q0 -43 -21 -81t-59 -61z" />
    <glyph glyph-name="ldot.ss01" horiz-adv-x="327" 
d="M202 -11q-62 0 -101 33t-39 100v535q32 5 57 5q26 0 56 -5v-517q0 -51 47 -51q24 0 44 21q39 -28 47 -82q-41 -39 -111 -39zM273 266q-28 0 -48.5 20.5t-20.5 48.5t20.5 48.5t48.5 20.5q29 0 49 -20t20 -49t-20 -49t-49 -20z" />
    <glyph glyph-name="lslash.ss01" horiz-adv-x="313" 
d="M266 110q39 -28 47 -82q-41 -39 -111 -39q-62 0 -101 33t-39 100v148l-53 -27q-31 24 -34 68l87 45v301q32 5 57 5q26 0 56 -5v-242l51 26q28 -28 33 -69l-84 -43v-189q0 -51 47 -51q24 0 44 21z" />
    <glyph glyph-name="y.ss01" horiz-adv-x="560" 
d="M438 476q25 0 57 -5v-454q0 -99 -67 -157.5t-172 -58.5q-82 0 -130.5 32.5t-48.5 92.5q0 77 90 120q-108 38 -108 159v266q33 5 57 5q26 0 56 -5v-227q0 -62 24 -91t88 -29q60 0 98 24v323q32 5 56 5zM257 -111q59 0 92 33t33 85v33q-34 -10 -76 -15q-121 -17 -121 -80
q0 -56 72 -56z" />
    <glyph glyph-name="yacute.ss01" horiz-adv-x="560" 
d="M202 517q-25 17 -32 46l157 147q48 -26 65 -90zM438 476q25 0 57 -5v-454q0 -99 -67 -157.5t-172 -58.5q-82 0 -130.5 32.5t-48.5 92.5q0 77 90 120q-108 38 -108 159v266q33 5 57 5q26 0 56 -5v-227q0 -62 24 -91t88 -29q60 0 98 24v323q32 5 56 5zM257 -111q59 0 92 33
t33 85v33q-34 -10 -76 -15q-121 -17 -121 -80q0 -56 72 -56z" />
    <glyph glyph-name="ycircumflex.ss01" horiz-adv-x="560" 
d="M178 525q-36 13 -47 50l114 118q35 7 69 0l111 -114q-11 -39 -48 -55l-101 80zM438 476q25 0 57 -5v-454q0 -99 -67 -157.5t-172 -58.5q-82 0 -130.5 32.5t-48.5 92.5q0 77 90 120q-108 38 -108 159v266q33 5 57 5q26 0 56 -5v-227q0 -62 24 -91t88 -29q60 0 98 24v323
q32 5 56 5zM257 -111q59 0 92 33t33 85v33q-34 -10 -76 -15q-121 -17 -121 -80q0 -56 72 -56z" />
    <glyph glyph-name="ydieresis.ss01" horiz-adv-x="560" 
d="M176 545q-27 0 -46 18.5t-19 45.5q0 26 18.5 44.5t46.5 18.5q26 0 44.5 -18.5t18.5 -44.5q0 -27 -18.5 -45.5t-44.5 -18.5zM384 545q-26 0 -45 18.5t-19 45.5q0 26 18.5 44.5t45.5 18.5q26 0 45 -18.5t19 -44.5q0 -27 -19 -45.5t-45 -18.5zM438 476q25 0 57 -5v-454
q0 -99 -67 -157.5t-172 -58.5q-82 0 -130.5 32.5t-48.5 92.5q0 77 90 120q-108 38 -108 159v266q33 5 57 5q26 0 56 -5v-227q0 -62 24 -91t88 -29q60 0 98 24v323q32 5 56 5zM257 -111q59 0 92 33t33 85v33q-34 -10 -76 -15q-121 -17 -121 -80q0 -56 72 -56z" />
    <glyph glyph-name="ygrave.ss01" horiz-adv-x="560" 
d="M383 562q-9 -31 -32 -45l-190 103q15 63 65 90zM438 476q25 0 57 -5v-454q0 -99 -67 -157.5t-172 -58.5q-82 0 -130.5 32.5t-48.5 92.5q0 77 90 120q-108 38 -108 159v266q33 5 57 5q26 0 56 -5v-227q0 -62 24 -91t88 -29q60 0 98 24v323q32 5 56 5zM257 -111q59 0 92 33
t33 85v33q-34 -10 -76 -15q-121 -17 -121 -80q0 -56 72 -56z" />
    <glyph glyph-name="a.ss02" horiz-adv-x="522" 
d="M494 74q2 -59 -30 -89q-48 3 -73.5 18t-37.5 47h-7q-52 -66 -147 -66q-74 0 -121 39.5t-47 108.5q0 71 55 109.5t158 39.5h89v25q0 83 -103 83q-73 0 -129 -46q-41 25 -52 75q26 26 79 47.5t114 21.5q92 0 148 -46.5t56 -149.5v-164q0 -23 10.5 -34t37.5 -19zM223 70
q48 0 79 31t31 103h-83q-104 0 -104 -67q0 -32 20 -49.5t57 -17.5z" />
    <glyph glyph-name="aacute.ss02" horiz-adv-x="522" 
d="M157 517q-25 17 -32 46l157 147q48 -26 65 -90zM494 74q2 -59 -30 -89q-48 3 -73.5 18t-37.5 47h-7q-52 -66 -147 -66q-74 0 -121 39.5t-47 108.5q0 71 55 109.5t158 39.5h89v25q0 83 -103 83q-73 0 -129 -46q-41 25 -52 75q26 26 79 47.5t114 21.5q92 0 148 -46.5
t56 -149.5v-164q0 -23 10.5 -34t37.5 -19zM223 70q48 0 79 31t31 103h-83q-104 0 -104 -67q0 -32 20 -49.5t57 -17.5z" />
    <glyph glyph-name="abreve.ss02" horiz-adv-x="522" 
d="M235 529q-76 0 -116.5 44.5t-40.5 104.5q33 14 76 9q14 -77 83 -77q35 0 55 20.5t24 56.5q46 5 75 -9q0 -59 -40.5 -104t-115.5 -45zM494 74q2 -59 -30 -89q-48 3 -73.5 18t-37.5 47h-7q-52 -66 -147 -66q-74 0 -121 39.5t-47 108.5q0 71 55 109.5t158 39.5h89v25
q0 83 -103 83q-73 0 -129 -46q-41 25 -52 75q26 26 79 47.5t114 21.5q92 0 148 -46.5t56 -149.5v-164q0 -23 10.5 -34t37.5 -19zM223 70q48 0 79 31t31 103h-83q-104 0 -104 -67q0 -32 20 -49.5t57 -17.5z" />
    <glyph glyph-name="acircumflex.ss02" horiz-adv-x="522" 
d="M133 525q-36 13 -47 50l114 118q34 7 69 0l111 -114q-11 -39 -48 -55l-101 80zM494 74q2 -59 -30 -89q-48 3 -73.5 18t-37.5 47h-7q-52 -66 -147 -66q-74 0 -121 39.5t-47 108.5q0 71 55 109.5t158 39.5h89v25q0 83 -103 83q-73 0 -129 -46q-41 25 -52 75q26 26 79 47.5
t114 21.5q92 0 148 -46.5t56 -149.5v-164q0 -23 10.5 -34t37.5 -19zM223 70q48 0 79 31t31 103h-83q-104 0 -104 -67q0 -32 20 -49.5t57 -17.5z" />
    <glyph glyph-name="adieresis.ss02" horiz-adv-x="522" 
d="M131 545q-27 0 -46 18.5t-19 45.5q0 26 18.5 44.5t46.5 18.5q26 0 44.5 -18.5t18.5 -44.5q0 -27 -18.5 -45.5t-44.5 -18.5zM339 545q-26 0 -45 18.5t-19 45.5q0 26 18.5 44.5t45.5 18.5q26 0 45 -18.5t19 -44.5q0 -27 -19 -45.5t-45 -18.5zM494 74q2 -59 -30 -89
q-48 3 -73.5 18t-37.5 47h-7q-52 -66 -147 -66q-74 0 -121 39.5t-47 108.5q0 71 55 109.5t158 39.5h89v25q0 83 -103 83q-73 0 -129 -46q-41 25 -52 75q26 26 79 47.5t114 21.5q92 0 148 -46.5t56 -149.5v-164q0 -23 10.5 -34t37.5 -19zM223 70q48 0 79 31t31 103h-83
q-104 0 -104 -67q0 -32 20 -49.5t57 -17.5z" />
    <glyph glyph-name="agrave.ss02" horiz-adv-x="522" 
d="M337 562q-9 -31 -32 -45l-190 103q15 63 65 90zM494 74q2 -59 -30 -89q-48 3 -73.5 18t-37.5 47h-7q-52 -66 -147 -66q-74 0 -121 39.5t-47 108.5q0 71 55 109.5t158 39.5h89v25q0 83 -103 83q-73 0 -129 -46q-41 25 -52 75q26 26 79 47.5t114 21.5q92 0 148 -46.5
t56 -149.5v-164q0 -23 10.5 -34t37.5 -19zM223 70q48 0 79 31t31 103h-83q-104 0 -104 -67q0 -32 20 -49.5t57 -17.5z" />
    <glyph glyph-name="amacron.ss02" horiz-adv-x="522" 
d="M376 566h-283q-6 17 -6 43q0 28 6 45h283q5 -23 5 -44t-5 -44zM494 74q2 -59 -30 -89q-48 3 -73.5 18t-37.5 47h-7q-52 -66 -147 -66q-74 0 -121 39.5t-47 108.5q0 71 55 109.5t158 39.5h89v25q0 83 -103 83q-73 0 -129 -46q-41 25 -52 75q26 26 79 47.5t114 21.5
q92 0 148 -46.5t56 -149.5v-164q0 -23 10.5 -34t37.5 -19zM223 70q48 0 79 31t31 103h-83q-104 0 -104 -67q0 -32 20 -49.5t57 -17.5z" />
    <glyph glyph-name="aogonek.ss02" horiz-adv-x="522" 
d="M466 -97q40 -22 40 -63q-40 -42 -111 -42q-44 0 -73.5 25.5t-29.5 65.5q0 76 93 126q-18 11 -33 35h-4q-55 -66 -143 -66q-78 0 -126 39t-48 109q0 71 54.5 109.5t154.5 38.5l93 1v26q0 82 -103 82q-73 0 -129 -46q-40 25 -53 75q26 25 79 47t114 22q92 0 148.5 -46.5
t56.5 -149.5v-145q0 -27 11 -40t39 -17q3 -57 -23 -95q-46 -9 -68 -31t-22 -44q0 -35 37 -35q22 0 46 19zM222 70q20 0 37 5t35 18.5t28.5 41.5t10.5 69h-83q-57 -1 -81 -17.5t-24 -49.5q0 -31 20.5 -49t56.5 -18z" />
    <glyph glyph-name="aring.ss02" horiz-adv-x="522" 
d="M235 506q-45 0 -77 31.5t-32 76.5q0 44 32 75.5t77 31.5q44 0 75.5 -31.5t31.5 -75.5q0 -45 -31.5 -76.5t-75.5 -31.5zM234 657q-17 0 -29 -13t-12 -31q0 -17 12 -29.5t29 -12.5q18 0 30 12.5t12 29.5q0 18 -12 31t-30 13zM494 74q2 -59 -30 -89q-48 3 -73.5 18t-37.5 47
h-7q-52 -66 -147 -66q-74 0 -121 39.5t-47 108.5q0 71 55 109.5t158 39.5h89v25q0 83 -103 83q-73 0 -129 -46q-41 25 -52 75q26 26 79 47.5t114 21.5q92 0 148 -46.5t56 -149.5v-164q0 -23 10.5 -34t37.5 -19zM223 70q48 0 79 31t31 103h-83q-104 0 -104 -67
q0 -32 20 -49.5t57 -17.5z" />
    <glyph glyph-name="atilde.ss02" horiz-adv-x="522" 
d="M129 546q-21 0 -45 7.5t-35 20.5q10 50 42.5 79t76.5 29q28 -1 70 -20t56 -19q34 0 47 42q47 0 79 -27q-11 -49 -43 -77t-73 -28q-29 0 -71.5 19t-55.5 19q-35 0 -48 -45zM494 74q2 -59 -30 -89q-48 3 -73.5 18t-37.5 47h-7q-52 -66 -147 -66q-74 0 -121 39.5t-47 108.5
q0 71 55 109.5t158 39.5h89v25q0 83 -103 83q-73 0 -129 -46q-41 25 -52 75q26 26 79 47.5t114 21.5q92 0 148 -46.5t56 -149.5v-164q0 -23 10.5 -34t37.5 -19zM223 70q48 0 79 31t31 103h-83q-104 0 -104 -67q0 -32 20 -49.5t57 -17.5z" />
    <glyph glyph-name="e.ss02" horiz-adv-x="522" 
d="M431 132q38 -26 48 -78q-80 -69 -195 -69q-108 0 -177.5 67t-69.5 184q0 110 68 180.5t171 70.5q99 0 155 -62t59 -152l-329 -101q30 -93 132 -93q66 0 138 53zM274 393q-58 0 -89 -38.5t-33 -103.5l217 68q-2 25 -24.5 49.5t-70.5 24.5z" />
    <glyph glyph-name="eacute.ss02" horiz-adv-x="522" 
d="M186 517q-25 17 -32 46l157 147q48 -26 65 -90zM431 132q38 -26 48 -78q-80 -69 -195 -69q-108 0 -177.5 67t-69.5 184q0 110 68 180.5t171 70.5q99 0 155 -62t59 -152l-329 -101q30 -93 132 -93q66 0 138 53zM274 393q-58 0 -89 -38.5t-33 -103.5l217 68
q-2 25 -24.5 49.5t-70.5 24.5z" />
    <glyph glyph-name="ecaron.ss02" horiz-adv-x="522" 
d="M296 531q-34 -7 -69 0l-109 114q9 40 47 55l99 -79l101 79q35 -13 47 -51zM431 132q38 -26 48 -78q-80 -69 -195 -69q-108 0 -177.5 67t-69.5 184q0 110 68 180.5t171 70.5q99 0 155 -62t59 -152l-329 -101q30 -93 132 -93q66 0 138 53zM274 393q-58 0 -89 -38.5
t-33 -103.5l217 68q-2 25 -24.5 49.5t-70.5 24.5z" />
    <glyph glyph-name="ecircumflex.ss02" horiz-adv-x="522" 
d="M163 525q-36 13 -47 50l114 118q34 7 69 0l111 -114q-11 -39 -48 -55l-101 80zM431 132q38 -26 48 -78q-80 -69 -195 -69q-108 0 -177.5 67t-69.5 184q0 110 68 180.5t171 70.5q99 0 155 -62t59 -152l-329 -101q30 -93 132 -93q66 0 138 53zM274 393q-58 0 -89 -38.5
t-33 -103.5l217 68q-2 25 -24.5 49.5t-70.5 24.5z" />
    <glyph glyph-name="edieresis.ss02" horiz-adv-x="522" 
d="M160 545q-27 0 -46 18.5t-19 45.5q0 26 18.5 44.5t46.5 18.5q26 0 44.5 -18.5t18.5 -44.5q0 -27 -18.5 -45.5t-44.5 -18.5zM368 545q-26 0 -45 18.5t-19 45.5q0 26 18.5 44.5t45.5 18.5q26 0 45 -18.5t19 -44.5q0 -27 -19 -45.5t-45 -18.5zM431 132q38 -26 48 -78
q-80 -69 -195 -69q-108 0 -177.5 67t-69.5 184q0 110 68 180.5t171 70.5q99 0 155 -62t59 -152l-329 -101q30 -93 132 -93q66 0 138 53zM274 393q-58 0 -89 -38.5t-33 -103.5l217 68q-2 25 -24.5 49.5t-70.5 24.5z" />
    <glyph glyph-name="edotaccent.ss02" horiz-adv-x="522" 
d="M265 544q-31 0 -52.5 21t-21.5 51t21.5 51t52.5 21q29 0 50.5 -21t21.5 -51t-21.5 -51t-50.5 -21zM431 132q38 -26 48 -78q-80 -69 -195 -69q-108 0 -177.5 67t-69.5 184q0 110 68 180.5t171 70.5q99 0 155 -62t59 -152l-329 -101q30 -93 132 -93q66 0 138 53zM274 393
q-58 0 -89 -38.5t-33 -103.5l217 68q-2 25 -24.5 49.5t-70.5 24.5z" />
    <glyph glyph-name="egrave.ss02" horiz-adv-x="522" 
d="M367 562q-9 -31 -32 -45l-190 103q15 63 65 90zM431 132q38 -26 48 -78q-80 -69 -195 -69q-108 0 -177.5 67t-69.5 184q0 110 68 180.5t171 70.5q99 0 155 -62t59 -152l-329 -101q30 -93 132 -93q66 0 138 53zM274 393q-58 0 -89 -38.5t-33 -103.5l217 68
q-2 25 -24.5 49.5t-70.5 24.5z" />
    <glyph glyph-name="emacron.ss02" horiz-adv-x="522" 
d="M406 566h-283q-6 17 -6 43q0 28 6 45h283q5 -23 5 -44t-5 -44zM431 132q38 -26 48 -78q-80 -69 -195 -69q-108 0 -177.5 67t-69.5 184q0 110 68 180.5t171 70.5q99 0 155 -62t59 -152l-329 -101q30 -93 132 -93q66 0 138 53zM274 393q-58 0 -89 -38.5t-33 -103.5l217 68
q-2 25 -24.5 49.5t-70.5 24.5z" />
    <glyph glyph-name="eogonek.ss02" horiz-adv-x="522" 
d="M449 -94q37 -25 37 -65q-43 -41 -115 -41q-42 0 -70.5 23.5t-28.5 61.5q0 52 48 102q-24 -2 -36 -2q-108 0 -177.5 67t-69.5 184q0 110 68 180.5t171 70.5q99 0 155 -62t59 -152l-329 -101q30 -93 132 -93q66 0 138 53q38 -26 48 -78q-16 -14 -35 -25q-80 -65 -80 -110
q0 -33 35 -33q23 0 50 20zM274 393q-58 0 -89 -38.5t-33 -103.5l217 68q-2 25 -24.5 49.5t-70.5 24.5z" />
    <glyph glyph-name="g.ss02" horiz-adv-x="525" 
d="M517 485q-25 -58 -86 -83q31 -44 29 -104q-2 -74 -60.5 -120.5t-150.5 -46.5q-39 0 -74 8q-18 -18 -18 -35q0 -29 41 -29h127q149 0 149 -122q0 -73 -59 -115t-164 -42q-79 0 -133.5 17.5t-79.5 38.5q11 53 51 78q60 -47 162 -47q117 0 117 57q0 22 -16 32t-52 10h-101
q-139 0 -139 95q0 48 49 89q-66 45 -66 137q0 79 59 129t153 50h83q42 0 65 11.5t38 40.5q50 -13 76 -49zM353 303q2 51 -22 90h-75q-47 0 -74.5 -23.5t-27.5 -66.5q0 -85 95 -85q46 0 74.5 23t29.5 62z" />
    <glyph glyph-name="gbreve.ss02" horiz-adv-x="525" 
d="M255 529q-76 0 -116.5 44.5t-40.5 104.5q33 14 76 9q14 -77 83 -77q35 0 55 20.5t24 56.5q46 5 75 -9q0 -59 -40.5 -104t-115.5 -45zM517 485q-25 -58 -86 -83q31 -44 29 -104q-2 -74 -60.5 -120.5t-150.5 -46.5q-39 0 -74 8q-18 -18 -18 -35q0 -29 41 -29h127
q149 0 149 -122q0 -73 -59 -115t-164 -42q-79 0 -133.5 17.5t-79.5 38.5q11 53 51 78q60 -47 162 -47q117 0 117 57q0 22 -16 32t-52 10h-101q-139 0 -139 95q0 48 49 89q-66 45 -66 137q0 79 59 129t153 50h83q42 0 65 11.5t38 40.5q50 -13 76 -49zM353 303q2 51 -22 90
h-75q-47 0 -74.5 -23.5t-27.5 -66.5q0 -85 95 -85q46 0 74.5 23t29.5 62z" />
    <glyph glyph-name="gcommaaccent.ss02" horiz-adv-x="525" 
d="M248 508q-26 0 -46 9q-3 19 -3 37q0 43 21 81t59 61q28 -4 40 -30q-28 -36 -28 -91q0 -29 10 -57q-22 -10 -53 -10zM517 485q-25 -58 -86 -83q31 -44 29 -104q-2 -74 -60.5 -120.5t-150.5 -46.5q-39 0 -74 8q-18 -18 -18 -35q0 -29 41 -29h127q149 0 149 -122
q0 -73 -59 -115t-164 -42q-79 0 -133.5 17.5t-79.5 38.5q11 53 51 78q60 -47 162 -47q117 0 117 57q0 22 -16 32t-52 10h-101q-139 0 -139 95q0 48 49 89q-66 45 -66 137q0 79 59 129t153 50h83q42 0 65 11.5t38 40.5q50 -13 76 -49zM353 303q2 51 -22 90h-75
q-47 0 -74.5 -23.5t-27.5 -66.5q0 -85 95 -85q46 0 74.5 23t29.5 62z" />
    <glyph glyph-name="gdotaccent.ss02" horiz-adv-x="525" 
d="M255 544q-31 0 -52.5 21t-21.5 51t21.5 51t52.5 21q29 0 50.5 -21t21.5 -51t-21.5 -51t-50.5 -21zM517 485q-25 -58 -86 -83q31 -44 29 -104q-2 -74 -60.5 -120.5t-150.5 -46.5q-39 0 -74 8q-18 -18 -18 -35q0 -29 41 -29h127q149 0 149 -122q0 -73 -59 -115t-164 -42
q-79 0 -133.5 17.5t-79.5 38.5q11 53 51 78q60 -47 162 -47q117 0 117 57q0 22 -16 32t-52 10h-101q-139 0 -139 95q0 48 49 89q-66 45 -66 137q0 79 59 129t153 50h83q42 0 65 11.5t38 40.5q50 -13 76 -49zM353 303q2 51 -22 90h-75q-47 0 -74.5 -23.5t-27.5 -66.5
q0 -85 95 -85q46 0 74.5 23t29.5 62z" />
    <glyph glyph-name="w.ss02" horiz-adv-x="751" 
d="M657 476q38 0 70 -10q-53 -282 -157 -466q-21 -5 -52 -5q-32 0 -55 5q-59 115 -88 274q-33 -163 -91 -274q-21 -5 -54 -5q-31 0 -52 5q-109 198 -153 466q30 10 70 10q18 0 46 -4q36 -237 92 -361q1 -2 2 -6.5t2 -7.5l5 14q51 137 79 352q24 4 53 4q30 0 56 -4
q30 -224 84 -352l6 -17q1 3 3 8.5t3 8.5q46 102 87 361q28 4 44 4z" />
    <glyph glyph-name="wacute.ss02" horiz-adv-x="751" 
d="M298 517q-25 17 -32 46l157 147q48 -26 65 -90zM657 476q38 0 70 -10q-53 -282 -157 -466q-21 -5 -52 -5q-32 0 -55 5q-59 115 -88 274q-33 -163 -91 -274q-21 -5 -54 -5q-31 0 -52 5q-109 198 -153 466q30 10 70 10q18 0 46 -4q36 -237 92 -361q1 -2 2 -6.5t2 -7.5l5 14
q51 137 79 352q24 4 53 4q30 0 56 -4q30 -224 84 -352l6 -17q1 3 3 8.5t3 8.5q46 102 87 361q28 4 44 4z" />
    <glyph glyph-name="wcircumflex.ss02" horiz-adv-x="751" 
d="M274 525q-36 13 -47 50l114 118q35 7 69 0l111 -114q-11 -39 -48 -55l-101 80zM657 476q38 0 70 -10q-53 -282 -157 -466q-21 -5 -52 -5q-32 0 -55 5q-59 115 -88 274q-33 -163 -91 -274q-21 -5 -54 -5q-31 0 -52 5q-109 198 -153 466q30 10 70 10q18 0 46 -4
q36 -237 92 -361q1 -2 2 -6.5t2 -7.5l5 14q51 137 79 352q24 4 53 4q30 0 56 -4q30 -224 84 -352l6 -17q1 3 3 8.5t3 8.5q46 102 87 361q28 4 44 4z" />
    <glyph glyph-name="wdieresis.ss02" horiz-adv-x="751" 
d="M272 545q-27 0 -46 18.5t-19 45.5q0 26 18.5 44.5t46.5 18.5q26 0 44.5 -18.5t18.5 -44.5q0 -27 -18.5 -45.5t-44.5 -18.5zM480 545q-26 0 -45 18.5t-19 45.5q0 26 18.5 44.5t45.5 18.5q26 0 45 -18.5t19 -44.5q0 -27 -19 -45.5t-45 -18.5zM657 476q38 0 70 -10
q-53 -282 -157 -466q-21 -5 -52 -5q-32 0 -55 5q-59 115 -88 274q-33 -163 -91 -274q-21 -5 -54 -5q-31 0 -52 5q-109 198 -153 466q30 10 70 10q18 0 46 -4q36 -237 92 -361q1 -2 2 -6.5t2 -7.5l5 14q51 137 79 352q24 4 53 4q30 0 56 -4q30 -224 84 -352l6 -17q1 3 3 8.5
t3 8.5q46 102 87 361q28 4 44 4z" />
    <glyph glyph-name="wgrave.ss02" horiz-adv-x="751" 
d="M478 562q-9 -31 -32 -45l-190 103q15 63 65 90zM657 476q38 0 70 -10q-53 -282 -157 -466q-21 -5 -52 -5q-32 0 -55 5q-59 115 -88 274q-33 -163 -91 -274q-21 -5 -54 -5q-31 0 -52 5q-109 198 -153 466q30 10 70 10q18 0 46 -4q36 -237 92 -361q1 -2 2 -6.5t2 -7.5l5 14
q51 137 79 352q24 4 53 4q30 0 56 -4q30 -224 84 -352l6 -17q1 3 3 8.5t3 8.5q46 102 87 361q28 4 44 4z" />
    <glyph glyph-name="y.ss02" horiz-adv-x="560" 
d="M438 476q25 0 57 -5v-451q0 -101 -65 -160t-171 -59q-139 0 -212 80q11 53 66 74q55 -60 142 -60q64 0 95.5 30.5t31.5 81.5v32q-56 -23 -116 -23q-102 0 -154.5 51t-52.5 137v267q33 5 57 5q26 0 56 -5v-234q0 -62 24 -91t88 -29q58 0 98 25v329q32 5 56 5z" />
    <glyph glyph-name="yacute.ss02" horiz-adv-x="560" 
d="M202 517q-25 17 -32 46l157 147q48 -26 65 -90zM438 476q25 0 57 -5v-451q0 -101 -65 -160t-171 -59q-139 0 -212 80q11 53 66 74q55 -60 142 -60q64 0 95.5 30.5t31.5 81.5v32q-56 -23 -116 -23q-102 0 -154.5 51t-52.5 137v267q33 5 57 5q26 0 56 -5v-234q0 -62 24 -91
t88 -29q58 0 98 25v329q32 5 56 5z" />
    <glyph glyph-name="ycircumflex.ss02" horiz-adv-x="560" 
d="M178 525q-36 13 -47 50l114 118q35 7 69 0l111 -114q-11 -39 -48 -55l-101 80zM438 476q25 0 57 -5v-451q0 -101 -65 -160t-171 -59q-139 0 -212 80q11 53 66 74q55 -60 142 -60q64 0 95.5 30.5t31.5 81.5v32q-56 -23 -116 -23q-102 0 -154.5 51t-52.5 137v267q33 5 57 5
q26 0 56 -5v-234q0 -62 24 -91t88 -29q58 0 98 25v329q32 5 56 5z" />
    <glyph glyph-name="ydieresis.ss02" horiz-adv-x="560" 
d="M176 545q-27 0 -46 18.5t-19 45.5q0 26 18.5 44.5t46.5 18.5q26 0 44.5 -18.5t18.5 -44.5q0 -27 -18.5 -45.5t-44.5 -18.5zM384 545q-26 0 -45 18.5t-19 45.5q0 26 18.5 44.5t45.5 18.5q26 0 45 -18.5t19 -44.5q0 -27 -19 -45.5t-45 -18.5zM438 476q25 0 57 -5v-451
q0 -101 -65 -160t-171 -59q-139 0 -212 80q11 53 66 74q55 -60 142 -60q64 0 95.5 30.5t31.5 81.5v32q-56 -23 -116 -23q-102 0 -154.5 51t-52.5 137v267q33 5 57 5q26 0 56 -5v-234q0 -62 24 -91t88 -29q58 0 98 25v329q32 5 56 5z" />
    <glyph glyph-name="ygrave.ss02" horiz-adv-x="560" 
d="M382 562q-9 -31 -32 -45l-190 103q15 63 65 90zM438 476q25 0 57 -5v-451q0 -101 -65 -160t-171 -59q-139 0 -212 80q11 53 66 74q55 -60 142 -60q64 0 95.5 30.5t31.5 81.5v32q-56 -23 -116 -23q-102 0 -154.5 51t-52.5 137v267q33 5 57 5q26 0 56 -5v-234q0 -62 24 -91
t88 -29q58 0 98 25v329q32 5 56 5z" />
    <glyph glyph-name="a.ss03" horiz-adv-x="513" 
d="M242 487q99 0 158.5 -46.5t59.5 -149.5v-259q-99 -47 -219 -47q-100 0 -155 38.5t-55 113.5q0 67 51.5 104.5t139.5 36.5h125v20q0 90 -113 90q-73 0 -133 -45q-41 25 -52 75q27 26 79 47.5t114 21.5zM146 140q0 -67 103 -67q52 0 98 16v110h-118q-83 0 -83 -59z" />
    <glyph glyph-name="aacute.ss03" horiz-adv-x="513" 
d="M172 517q-25 17 -32 46l157 147q48 -26 65 -90zM242 487q99 0 158.5 -46.5t59.5 -149.5v-259q-99 -47 -219 -47q-100 0 -155 38.5t-55 113.5q0 67 51.5 104.5t139.5 36.5h125v20q0 90 -113 90q-73 0 -133 -45q-41 25 -52 75q27 26 79 47.5t114 21.5zM146 140
q0 -67 103 -67q52 0 98 16v110h-118q-83 0 -83 -59z" />
    <glyph glyph-name="abreve.ss03" horiz-adv-x="513" 
d="M251 529q-76 0 -116.5 44.5t-40.5 104.5q33 14 76 9q14 -77 83 -77q35 0 55 20.5t24 56.5q46 5 75 -9q0 -59 -40.5 -104t-115.5 -45zM242 487q99 0 158.5 -46.5t59.5 -149.5v-259q-99 -47 -219 -47q-100 0 -155 38.5t-55 113.5q0 67 51.5 104.5t139.5 36.5h125v20
q0 90 -113 90q-73 0 -133 -45q-41 25 -52 75q27 26 79 47.5t114 21.5zM146 140q0 -67 103 -67q52 0 98 16v110h-118q-83 0 -83 -59z" />
    <glyph glyph-name="acircumflex.ss03" horiz-adv-x="513" 
d="M149 525q-36 13 -47 50l114 118q34 7 69 0l111 -114q-11 -39 -48 -55l-101 80zM242 487q99 0 158.5 -46.5t59.5 -149.5v-259q-99 -47 -219 -47q-100 0 -155 38.5t-55 113.5q0 67 51.5 104.5t139.5 36.5h125v20q0 90 -113 90q-73 0 -133 -45q-41 25 -52 75q27 26 79 47.5
t114 21.5zM146 140q0 -67 103 -67q52 0 98 16v110h-118q-83 0 -83 -59z" />
    <glyph glyph-name="adieresis.ss03" horiz-adv-x="513" 
d="M146 545q-27 0 -46 18.5t-19 45.5q0 26 18.5 44.5t46.5 18.5q26 0 44.5 -18.5t18.5 -44.5q0 -27 -18.5 -45.5t-44.5 -18.5zM354 545q-26 0 -45 18.5t-19 45.5q0 26 18.5 44.5t45.5 18.5q26 0 45 -18.5t19 -44.5q0 -27 -19 -45.5t-45 -18.5zM242 487q99 0 158.5 -46.5
t59.5 -149.5v-259q-99 -47 -219 -47q-100 0 -155 38.5t-55 113.5q0 67 51.5 104.5t139.5 36.5h125v20q0 90 -113 90q-73 0 -133 -45q-41 25 -52 75q27 26 79 47.5t114 21.5zM146 140q0 -67 103 -67q52 0 98 16v110h-118q-83 0 -83 -59z" />
    <glyph glyph-name="agrave.ss03" horiz-adv-x="513" 
d="M353 562q-9 -31 -32 -45l-190 103q15 63 65 90zM242 487q99 0 158.5 -46.5t59.5 -149.5v-259q-99 -47 -219 -47q-100 0 -155 38.5t-55 113.5q0 67 51.5 104.5t139.5 36.5h125v20q0 90 -113 90q-73 0 -133 -45q-41 25 -52 75q27 26 79 47.5t114 21.5zM146 140
q0 -67 103 -67q52 0 98 16v110h-118q-83 0 -83 -59z" />
    <glyph glyph-name="amacron.ss03" horiz-adv-x="513" 
d="M392 566h-283q-6 17 -6 43q0 28 6 45h283q5 -23 5 -44t-5 -44zM242 487q99 0 158.5 -46.5t59.5 -149.5v-259q-99 -47 -219 -47q-100 0 -155 38.5t-55 113.5q0 67 51.5 104.5t139.5 36.5h125v20q0 90 -113 90q-73 0 -133 -45q-41 25 -52 75q27 26 79 47.5t114 21.5z
M146 140q0 -67 103 -67q52 0 98 16v110h-118q-83 0 -83 -59z" />
    <glyph glyph-name="aogonek.ss03" horiz-adv-x="513" 
d="M461 -94q37 -25 37 -65q-43 -41 -115 -41q-42 0 -70.5 23.5t-28.5 61.5q0 55 54 109q-47 -9 -97 -9q-100 0 -155 38.5t-55 113.5q0 67 51.5 104.5t139.5 36.5h125v20q0 90 -113 90q-73 0 -133 -45q-41 25 -52 75q27 26 79 47.5t114 21.5q99 0 158.5 -46.5t59.5 -149.5
v-259q-36 -28 -60 -59t-24 -54q0 -33 35 -33q23 0 50 20zM146 140q0 -67 103 -67q52 0 98 16v110h-118q-83 0 -83 -59z" />
    <glyph glyph-name="aring.ss03" horiz-adv-x="513" 
d="M251 506q-45 0 -77 31.5t-32 76.5q0 44 32 75.5t77 31.5q44 0 75.5 -31.5t31.5 -75.5q0 -45 -31.5 -76.5t-75.5 -31.5zM250 657q-17 0 -29 -13t-12 -31q0 -17 12 -29.5t29 -12.5q18 0 30 12.5t12 29.5q0 18 -12 31t-30 13zM242 487q99 0 158.5 -46.5t59.5 -149.5v-259
q-99 -47 -219 -47q-100 0 -155 38.5t-55 113.5q0 67 51.5 104.5t139.5 36.5h125v20q0 90 -113 90q-73 0 -133 -45q-41 25 -52 75q27 26 79 47.5t114 21.5zM146 140q0 -67 103 -67q52 0 98 16v110h-118q-83 0 -83 -59z" />
    <glyph glyph-name="atilde.ss03" horiz-adv-x="513" 
d="M145 546q-21 0 -45 7.5t-35 20.5q10 50 42.5 79t76.5 29q28 -1 70 -20t56 -19q34 0 47 42q47 0 79 -27q-11 -49 -43 -77t-73 -28q-29 0 -71.5 19t-55.5 19q-35 0 -48 -45zM242 487q99 0 158.5 -46.5t59.5 -149.5v-259q-99 -47 -219 -47q-100 0 -155 38.5t-55 113.5
q0 67 51.5 104.5t139.5 36.5h125v20q0 90 -113 90q-73 0 -133 -45q-41 25 -52 75q27 26 79 47.5t114 21.5zM146 140q0 -67 103 -67q52 0 98 16v110h-118q-83 0 -83 -59z" />
    <glyph glyph-name="e.ss03" horiz-adv-x="518" 
d="M479 332q0 -131 -166 -131l-159 -1q7 -56 41.5 -87.5t93.5 -31.5q34 0 63 8t42 15.5t34 22.5q42 -29 49 -77q-82 -65 -199 -65q-109 0 -175 65.5t-66 183.5q0 111 71.5 182t177.5 71q88 0 141 -44.5t52 -110.5zM154 279h149q62 0 62 54q0 28 -23 44.5t-59 16.5
q-54 0 -88.5 -32.5t-40.5 -82.5z" />
    <glyph glyph-name="eacute.ss03" horiz-adv-x="518" 
d="M187 517q-25 17 -32 46l157 147q48 -26 65 -90zM479 332q0 -131 -166 -131l-159 -1q7 -56 41.5 -87.5t93.5 -31.5q34 0 63 8t42 15.5t34 22.5q42 -29 49 -77q-82 -65 -199 -65q-109 0 -175 65.5t-66 183.5q0 111 71.5 182t177.5 71q88 0 141 -44.5t52 -110.5zM154 279
h149q62 0 62 54q0 28 -23 44.5t-59 16.5q-54 0 -88.5 -32.5t-40.5 -82.5z" />
    <glyph glyph-name="ecaron.ss03" horiz-adv-x="518" 
d="M297 531q-35 -7 -69 0l-109 114q9 40 47 55l99 -79l101 79q35 -13 47 -51zM479 332q0 -131 -166 -131l-159 -1q7 -56 41.5 -87.5t93.5 -31.5q34 0 63 8t42 15.5t34 22.5q42 -29 49 -77q-82 -65 -199 -65q-109 0 -175 65.5t-66 183.5q0 111 71.5 182t177.5 71
q88 0 141 -44.5t52 -110.5zM154 279h149q62 0 62 54q0 28 -23 44.5t-59 16.5q-54 0 -88.5 -32.5t-40.5 -82.5z" />
    <glyph glyph-name="ecircumflex.ss03" horiz-adv-x="518" 
d="M164 525q-36 13 -47 50l114 118q35 7 69 0l111 -114q-11 -39 -48 -55l-101 80zM479 332q0 -131 -166 -131l-159 -1q7 -56 41.5 -87.5t93.5 -31.5q34 0 63 8t42 15.5t34 22.5q42 -29 49 -77q-82 -65 -199 -65q-109 0 -175 65.5t-66 183.5q0 111 71.5 182t177.5 71
q88 0 141 -44.5t52 -110.5zM154 279h149q62 0 62 54q0 28 -23 44.5t-59 16.5q-54 0 -88.5 -32.5t-40.5 -82.5z" />
    <glyph glyph-name="edieresis.ss03" horiz-adv-x="518" 
d="M161 545q-27 0 -46 18.5t-19 45.5q0 26 18.5 44.5t46.5 18.5q26 0 44.5 -18.5t18.5 -44.5q0 -27 -18.5 -45.5t-44.5 -18.5zM369 545q-26 0 -45 18.5t-19 45.5q0 26 18.5 44.5t45.5 18.5q26 0 45 -18.5t19 -44.5q0 -27 -19 -45.5t-45 -18.5zM479 332q0 -131 -166 -131
l-159 -1q7 -56 41.5 -87.5t93.5 -31.5q34 0 63 8t42 15.5t34 22.5q42 -29 49 -77q-82 -65 -199 -65q-109 0 -175 65.5t-66 183.5q0 111 71.5 182t177.5 71q88 0 141 -44.5t52 -110.5zM154 279h149q62 0 62 54q0 28 -23 44.5t-59 16.5q-54 0 -88.5 -32.5t-40.5 -82.5z" />
    <glyph glyph-name="edotaccent.ss03" horiz-adv-x="518" 
d="M265 544q-31 0 -52.5 21t-21.5 51t21.5 51t52.5 21q29 0 50.5 -21t21.5 -51t-21.5 -51t-50.5 -21zM479 332q0 -131 -166 -131l-159 -1q7 -56 41.5 -87.5t93.5 -31.5q34 0 63 8t42 15.5t34 22.5q42 -29 49 -77q-82 -65 -199 -65q-109 0 -175 65.5t-66 183.5
q0 111 71.5 182t177.5 71q88 0 141 -44.5t52 -110.5zM154 279h149q62 0 62 54q0 28 -23 44.5t-59 16.5q-54 0 -88.5 -32.5t-40.5 -82.5z" />
    <glyph glyph-name="egrave.ss03" horiz-adv-x="518" 
d="M368 562q-9 -31 -32 -45l-190 103q15 63 65 90zM479 332q0 -131 -166 -131l-159 -1q7 -56 41.5 -87.5t93.5 -31.5q34 0 63 8t42 15.5t34 22.5q42 -29 49 -77q-82 -65 -199 -65q-109 0 -175 65.5t-66 183.5q0 111 71.5 182t177.5 71q88 0 141 -44.5t52 -110.5zM154 279
h149q62 0 62 54q0 28 -23 44.5t-59 16.5q-54 0 -88.5 -32.5t-40.5 -82.5z" />
    <glyph glyph-name="emacron.ss03" horiz-adv-x="518" 
d="M407 566h-283q-6 17 -6 43q0 28 6 45h283q5 -23 5 -44t-5 -44zM479 332q0 -131 -166 -131l-159 -1q7 -56 41.5 -87.5t93.5 -31.5q34 0 63 8t42 15.5t34 22.5q42 -29 49 -77q-82 -65 -199 -65q-109 0 -175 65.5t-66 183.5q0 111 71.5 182t177.5 71q88 0 141 -44.5
t52 -110.5zM154 279h149q62 0 62 54q0 28 -23 44.5t-59 16.5q-54 0 -88.5 -32.5t-40.5 -82.5z" />
    <glyph glyph-name="eogonek.ss03" horiz-adv-x="518" 
d="M452 -94q37 -25 37 -65q-43 -41 -115 -41q-42 0 -70.5 23.5t-28.5 61.5q0 50 48 102q-28 -2 -45 -2q-109 0 -175 65.5t-66 183.5q0 111 71.5 182t177.5 71q88 0 141 -44.5t52 -110.5q0 -131 -166 -131l-159 -1q7 -56 41.5 -87.5t93.5 -31.5q34 0 63 8t42 15.5t34 22.5
q42 -29 49 -77q-20 -16 -31 -22q-79 -62 -79 -109q0 -33 35 -33q23 0 50 20zM283 394q-54 0 -88.5 -32.5t-40.5 -82.5h149q62 0 62 54q0 28 -23 44.5t-59 16.5z" />
    <glyph glyph-name="g.ss03" horiz-adv-x="542" 
d="M530 488q-26 -65 -94 -90q37 -52 34 -119q0 -66 -43 -122q62 -57 62 -143q0 -96 -66 -155t-170 -59q-73 0 -129 28t-89 74q20 54 73 72q57 -77 144 -77q62 0 94 32.5t32 83.5q0 48 -34 80q-46 -18 -93 -18q-103 0 -161 56.5t-58 148.5q0 91 67 148.5t163 57.5h77
q45 0 69 10.5t40 45.5q54 -12 82 -54zM142 282q-1 -52 28.5 -81.5t80.5 -29.5q49 0 79 32t31 77q0 48 -29 109h-74q-50 0 -82 -27t-34 -80z" />
    <glyph glyph-name="gbreve.ss03" horiz-adv-x="542" 
d="M261 529q-76 0 -116.5 44.5t-40.5 104.5q33 14 76 9q14 -77 83 -77q35 0 55 20.5t24 56.5q46 5 75 -9q0 -59 -40.5 -104t-115.5 -45zM530 488q-26 -65 -94 -90q37 -52 34 -119q0 -66 -43 -122q62 -57 62 -143q0 -96 -66 -155t-170 -59q-73 0 -129 28t-89 74q20 54 73 72
q57 -77 144 -77q62 0 94 32.5t32 83.5q0 48 -34 80q-46 -18 -93 -18q-103 0 -161 56.5t-58 148.5q0 91 67 148.5t163 57.5h77q45 0 69 10.5t40 45.5q54 -12 82 -54zM142 282q-1 -52 28.5 -81.5t80.5 -29.5q49 0 79 32t31 77q0 48 -29 109h-74q-50 0 -82 -27t-34 -80z" />
    <glyph glyph-name="gcommaaccent.ss03" horiz-adv-x="542" 
d="M255 508q-27 0 -46 9q-3 19 -3 37q0 43 21 81t59 61q28 -4 40 -30q-28 -36 -28 -91q0 -29 10 -57q-22 -10 -53 -10zM530 488q-26 -65 -94 -90q37 -52 34 -119q0 -66 -43 -122q62 -57 62 -143q0 -96 -66 -155t-170 -59q-73 0 -129 28t-89 74q20 54 73 72q57 -77 144 -77
q62 0 94 32.5t32 83.5q0 48 -34 80q-46 -18 -93 -18q-103 0 -161 56.5t-58 148.5q0 91 67 148.5t163 57.5h77q45 0 69 10.5t40 45.5q54 -12 82 -54zM142 282q-1 -52 28.5 -81.5t80.5 -29.5q49 0 79 32t31 77q0 48 -29 109h-74q-50 0 -82 -27t-34 -80z" />
    <glyph glyph-name="gdotaccent.ss03" horiz-adv-x="542" 
d="M261 544q-31 0 -52.5 21t-21.5 51t21.5 51t52.5 21q29 0 50.5 -21t21.5 -51t-21.5 -51t-50.5 -21zM530 488q-26 -65 -94 -90q37 -52 34 -119q0 -66 -43 -122q62 -57 62 -143q0 -96 -66 -155t-170 -59q-73 0 -129 28t-89 74q20 54 73 72q57 -77 144 -77q62 0 94 32.5
t32 83.5q0 48 -34 80q-46 -18 -93 -18q-103 0 -161 56.5t-58 148.5q0 91 67 148.5t163 57.5h77q45 0 69 10.5t40 45.5q54 -12 82 -54zM142 282q-1 -52 28.5 -81.5t80.5 -29.5q49 0 79 32t31 77q0 48 -29 109h-74q-50 0 -82 -27t-34 -80z" />
    <glyph glyph-name="g.ss04" horiz-adv-x="535" 
d="M529 474q-25 -58 -90 -85q25 -43 24 -102q-1 -75 -59 -128t-149 -53h-54q-21 0 -33.5 -12t-12.5 -31q0 -18 12.5 -29.5t33.5 -11.5h261q7 -24 7 -51q0 -26 -7 -50h-257q-158 0 -158 125q0 70 64 108q-60 49 -60 135q0 85 60.5 139t155.5 52l74 -2q44 -1 68 10t39 42
q56 -16 81 -56zM353 289q2 51 -17 91l-72 1q-103 2 -103 -91q0 -87 94 -87q46 0 71 22.5t27 63.5z" />
    <glyph glyph-name="gbreve.ss04" horiz-adv-x="535" 
d="M263 529q-76 0 -116.5 44.5t-40.5 104.5q33 14 76 9q14 -77 83 -77q35 0 55 20.5t24 56.5q46 5 75 -9q0 -59 -40.5 -104t-115.5 -45zM529 474q-25 -58 -90 -85q25 -43 24 -102q-1 -75 -59 -128t-149 -53h-54q-21 0 -33.5 -12t-12.5 -31q0 -18 12.5 -29.5t33.5 -11.5h261
q7 -24 7 -51q0 -26 -7 -50h-257q-158 0 -158 125q0 70 64 108q-60 49 -60 135q0 85 60.5 139t155.5 52l74 -2q44 -1 68 10t39 42q56 -16 81 -56zM353 289q2 51 -17 91l-72 1q-103 2 -103 -91q0 -87 94 -87q46 0 71 22.5t27 63.5z" />
    <glyph glyph-name="gcommaaccent.ss04" horiz-adv-x="535" 
d="M256 508q-26 0 -46 9q-3 19 -3 37q0 43 21 81t59 61q28 -4 40 -30q-28 -36 -28 -91q0 -29 10 -57q-22 -10 -53 -10zM529 474q-25 -58 -90 -85q25 -43 24 -102q-1 -75 -59 -128t-149 -53h-54q-21 0 -33.5 -12t-12.5 -31q0 -18 12.5 -29.5t33.5 -11.5h261q7 -24 7 -51
q0 -26 -7 -50h-257q-158 0 -158 125q0 70 64 108q-60 49 -60 135q0 85 60.5 139t155.5 52l74 -2q44 -1 68 10t39 42q56 -16 81 -56zM353 289q2 51 -17 91l-72 1q-103 2 -103 -91q0 -87 94 -87q46 0 71 22.5t27 63.5z" />
    <glyph glyph-name="gdotaccent.ss04" horiz-adv-x="535" 
d="M262 544q-31 0 -52.5 21t-21.5 51t21.5 51t52.5 21q29 0 50.5 -21t21.5 -51t-21.5 -51t-50.5 -21zM529 474q-25 -58 -90 -85q25 -43 24 -102q-1 -75 -59 -128t-149 -53h-54q-21 0 -33.5 -12t-12.5 -31q0 -18 12.5 -29.5t33.5 -11.5h261q7 -24 7 -51q0 -26 -7 -50h-257
q-158 0 -158 125q0 70 64 108q-60 49 -60 135q0 85 60.5 139t155.5 52l74 -2q44 -1 68 10t39 42q56 -16 81 -56zM353 289q2 51 -17 91l-72 1q-103 2 -103 -91q0 -87 94 -87q46 0 71 22.5t27 63.5z" />
    <glyph glyph-name="zero.osf" horiz-adv-x="615" 
d="M308 -16q-125 0 -194.5 78.5t-69.5 204.5t69.5 204.5t194.5 78.5t194 -79t69 -204q0 -126 -69.5 -204.5t-193.5 -78.5zM308 85q73 0 108.5 49t35.5 133q0 82 -35.5 130.5t-108.5 48.5t-108.5 -48.5t-35.5 -130.5q0 -84 35.5 -133t108.5 -49z" />
    <glyph glyph-name="one.osf" horiz-adv-x="344" 
d="M224 546q21 0 41 -5v-541q-23 -5 -57 -5q-32 0 -56 5v407l-94 -44q-40 36 -43 96l167 82q20 5 42 5z" />
    <glyph glyph-name="two.osf" horiz-adv-x="509" 
d="M468 101q7 -20 7 -50q0 -28 -7 -51h-416q-5 17 -5 35q0 55 70 107q133 103 170.5 143.5t37.5 85.5q0 32 -24.5 53t-66.5 21q-66 0 -131 -61q-50 14 -71 70q34 41 88 69t115 28q91 0 148.5 -46.5t57.5 -129.5q0 -42 -13 -76t-43.5 -67t-58.5 -55t-81 -60l-35 -20l38 4h220
z" />
    <glyph glyph-name="three.osf" horiz-adv-x="494" 
d="M349 253q104 -42 104 -161q0 -88 -67 -138.5t-161 -50.5q-127 0 -198 69q11 57 60 83q34 -29 64 -42t71 -13q51 0 82 25.5t31 72.5q0 49 -34 74t-112 25q-7 20 -7 45q0 26 8 43q120 0 120 89q0 34 -23.5 55t-62.5 21q-68 0 -121 -49q-48 17 -63 65q64 84 190 84
q84 0 138 -43.5t54 -117.5q0 -88 -73 -136z" />
    <glyph glyph-name="four.osf" horiz-adv-x="557" 
d="M528 83q0 -24 -5 -52h-84v-125q-24 -4 -53 -4q-30 0 -54 4v125h-302q-9 20 -9 43q0 37 24 70l282 391q28 5 59 5q28 0 53 -5v-406h85q4 -30 4 -46zM151 129h181v230l1 28l-17 -27z" />
    <glyph glyph-name="five.osf" horiz-adv-x="509" 
d="M233 -97q-120 0 -191 64q14 58 58 87q53 -50 134 -50q59 0 90 28t31 79q0 54 -39 78t-142 24h-110v323h373q5 -32 5 -56q0 -27 -4 -48h-268v-117h19q148 0 214 -48t66 -149t-63.5 -158t-172.5 -57z" />
    <glyph glyph-name="six.osf" horiz-adv-x="531" 
d="M298 397q91 0 145.5 -53t54.5 -147q0 -97 -63 -155t-164 -58q-108 0 -169.5 66.5t-61.5 185.5q0 160 107.5 275t266.5 153q38 -25 38 -98q-223 -58 -279 -209q57 40 125 40zM274 81q53 0 84.5 28.5t31.5 83.5q0 56 -34 81.5t-83 25.5q-65 0 -120 -44q-1 -8 -1 -24
q0 -71 34.5 -111t87.5 -40z" />
    <glyph glyph-name="seven.osf" horiz-adv-x="487" 
d="M460 535q5 -15 5 -34q0 -51 -21 -91l-269 -523q-66 9 -96 48l260 495h-308q-5 28 -5 53q0 22 5 52h429z" />
    <glyph glyph-name="eight.osf" horiz-adv-x="523" 
d="M361 339q56 -33 86.5 -72t30.5 -95q0 -65 -33 -109.5t-80.5 -62.5t-104.5 -18q-93 0 -154.5 39.5t-61.5 124.5q0 104 116 179q-104 67 -104 162q-1 78 57 128t151 50q91 0 145.5 -44t54.5 -122q0 -99 -103 -160zM261 573q-45 0 -71 -21t-26 -55q0 -38 26.5 -62t80.5 -51
q1 0 1 -0.5t1 -0.5q43 24 63.5 48t20.5 60q0 38 -26.5 60t-69.5 22zM261 72q47 0 77 20t30 61q0 45 -28 69.5t-90 54.5q-2 1 -5 2t-4 2q-85 -50 -85 -123q0 -42 30.5 -64t74.5 -22z" />
    <glyph glyph-name="nine.osf" horiz-adv-x="525" 
d="M250 550q110 0 170.5 -75t60.5 -205q0 -358 -375 -367q-14 28 -14 62q0 18 3 36q45 2 78 7t66.5 17t56 31t40 51t25.5 76q-55 -42 -138 -42t-138.5 53t-55.5 145q0 93 62 152t159 59zM138 342q0 -50 31 -76.5t76 -26.5q73 0 123 35q-1 81 -34.5 128.5t-88.5 47.5
q-48 0 -77.5 -29t-29.5 -79z" />
    <glyph glyph-name="zero.tf" horiz-adv-x="559" 
d="M280 -16q-119 0 -180.5 90.5t-61.5 246.5q0 157 62 247t180 90q119 0 180 -90.5t61 -246.5t-62 -246.5t-179 -90.5zM280 83q117 0 117 238q0 235 -117 235q-118 0 -118 -235q0 -238 118 -238z" />
    <glyph glyph-name="one.tf" horiz-adv-x="559" 
d="M500 99q6 -30 6 -49q0 -14 -6 -50h-395q-6 26 -6 49q0 26 6 50h149v411l-142 -63q-17 12 -30 39.5t-14 56.5l216 103q22 5 42 5q30 0 42 -5v-547h132z" />
    <glyph glyph-name="two.tf" horiz-adv-x="559" 
d="M499 107q8 -26 8 -55q0 -26 -8 -52h-431q-5 17 -5 36q0 46 40 86q163 170 208 227t45 102q0 47 -24.5 74t-74.5 27q-33 0 -61.5 -11.5t-42.5 -23t-34 -31.5q-51 18 -72 73q36 42 93.5 70.5t124.5 28.5q95 0 153.5 -49.5t58.5 -143.5q0 -33 -12 -67.5t-26 -59.5t-49 -65.5
t-55 -60.5l-70 -70l-15 -15l-25 -23l37 3h237z" />
    <glyph glyph-name="three.tf" horiz-adv-x="559" 
d="M250 -16q-67 0 -117.5 20t-76.5 46q14 57 58 88q65 -53 136 -53q62 0 97 31t35 91q0 61 -38 92.5t-127 31.5h-45q0 1 -1.5 8.5t-1.5 11.5q0 24 29 59l114 129h-249q-7 33 -7 54q0 22 7 52h411q1 -6 1 -17q0 -48 -30 -83l-119 -134q68 -9 120 -56.5t52 -139.5
q0 -114 -70.5 -172.5t-177.5 -58.5z" />
    <glyph glyph-name="four.tf" horiz-adv-x="559" 
d="M517 206q0 -26 -6 -52h-70v-154q-23 -4 -53 -4q-31 0 -56 4v154h-271q-19 42 -16.5 75.5t23.5 84.5l156 352q54 -5 106 -32l-144 -329q-15 -36 -15 -50h161v141q32 5 56 5q25 0 53 -5v-141h71q5 -28 5 -49z" />
    <glyph glyph-name="five.tf" horiz-adv-x="559" 
d="M257 -16q-121 0 -193 62q13 60 57 89q62 -48 135 -48q68 0 102 31.5t34 86.5q0 112 -136 112q-31 0 -78.5 -12t-67.5 -12q-21 0 -31 5v347h386q6 -27 6 -53q0 -24 -5 -52h-281v-132q40 14 85 14q116 0 175.5 -55.5t59.5 -158.5t-65.5 -163.5t-182.5 -60.5z" />
    <glyph glyph-name="six.tf" horiz-adv-x="559" 
d="M316 408q92 0 147 -53.5t55 -149.5q0 -101 -65 -161.5t-167 -60.5q-109 0 -171.5 68.5t-62.5 185.5q0 93 31 171t84.5 130.5t119 86.5t138.5 48q31 -31 33 -101q-47 -10 -85 -24t-76 -37.5t-66.5 -60t-44.5 -84.5q60 42 130 42zM292 81q51 0 82 30t31 90q0 56 -33 82
t-82 26q-65 0 -122 -38q-1 -10 -1 -32q0 -73 34 -115.5t91 -42.5z" />
    <glyph glyph-name="seven.tf" horiz-adv-x="559" 
d="M508 642q7 -14 7 -37q0 -46 -22 -90l-280 -537q-65 5 -99 52l268 504h-321q-5 30 -5 56q0 24 5 52h447z" />
    <glyph glyph-name="eight.tf" horiz-adv-x="559" 
d="M394 336q50 -31 77 -68.5t27 -93.5q0 -95 -62.5 -142.5t-158.5 -47.5q-94 0 -156 42.5t-62 129.5q0 102 105 182q-85 56 -85 145q-1 80 55 130t148 50q91 0 144.5 -46.5t53.5 -123.5q0 -90 -86 -157zM279 572q-41 0 -65.5 -21t-24.5 -55q0 -36 26 -58t87 -52l12 -6
q57 49 57 108q0 40 -25.5 62t-66.5 22zM280 75q108 0 108 93q0 22 -8 38.5t-28.5 31t-34.5 22t-47 22.5q-18 8 -26 13q-70 -56 -70 -127q0 -48 30 -70.5t76 -22.5z" />
    <glyph glyph-name="nine.tf" horiz-adv-x="559" 
d="M269 663q110 0 170.5 -77.5t60.5 -223.5q0 -107 -28 -183t-81 -117.5t-119 -60t-151 -18.5q-15 27 -15 63q0 20 4 35q48 1 79.5 4.5t67 14t57.5 30t40.5 53t26.5 81.5q-59 -36 -122 -36q-97 0 -155.5 56.5t-58.5 154.5q0 99 63.5 161.5t160.5 62.5zM273 325q63 0 115 30
v6q0 101 -32 151.5t-91 50.5q-46 0 -78 -32.5t-32 -88.5t36 -86.5t82 -30.5z" />
    <glyph glyph-name="currency.osf" horiz-adv-x="610" 
d="M548 259q0 -72 -40 -134l54 -55q-27 -49 -75 -74l-55 56q-58 -36 -127 -36t-127 36l-55 -56q-46 25 -75 74l54 56q-39 59 -39 133q0 73 40 134l-55 56q28 48 75 75l56 -57q59 35 126 35q69 0 126 -35l56 57q45 -23 75 -75l-54 -55q40 -62 40 -135zM304 124q55 0 94 39.5
t39 96.5t-38.5 96.5t-94.5 39.5q-55 0 -93.5 -39.5t-38.5 -96.5t38.5 -96.5t93.5 -39.5z" />
    <glyph glyph-name="dollar.osf" horiz-adv-x="490" 
d="M456 167q0 -80 -47 -125t-128 -53v-104q-10 -2 -32 -2t-34 2v103q-117 9 -183 70q12 56 58 82q53 -45 125 -55v131q-79 8 -125.5 46.5t-47.5 105.5q0 67 46 110t127 52v98q12 2 33 2q23 0 33 -2v-97q99 -7 161 -57q-7 -56 -54 -81q-47 34 -107 41v-118q83 -9 129 -46.5
t46 -102.5zM148 379q0 -21 13 -33.5t54 -20.5v109q-67 -10 -67 -55zM281 85q69 12 69 63q0 24 -13.5 39.5t-55.5 22.5v-125z" />
    <glyph glyph-name="sterling.osf" horiz-adv-x="516" 
d="M467 96q7 -21 7 -43q0 -28 -7 -53h-398q0 41 20 105.5t21 114.5h-65q-6 20 -6 39t6 39h58q-5 30 -5 59q0 86 56.5 140t148.5 54q102 0 169 -61q-12 -58 -65 -85q-44 44 -99 44q-98 0 -98 -93q0 -18 6 -58h150q7 -23 7 -40t-7 -38h-144q-2 -66 -23 -124h268z" />
    <glyph glyph-name="yen.osf" horiz-adv-x="565" 
d="M457 205h-119v-52h119q4 -15 4 -33t-4 -33h-119v-87q-22 -5 -57 -5q-33 0 -58 5v87h-121q-4 15 -4 33t4 33h121v52h-121q-4 15 -4 33t4 33h86l-164 259q43 9 73 9q42 0 63 -4l116 -203l11 -23l10 23l124 203q24 4 56 4q26 0 66 -9l-166 -259h80q4 -15 4 -33t-4 -33z" />
    <glyph glyph-name="ampersand.ss02" horiz-adv-x="646" 
d="M490 144l129 -138q-18 -9 -58 -12q-38 -2 -56 0l-62 64q-65 -73 -181 -73q-105 0 -164.5 52t-59.5 142q0 63 31.5 110t83.5 73q-54 61 -54 126q0 69 52 115.5t130 46.5q93 0 157 -53q-14 -52 -57 -77q-45 39 -95 39q-36 0 -59 -19.5t-23 -50.5q0 -40 54 -97l147 -157v148
h200q13 -43 0 -87h-106v-89q-1 -33 -9 -63zM272 83q70 0 107 42l-161 168q-68 -29 -68 -106q0 -46 31.5 -75t90.5 -29z" />
    <glyph glyph-name="caroncomb.alt" 
d="M-96 511q-28 4 -42 24q20 44 20 107q0 40 -12 69q20 11 51 11q29 0 46 -10q5 -20 5 -43q0 -45 -19 -88.5t-49 -69.5z" />
    <glyph glyph-name="gravecomb.case" 
d="M-42 676l-210 75q0 64 51 98l183 -127q-5 -31 -24 -46z" />
    <glyph glyph-name="acutecomb.case" 
d="M-233 676q-20 17 -23 46l183 127q49 -33 51 -98z" />
    <glyph glyph-name="tildecomb.case" 
d="M-311 688q-21 0 -44.5 7.5t-34.5 20.5q10 50 42.5 78t77.5 28q30 0 74 -19t57 -19q37 0 47 43q52 0 79 -27q-10 -49 -42.5 -77.5t-74.5 -28.5q-29 0 -74 18t-58 18q-39 0 -49 -42z" />
    <glyph glyph-name="acute.case" horiz-adv-x="272" 
d="M40 676q-20 17 -23 46l183 127q49 -33 51 -98z" />
    <glyph glyph-name="breve.case" horiz-adv-x="361" 
d="M181 686q-72 0 -113.5 40t-41.5 96q32 13 73 8q15 -60 84 -60q32 0 54 15.5t26 44.5q41 5 71 -8q0 -54 -41.5 -95t-111.5 -41z" />
    <glyph glyph-name="caron.case" horiz-adv-x="350" 
d="M141 692l-117 93q8 35 36 54l119 -68l111 68q27 -16 35 -52l-116 -95q-35 -9 -68 0z" />
    <glyph glyph-name="circumflex.case" horiz-adv-x="348" 
d="M59 685q-29 19 -35 53l116 94q33 9 68 0l117 -92q-7 -35 -36 -55l-119 68z" />
    <glyph glyph-name="dieresis.case" horiz-adv-x="378" 
d="M84 700q-27 0 -45.5 18.5t-18.5 44.5t18.5 44.5t45.5 18.5q26 0 44 -18.5t18 -44.5t-18 -44.5t-44 -18.5zM295 700q-26 0 -45 18.5t-19 44.5t18.5 44.5t45.5 18.5q26 0 44.5 -18.5t18.5 -44.5t-18.5 -44.5t-44.5 -18.5z" />
    <glyph glyph-name="dotaccent.case" horiz-adv-x="203" 
d="M102 692q-30 0 -51 20.5t-21 50.5t21 50.5t51 20.5q29 0 50 -20.5t21 -50.5t-21 -50.5t-50 -20.5z" />
    <glyph glyph-name="grave.case" horiz-adv-x="276" 
d="M231 676l-210 75q0 64 51 98l183 -127q-5 -31 -24 -46z" />
    <glyph glyph-name="hungarumlaut.case" horiz-adv-x="384" 
d="M55 664q-27 11 -38 36l105 144q56 -11 73 -66zM227 664q-27 11 -38 36l105 144q56 -11 73 -66z" />
    <glyph glyph-name="macron.case" horiz-adv-x="345" 
d="M28 718q-6 26 -6 41q0 14 6 42h289q6 -19 6 -42q0 -21 -6 -41h-289z" />
    <glyph glyph-name="ring.case" horiz-adv-x="254" 
d="M128 658q-45 0 -76.5 31.5t-31.5 75.5q0 45 31.5 76.5t76.5 31.5q44 0 75 -31.5t31 -76.5q0 -44 -31 -75.5t-75 -31.5zM127 723q17 0 28.5 12.5t11.5 29.5q0 18 -11 30.5t-29 12.5t-29 -12.5t-11 -30.5q0 -17 11.5 -29.5t28.5 -12.5z" />
    <glyph glyph-name="tilde.case" horiz-adv-x="400" 
d="M89 688q-21 0 -44.5 7.5t-34.5 20.5q10 50 42.5 78t77.5 28q30 0 74 -19t57 -19q37 0 47 43q52 0 79 -27q-10 -49 -42.5 -77.5t-74.5 -28.5q-29 0 -74 18t-58 18q-39 0 -49 -42z" />
    <glyph glyph-name="IJacute" horiz-adv-x="537" 
d="M54 668q-20 14 -26 45l177 133q51 -32 55 -96zM322 668q-22 15 -26 45l177 133q51 -32 55 -96zM130 103q-24 0 -59 5v533q27 7 57 7t58 -7v-533q-30 -5 -56 -5zM268 -107q-47 0 -84 17t-58 40q13 63 63 87q35 -39 76 -39q80 0 80 88v555q22 6 58 6q34 0 58 -6v-554
q0 -93 -53 -143.5t-140 -50.5z" />
    <glyph glyph-name="ijacute" horiz-adv-x="496" 
d="M55 517q-22 14 -31 43l156 150q50 -27 65 -90zM296 517q-23 15 -30 43l156 150q48 -26 65 -90zM122 -5q-32 0 -56 5v473q24 5 56 5q33 0 57 -5v-473q-23 -5 -57 -5zM250 -198q-78 0 -122 42q12 53 53 77q27 -24 63 -24q73 0 73 88v487q24 5 56 5q33 0 57 -5v-485
q0 -89 -51.5 -137t-128.5 -48z" />
    <glyph glyph-name="slashlong" horiz-adv-x="578" 
d="M89 -30q-34 11 -47 47l439 485q35 -13 47 -43z" />
    <glyph glyph-name="slashshort" horiz-adv-x="298" 
d="M42 254q-31 24 -34 68l251 130q28 -28 33 -69z" />
    <glyph glyph-name="stroke" horiz-adv-x="334" 
d="M30 443q-6 17 -6 37t6 39h274q6 -18 6 -38t-6 -38h-274z" />
    <glyph glyph-name="caronalt" horiz-adv-x="161" 
d="M65 511q-28 4 -42 24q20 44 20 107q0 40 -12 69q20 11 51 11q29 0 46 -10q5 -20 5 -43q0 -45 -19 -88.5t-49 -69.5z" />
    <glyph glyph-name="slashlong.case" horiz-adv-x="700" 
d="M87 -32q-50 15 -68 65l592 646q48 -15 68 -61z" />
    <glyph glyph-name="slashshort.case" horiz-adv-x="339" 
d="M57 248q-13 10 -23.5 32t-12.5 40l263 137q32 -32 35 -73z" />
    <glyph glyph-name="i.loclTRK" horiz-adv-x="245" 
d="M123 545q-31 0 -52.5 21t-21.5 51t21.5 51t52.5 21q29 0 50.5 -21t21.5 -51t-21.5 -51t-50.5 -21zM123 -5q-33 0 -57 5v473q24 5 57 5t56 -5v-473q-23 -5 -56 -5z" />
    <glyph glyph-name="uni1EF9.ss01" horiz-adv-x="560" 
d="M175 546q-21 0 -45 7.5t-35 20.5q10 50 42.5 79t76.5 29q28 -1 70 -20t56 -19q34 0 47 42q47 0 79 -27q-11 -49 -43 -77t-73 -28q-29 0 -71.5 19t-55.5 19q-35 0 -48 -45zM438 476q25 0 57 -5v-454q0 -99 -67 -157.5t-172 -58.5q-82 0 -130.5 32.5t-48.5 92.5
q0 77 90 120q-108 38 -108 159v266q33 5 57 5q26 0 56 -5v-227q0 -62 24 -91t88 -29q60 0 98 24v323q32 5 56 5zM257 -111q59 0 92 33t33 85v33q-34 -10 -76 -15q-121 -17 -121 -80q0 -56 72 -56z" />
    <glyph glyph-name="uni1EF9.ss02" horiz-adv-x="560" 
d="M174 546q-21 0 -45 7.5t-35 20.5q10 50 42.5 79t76.5 29q28 -1 70 -20t56 -19q34 0 47 42q47 0 79 -27q-11 -49 -43 -77t-73 -28q-29 0 -71.5 19t-55.5 19q-35 0 -48 -45zM438 476q25 0 57 -5v-451q0 -101 -65 -160t-171 -59q-139 0 -212 80q11 53 66 74q55 -60 142 -60
q64 0 95.5 30.5t31.5 81.5v32q-56 -23 -116 -23q-102 0 -154.5 51t-52.5 137v267q33 5 57 5q26 0 56 -5v-234q0 -62 24 -91t88 -29q58 0 98 25v329q32 5 56 5z" />
    <glyph glyph-name="cent.osf" horiz-adv-x="500" 
d="M462 78q-54 -56 -142 -65v-102q-14 -3 -33 -3q-21 0 -34 3v103q-98 11 -156.5 74t-58.5 166q0 99 59.5 164.5t155.5 76.5v104q18 4 34 4q15 0 33 -4v-104q91 -8 141 -62q-14 -50 -62 -75q-33 33 -79 40v-286q44 6 84 42q45 -26 58 -76zM153 254q0 -51 25.5 -89.5
t74.5 -50.5v282q-49 -11 -74.5 -50.5t-25.5 -91.5z" />
    <glyph glyph-name="Euro.osf" horiz-adv-x="564" 
d="M474 119q40 -28 52 -84q-60 -50 -166 -50q-102 0 -167 50t-85 143h-75q-4 22 -4 33q0 12 4 34h66v22q0 19 1 28h-48q-4 22 -4 34q0 11 4 33h59q23 88 88.5 138t161.5 50q97 0 161 -48q-14 -51 -55 -81q-45 30 -104 30q-102 0 -135 -89h137q4 -15 4 -33q0 -19 -4 -34h-150
q-1 -9 -1 -28q0 -15 1 -22h131q4 -15 4 -34q0 -18 -4 -33h-119q30 -94 133 -94q69 0 114 35z" />
    <glyph glyph-name="uni0308.case" 
d="M-294 700q-27 0 -45.5 18.5t-18.5 44.5t18.5 44.5t45.5 18.5q26 0 44 -18.5t18 -44.5t-18 -44.5t-44 -18.5zM-83 700q-26 0 -45 18.5t-19 44.5t18.5 44.5t45.5 18.5q26 0 44.5 -18.5t18.5 -44.5t-18.5 -44.5t-44.5 -18.5z" />
    <glyph glyph-name="uni0307.case" 
d="M-101 692q-30 0 -51 20.5t-21 50.5t21 50.5t51 20.5q29 0 50 -20.5t21 -50.5t-21 -50.5t-50 -20.5z" />
    <glyph glyph-name="uni030B.case" 
d="M-331 664q-27 11 -38 36l105 144q56 -11 73 -66zM-159 664q-27 11 -38 36l105 144q56 -11 73 -66z" />
    <glyph glyph-name="uni0302.case" 
d="M-292 685q-29 18 -35 53l115 94q34 9 69 0l116 -92q-7 -35 -36 -55l-118 68z" />
    <glyph glyph-name="uni030C.case" 
d="M-210 692l-116 93q8 35 36 54l118 -68l111 68q29 -16 35 -52l-115 -95q-35 -9 -69 0z" />
    <glyph glyph-name="uni0306.case" 
d="M-181 686q-72 0 -113.5 40t-41.5 96q32 13 73 8q15 -60 84 -60q31 0 53.5 15.5t26.5 44.5q41 5 71 -8q0 -54 -41.5 -95t-111.5 -41z" />
    <glyph glyph-name="uni030A.case" 
d="M-123 658q-45 0 -76.5 31.5t-31.5 75.5q0 45 31.5 76.5t76.5 31.5q44 0 75 -31.5t31 -76.5q0 -44 -31 -75.5t-75 -31.5zM-124 723q17 0 28.5 12.5t11.5 29.5q0 18 -11 30.5t-29 12.5t-29 -12.5t-11 -30.5q0 -17 11.5 -29.5t28.5 -12.5z" />
    <glyph glyph-name="uni0304.case" 
d="M-318 718q-6 26 -6 41q0 14 6 42h289q6 -19 6 -42q0 -21 -6 -41h-289z" />
    <glyph glyph-name="uni0337.case" 
d="M-282 248q-13 10 -23.5 32t-12.5 40l263 137q32 -32 35 -73z" />
    <glyph glyph-name="uni0338.case" 
d="M-613 -32q-50 15 -68 65l592 646q48 -15 68 -61z" />
    </font>
</defs>
</svg>
